<svg width="501" height="46" viewBox="0 0 501 46" fill="none" xmlns="http://www.w3.org/2000/svg">
<path d="M15.0385 38.792V29.192H58.8145V38.792H15.0385ZM0.7025 45L28.1585 4.04H45.9505L73.6625 45H56.0625L32.3185 8.328H41.8545L18.3025 45H0.7025ZM118.473 45.896C114.633 45.896 111.177 45.512 108.104 44.744C105.033 43.9333 102.409 42.8027 100.233 41.352C98.0565 39.8587 96.3925 38.1093 95.2405 36.104C94.0885 34.056 93.5125 31.7947 93.5125 29.32C93.5125 26.8453 94.0885 24.584 95.2405 22.536C96.3925 20.488 98.0565 18.7387 100.233 17.288C102.409 15.7947 105.033 14.664 108.104 13.896C111.177 13.0853 114.633 12.68 118.473 12.68C123.081 12.68 127.177 13.2987 130.761 14.536C134.387 15.7733 137.225 17.6293 139.273 20.104C141.321 22.5787 142.345 25.6507 142.345 29.32C142.345 32.8187 141.321 35.8053 139.273 38.28C137.225 40.7547 134.387 42.6533 130.761 43.976C127.177 45.256 123.081 45.896 118.473 45.896ZM112.713 36.168C115.614 36.168 118.089 35.912 120.137 35.4C122.185 34.888 123.742 34.12 124.809 33.096C125.875 32.072 126.409 30.8133 126.409 29.32C126.409 27.016 125.214 25.3093 122.825 24.2C120.435 23.048 117.065 22.472 112.713 22.472C109.47 22.472 106.483 22.664 103.753 23.048C101.065 23.432 98.8885 24.1147 97.2245 25.096C95.6032 26.0773 94.7925 27.4853 94.7925 29.32C94.7925 31.112 95.6032 32.4987 97.2245 33.48C98.8885 34.4613 101.065 35.1653 103.753 35.592C106.483 35.976 109.47 36.168 112.713 36.168ZM94.7925 0.839996V32.84C94.7925 35.5707 94.6858 38.0453 94.4725 40.264C94.3018 42.44 94.1098 44.0187 93.8965 45H79.4325V0.839996H94.7925ZM177.203 45.96C170.419 45.96 164.765 45.4053 160.243 44.296C155.763 43.1867 152.392 41.416 150.131 38.984C147.912 36.552 146.803 33.352 146.803 29.384C146.803 25.416 147.912 22.216 150.131 19.784C152.392 17.3093 155.763 15.5173 160.243 14.408C164.765 13.256 170.419 12.68 177.203 12.68C183.944 12.68 189.533 13.256 193.971 14.408C198.451 15.5173 201.8 17.3093 204.019 19.784C206.237 22.216 207.347 25.416 207.347 29.384C207.347 33.352 206.237 36.552 204.019 38.984C201.8 41.416 198.451 43.1867 193.971 44.296C189.533 45.4053 183.944 45.96 177.203 45.96ZM177.203 36.68C180.36 36.68 183.005 36.424 185.139 35.912C187.272 35.3573 188.893 34.5467 190.003 33.48C191.112 32.3707 191.667 31.0053 191.667 29.384C191.667 27.7627 191.112 26.3973 190.003 25.288C188.936 24.1787 187.336 23.3467 185.203 22.792C183.069 22.2373 180.403 21.96 177.203 21.96C174.045 21.96 171.357 22.2373 169.139 22.792C166.963 23.3467 165.299 24.1787 164.147 25.288C163.037 26.3547 162.483 27.72 162.483 29.384C162.483 31.0053 163.037 32.3707 164.147 33.48C165.256 34.5467 166.899 35.3573 169.075 35.912C171.293 36.424 174.003 36.68 177.203 36.68ZM270.555 45H255.195V13.64H270.555V45ZM255.835 28.808L255.963 31.88C255.835 32.776 255.408 33.8213 254.683 35.016C254 36.2107 253.04 37.448 251.803 38.728C250.565 40.008 249.051 41.2027 247.259 42.312C245.467 43.3787 243.419 44.2533 241.115 44.936C238.811 45.6187 236.251 45.96 233.435 45.96C230.619 45.96 227.952 45.6613 225.435 45.064C222.917 44.5093 220.677 43.5707 218.715 42.248C216.752 40.9253 215.216 39.1547 214.107 36.936C212.997 34.6747 212.443 31.8587 212.443 28.488V13.64H227.803V26.888C227.803 29.2347 228.187 31.048 228.955 32.328C229.765 33.608 231.024 34.504 232.731 35.016C234.437 35.4853 236.635 35.72 239.323 35.72C241.84 35.72 244.165 35.3573 246.299 34.632C248.475 33.864 250.373 32.9467 251.995 31.88C253.659 30.8133 254.939 29.7893 255.835 28.808ZM274.718 13.64H312.35V23.24H274.718V13.64ZM285.854 4.04H301.214V45H285.854V4.04ZM336.318 13.64H351.678V45H336.318V13.64ZM374.718 12.68C377.235 12.68 379.667 12.9573 382.014 13.512C384.36 14.024 386.451 14.92 388.286 16.2C390.163 17.48 391.656 19.2293 392.766 21.448C393.875 23.6667 394.43 26.4613 394.43 29.832V45H379.07V31.752C379.07 28.552 378.238 26.2907 376.574 24.968C374.91 23.6027 371.902 22.92 367.55 22.92C365.246 22.92 363.006 23.176 360.83 23.688C358.696 24.2 356.776 24.8187 355.07 25.544C353.363 26.2267 352.019 26.9093 351.038 27.592L350.91 25.16C351.08 24.392 351.656 23.3253 352.638 21.96C353.662 20.552 355.134 19.144 357.054 17.736C358.974 16.328 361.384 15.1333 364.286 14.152C367.23 13.1707 370.707 12.68 374.718 12.68ZM416.702 12.68C419.219 12.68 421.651 12.9573 423.998 13.512C426.344 14.024 428.435 14.92 430.27 16.2C432.147 17.48 433.64 19.2293 434.75 21.448C435.859 23.6667 436.414 26.4613 436.414 29.832V45H421.054V31.752C421.054 28.552 420.222 26.2907 418.558 24.968C416.894 23.6027 413.886 22.92 409.534 22.92C407.23 22.92 404.99 23.176 402.814 23.688C400.68 24.2 398.76 24.8187 397.054 25.544C395.347 26.2267 394.003 26.9093 393.022 27.592L392.894 24.52C393.064 23.88 393.704 22.92 394.814 21.64C395.923 20.36 397.48 19.0373 399.486 17.672C401.534 16.3067 403.987 15.1333 406.846 14.152C409.747 13.1707 413.032 12.68 416.702 12.68ZM485.457 33.736H500.561C500.177 36.2107 498.939 38.3653 496.849 40.2C494.801 42.0347 491.793 43.464 487.825 44.488C483.899 45.4693 478.886 45.96 472.785 45.96C466.342 45.96 460.774 45.448 456.081 44.424C451.43 43.4 447.846 41.672 445.329 39.24C442.811 36.808 441.553 33.5227 441.553 29.384C441.553 25.288 442.769 22.024 445.201 19.592C447.675 17.1173 451.238 15.3467 455.889 14.28C460.539 13.2133 466.171 12.68 472.785 12.68C479.27 12.68 484.582 13.256 488.721 14.408C492.859 15.56 495.91 17.4373 497.873 20.04C499.835 22.6 500.774 26.0773 500.689 30.472H457.169C457.382 31.5813 457.979 32.6053 458.961 33.544C459.985 34.4827 461.542 35.2507 463.633 35.848C465.766 36.4027 468.603 36.68 472.145 36.68C475.814 36.68 478.822 36.424 481.169 35.912C483.558 35.4 484.987 34.6747 485.457 33.736ZM472.145 21.96C467.622 21.96 464.166 22.4507 461.777 23.432C459.43 24.4133 458.043 25.3947 457.617 26.376H485.777C485.478 25.2667 484.283 24.264 482.193 23.368C480.102 22.4293 476.753 21.96 472.145 21.96Z" fill="white"/>
</svg>
