<svg width="706" height="294" viewBox="0 0 706 294" fill="none" xmlns="http://www.w3.org/2000/svg">
<path d="M17.3472 12.1029C20.4688 12.1029 23.085 12.4894 25.1958 13.2624C27.3066 14.0353 28.9863 15.0907 30.2349 16.4286C31.4835 17.7367 32.3754 19.2529 32.9106 20.9772C33.4754 22.7015 33.7579 24.515 33.7579 26.4177C33.7579 28.3501 33.4606 30.1933 32.866 31.9474C32.2714 33.7014 31.32 35.2622 30.0119 36.6298C28.7336 37.9676 27.0539 39.0379 24.9728 39.8405C22.8917 40.6135 20.3498 41 17.3472 41H3.47835V12.1029H17.3472ZM8.5621 36.5406H17.3026C19.5026 36.5406 21.3309 36.2581 22.7877 35.6933C24.2444 35.1284 25.4039 34.3703 26.266 33.419C27.1282 32.4379 27.7376 31.3528 28.0944 30.1636C28.4511 28.9447 28.6295 27.696 28.6295 26.4177C28.6295 25.1393 28.4511 23.9204 28.0944 22.7609C27.7376 21.5718 27.1282 20.5164 26.266 19.5948C25.4039 18.6434 24.2444 17.9002 22.7877 17.365C21.3309 16.8002 19.5026 16.5177 17.3026 16.5177H8.5621V36.5406ZM57.3311 33.6865H62.1027C61.8649 35.2027 61.2703 36.5554 60.319 37.7446C59.3973 38.9041 58.1338 39.8257 56.5285 40.5095C54.9231 41.1635 53.0055 41.4905 50.7758 41.4905C48.2488 41.4905 45.9893 41.0297 43.9975 40.1081C42.0056 39.1568 40.4448 37.8189 39.3151 36.0946C38.1853 34.3703 37.6205 32.319 37.6205 29.9406C37.6205 27.592 38.1705 25.5407 39.2705 23.7866C40.3705 22.0326 41.8867 20.6799 43.8191 19.7285C45.7812 18.7772 48.0407 18.3015 50.5974 18.3015C53.2433 18.3015 55.4433 18.7772 57.1974 19.7285C58.9811 20.6502 60.3041 22.0474 61.1663 23.9204C62.0284 25.7636 62.3852 28.0974 62.2365 30.9217H42.6596C42.8083 32.1703 43.2096 33.3001 43.8637 34.3109C44.5475 35.2919 45.4691 36.0649 46.6285 36.6298C47.788 37.1649 49.1407 37.4325 50.6866 37.4325C52.4109 37.4325 53.8528 37.0906 55.0122 36.4068C56.2014 35.723 56.9744 34.8163 57.3311 33.6865ZM50.4636 22.315C48.442 22.315 46.7772 22.8204 45.4691 23.8312C44.161 24.8123 43.3137 26.0758 42.9272 27.6217H57.242C57.123 25.9569 56.4541 24.6636 55.2352 23.742C54.0163 22.7907 52.4258 22.315 50.4636 22.315ZM65.6703 33.6865H70.2635C70.5013 34.8163 71.1108 35.7379 72.0918 36.4514C73.0729 37.1352 74.3959 37.4771 76.0607 37.4771C77.131 37.4771 77.9634 37.3581 78.558 37.1203C79.1823 36.8825 79.6134 36.5554 79.8513 36.1392C80.1188 35.723 80.2526 35.2473 80.2526 34.7122C80.2526 34.0582 80.0594 33.5528 79.6729 33.196C79.3161 32.8392 78.781 32.542 78.0675 32.3041C77.354 32.0663 76.4621 31.8582 75.3918 31.6798C74.2918 31.4122 73.2067 31.1149 72.1364 30.7879C71.0662 30.4609 70.1 30.0595 69.2378 29.5839C68.3757 29.0785 67.6919 28.4541 67.1865 27.7109C66.7108 26.9379 66.473 26.0015 66.473 24.9015C66.473 23.8907 66.6959 22.9839 67.1419 22.1812C67.6176 21.3488 68.2716 20.6502 69.104 20.0853C69.9365 19.5204 70.9175 19.0894 72.0473 18.7921C73.177 18.465 74.4108 18.3015 75.7486 18.3015C77.681 18.3015 79.2864 18.6137 80.5648 19.238C81.8729 19.8623 82.8539 20.7393 83.508 21.8691C84.1918 22.9988 84.5336 24.292 84.5336 25.7488H80.1634C79.9256 24.5596 79.4648 23.6974 78.781 23.1623C78.0972 22.6272 77.0715 22.3596 75.704 22.3596C74.3364 22.3596 73.2959 22.5974 72.5824 23.0731C71.8689 23.5488 71.5121 24.2028 71.5121 25.0353C71.5121 25.6596 71.7351 26.165 72.181 26.5515C72.6567 26.9082 73.3256 27.2204 74.1878 27.4879C75.0499 27.7555 76.0607 28.0231 77.2202 28.2906C78.2905 28.5879 79.3013 28.9001 80.2526 29.2271C81.2039 29.5244 82.0512 29.9109 82.7945 30.3866C83.5674 30.8325 84.1769 31.4271 84.6228 32.1703C85.0688 32.9136 85.2918 33.8352 85.2918 34.9352C85.2918 36.3027 84.9201 37.4771 84.1769 38.4581C83.4634 39.4392 82.4229 40.1973 81.0553 40.7324C79.6877 41.2378 78.0378 41.4905 76.1053 41.4905C74.4108 41.4905 72.9391 41.2973 71.6905 40.9108C70.4716 40.5243 69.4459 40.0189 68.6135 39.3946C67.8108 38.7703 67.1865 38.1014 66.7405 37.3879C66.2946 36.6744 65.9824 35.9906 65.8041 35.3365C65.6554 34.6825 65.6108 34.1325 65.6703 33.6865ZM95.5732 9.38267V14.1543H89.6421V9.38267H95.5732ZM90.0881 18.7921H95.0826V41H90.0881V18.7921ZM110.912 37.5662C108.83 37.5662 106.943 37.1946 105.248 36.4514C103.583 35.7081 102.26 34.623 101.279 33.196C100.328 31.769 99.8521 30.0595 99.8521 28.0677C99.8521 26.0758 100.313 24.3515 101.235 22.8947C102.186 21.438 103.494 20.3083 105.159 19.5056C106.853 18.7029 108.771 18.3015 110.912 18.3015C111.536 18.3015 112.13 18.3461 112.695 18.4353C113.29 18.5245 113.855 18.6434 114.39 18.7921L124.78 18.8367V22.9839C123.353 23.0136 121.911 22.8204 120.455 22.4042C119.028 21.9582 117.764 21.4974 116.664 21.0218L116.53 20.7542C117.541 21.2596 118.448 21.8839 119.251 22.6272C120.083 23.3407 120.737 24.1582 121.213 25.0798C121.688 26.0015 121.926 27.042 121.926 28.2014C121.926 30.1636 121.451 31.8433 120.499 33.2406C119.578 34.6379 118.284 35.7081 116.62 36.4514C114.984 37.1946 113.082 37.5662 110.912 37.5662ZM118.047 50.0526V49.027C118.047 47.5702 117.616 46.5446 116.753 45.95C115.891 45.3554 114.687 45.0581 113.141 45.0581H107.121C105.932 45.0581 104.906 44.954 104.044 44.7459C103.212 44.5675 102.543 44.2851 102.037 43.8986C101.532 43.5419 101.16 43.1108 100.922 42.6054C100.685 42.1297 100.566 41.5946 100.566 41C100.566 39.8108 100.922 38.9189 101.636 38.3243C102.379 37.7298 103.345 37.3433 104.535 37.1649C105.753 36.9865 107.032 36.9568 108.37 37.0757L110.912 37.5662C109.157 37.6257 107.82 37.7892 106.898 38.0568C106.006 38.2946 105.56 38.7852 105.56 39.5284C105.56 39.9743 105.739 40.3311 106.095 40.5987C106.452 40.8662 106.957 41 107.612 41H113.944C115.757 41 117.348 41.2081 118.716 41.6243C120.083 42.0703 121.138 42.7986 121.882 43.8094C122.655 44.85 123.041 46.2621 123.041 48.0459V50.0526H118.047ZM110.912 33.6865C112.101 33.6865 113.156 33.4636 114.078 33.0176C114.999 32.5717 115.728 31.9325 116.263 31.1001C116.798 30.2676 117.066 29.2568 117.066 28.0677C117.066 26.8785 116.798 25.8528 116.263 24.9907C115.728 24.1285 114.999 23.4745 114.078 23.0285C113.156 22.5826 112.101 22.3596 110.912 22.3596C109.752 22.3596 108.697 22.5826 107.745 23.0285C106.824 23.4745 106.095 24.1285 105.56 24.9907C105.025 25.8231 104.757 26.8488 104.757 28.0677C104.757 29.2568 105.025 30.2676 105.56 31.1001C106.095 31.9325 106.824 32.5717 107.745 33.0176C108.667 33.4636 109.722 33.6865 110.912 33.6865ZM128.752 18.7921H133.702V41H128.752V18.7921ZM143.067 18.3015C144.345 18.3015 145.52 18.4799 146.59 18.8367C147.69 19.1934 148.627 19.7434 149.399 20.4866C150.202 21.2001 150.812 22.092 151.228 23.1623C151.674 24.2326 151.897 25.4961 151.897 26.9528V41H146.947V27.9339C146.947 26.1204 146.501 24.7826 145.609 23.9204C144.747 23.0285 143.379 22.5826 141.506 22.5826C140.079 22.5826 138.771 22.8947 137.582 23.519C136.423 24.1136 135.471 24.9015 134.728 25.8825C133.985 26.8339 133.554 27.8893 133.435 29.0487L133.39 26.6406C133.539 25.5407 133.866 24.5001 134.371 23.519C134.877 22.5082 135.546 21.6164 136.378 20.8434C137.21 20.0407 138.191 19.4164 139.321 18.9704C140.451 18.5245 141.7 18.3015 143.067 18.3015Z" fill="white"/>
<path d="M269.166 18.7921H274.161V49.9189H269.166V18.7921ZM274.562 9.38267V14.1543H268.631V9.38267H274.562ZM303.145 41H298.195V18.7921H303.145V41ZM298.463 30.4312L298.507 31.8582C298.448 32.2447 298.314 32.8244 298.106 33.5974C297.927 34.3703 297.615 35.2176 297.169 36.1392C296.753 37.0311 296.188 37.8933 295.475 38.7257C294.791 39.5284 293.929 40.1973 292.888 40.7324C291.848 41.2378 290.584 41.4905 289.098 41.4905C288.027 41.4905 286.942 41.3419 285.842 41.0446C284.772 40.777 283.791 40.3162 282.899 39.6622C282.037 39.0081 281.338 38.1162 280.803 36.9865C280.268 35.8568 280.001 34.4298 280.001 32.7055V18.7921H284.95V31.769C284.95 33.1663 285.173 34.2663 285.619 35.069C286.095 35.8419 286.749 36.3919 287.582 36.719C288.414 37.046 289.38 37.2095 290.48 37.2095C292.056 37.2095 293.394 36.8527 294.494 36.1392C295.594 35.4257 296.471 34.5487 297.125 33.5082C297.808 32.4379 298.254 31.4122 298.463 30.4312ZM307.631 33.6865H312.224C312.462 34.8163 313.072 35.7379 314.053 36.4514C315.034 37.1352 316.357 37.4771 318.022 37.4771C319.092 37.4771 319.924 37.3581 320.519 37.1203C321.143 36.8825 321.574 36.5554 321.812 36.1392C322.08 35.723 322.214 35.2473 322.214 34.7122C322.214 34.0582 322.02 33.5528 321.634 33.196C321.277 32.8392 320.742 32.542 320.028 32.3041C319.315 32.0663 318.423 31.8582 317.353 31.6798C316.253 31.4122 315.168 31.1149 314.097 30.7879C313.027 30.4609 312.061 30.0595 311.199 29.5839C310.337 29.0785 309.653 28.4541 309.147 27.7109C308.672 26.9379 308.434 26.0015 308.434 24.9015C308.434 23.8907 308.657 22.9839 309.103 22.1812C309.578 21.3488 310.233 20.6502 311.065 20.0853C311.897 19.5204 312.878 19.0894 314.008 18.7921C315.138 18.465 316.372 18.3015 317.709 18.3015C319.642 18.3015 321.247 18.6137 322.526 19.238C323.834 19.8623 324.815 20.7393 325.469 21.8691C326.153 22.9988 326.495 24.292 326.495 25.7488H322.124C321.886 24.5596 321.426 23.6974 320.742 23.1623C320.058 22.6272 319.032 22.3596 317.665 22.3596C316.297 22.3596 315.257 22.5974 314.543 23.0731C313.83 23.5488 313.473 24.2028 313.473 25.0353C313.473 25.6596 313.696 26.165 314.142 26.5515C314.618 26.9082 315.287 27.2204 316.149 27.4879C317.011 27.7555 318.022 28.0231 319.181 28.2906C320.251 28.5879 321.262 28.9001 322.214 29.2271C323.165 29.5244 324.012 29.9109 324.755 30.3866C325.528 30.8325 326.138 31.4271 326.584 32.1703C327.03 32.9136 327.253 33.8352 327.253 34.9352C327.253 36.3027 326.881 37.4771 326.138 38.4581C325.424 39.4392 324.384 40.1973 323.016 40.7324C321.649 41.2378 319.999 41.4905 318.066 41.4905C316.372 41.4905 314.9 41.2973 313.651 40.9108C312.432 40.5243 311.407 40.0189 310.574 39.3946C309.772 38.7703 309.147 38.1014 308.701 37.3879C308.256 36.6744 307.943 35.9906 307.765 35.3365C307.616 34.6825 307.572 34.1325 307.631 33.6865ZM330.176 18.7921H345.873V22.8501H330.176V18.7921ZM335.527 12.8164H340.522V41H335.527V12.8164Z" fill="white"/>
<path d="M486.758 18.7921H492.065L501.028 40.1081L496.747 41L486.758 18.7921ZM511.508 18.7921L497.238 49.9189H492.02L498.13 37.7446L506.201 18.7921H511.508ZM526.015 41.4905C523.547 41.4905 521.333 41.0446 519.37 40.1527C517.408 39.2608 515.862 37.9527 514.733 36.2284C513.603 34.5041 513.038 32.4082 513.038 29.9406C513.038 27.5028 513.603 25.4217 514.733 23.6974C515.862 21.9434 517.408 20.6056 519.37 19.6839C521.333 18.7623 523.547 18.3015 526.015 18.3015C528.483 18.3015 530.683 18.7623 532.615 19.6839C534.547 20.6056 536.064 21.9434 537.164 23.6974C538.293 25.4217 538.858 27.5028 538.858 29.9406C538.858 32.4082 538.293 34.5041 537.164 36.2284C536.064 37.9527 534.547 39.2608 532.615 40.1527C530.683 41.0446 528.483 41.4905 526.015 41.4905ZM526.015 37.4325C527.442 37.4325 528.75 37.15 529.939 36.5852C531.128 36.0203 532.065 35.173 532.749 34.0433C533.462 32.9136 533.819 31.546 533.819 29.9406C533.819 28.3352 533.462 26.9677 532.749 25.838C532.065 24.7082 531.128 23.8461 529.939 23.2515C528.78 22.6272 527.472 22.315 526.015 22.315C524.558 22.315 523.235 22.6123 522.046 23.2069C520.857 23.8015 519.891 24.6636 519.147 25.7934C518.434 26.9231 518.077 28.3055 518.077 29.9406C518.077 31.546 518.434 32.9136 519.147 34.0433C519.861 35.173 520.812 36.0203 522.002 36.5852C523.22 37.15 524.558 37.4325 526.015 37.4325ZM566.433 41H561.483V18.7921H566.433V41ZM561.75 30.4312L561.795 31.8582C561.735 32.2447 561.602 32.8244 561.394 33.5974C561.215 34.3703 560.903 35.2176 560.457 36.1392C560.041 37.0311 559.476 37.8933 558.763 38.7257C558.079 39.5284 557.217 40.1973 556.176 40.7324C555.136 41.2378 553.872 41.4905 552.386 41.4905C551.315 41.4905 550.23 41.3419 549.13 41.0446C548.06 40.777 547.079 40.3162 546.187 39.6622C545.325 39.0081 544.626 38.1162 544.091 36.9865C543.556 35.8568 543.288 34.4298 543.288 32.7055V18.7921H548.238V31.769C548.238 33.1663 548.461 34.2663 548.907 35.069C549.383 35.8419 550.037 36.3919 550.869 36.719C551.702 37.046 552.668 37.2095 553.768 37.2095C555.344 37.2095 556.681 36.8527 557.781 36.1392C558.881 35.4257 559.758 34.5487 560.412 33.5082C561.096 32.4379 561.542 31.4122 561.75 30.4312Z" fill="white"/>
<path d="M671.676 26.819H703.248V30.9217H671.676V26.819Z" fill="white"/>
<path d="M4.20405 138.792H19.9012V142.85H4.20405V138.792ZM9.55536 132.816H14.5499V161H9.55536V132.816ZM46.9386 161H41.9886V138.792H46.9386V161ZM42.2562 150.431L42.3008 151.858C42.2413 152.245 42.1075 152.824 41.8994 153.597C41.7211 154.37 41.4089 155.218 40.963 156.139C40.5467 157.031 39.9819 157.893 39.2684 158.726C38.5846 159.528 37.7224 160.197 36.6819 160.732C35.6414 161.238 34.3779 161.491 32.8914 161.491C31.8211 161.491 30.736 161.342 29.636 161.045C28.5658 160.777 27.5847 160.316 26.6928 159.662C25.8306 159.008 25.132 158.116 24.5969 156.987C24.0617 155.857 23.7942 154.43 23.7942 152.705V138.792H28.7441V151.769C28.7441 153.166 28.9671 154.266 29.413 155.069C29.8887 155.842 30.5428 156.392 31.3752 156.719C32.2076 157.046 33.1738 157.209 34.2738 157.209C35.8495 157.209 37.1873 156.853 38.2873 156.139C39.3873 155.426 40.2643 154.549 40.9184 153.508C41.6021 152.438 42.0481 151.412 42.2562 150.431ZM52.4059 138.792H57.3559V161H52.4059V138.792ZM65.3828 143.029C63.7774 143.029 62.395 143.37 61.2356 144.054C60.1059 144.738 59.1991 145.57 58.5153 146.551C57.8315 147.533 57.3559 148.484 57.0883 149.405L57.0437 146.908C57.0734 146.581 57.1775 146.091 57.3559 145.437C57.5343 144.753 57.8018 144.01 58.1586 143.207C58.5451 142.404 59.0505 141.631 59.6748 140.888C60.3288 140.115 61.1167 139.491 62.0383 139.015C62.9896 138.539 64.1045 138.302 65.3828 138.302V143.029ZM69.1288 138.792H74.0787V161H69.1288V138.792ZM83.4435 138.302C84.7219 138.302 85.8962 138.48 86.9665 138.837C88.0665 139.193 89.0029 139.743 89.7759 140.487C90.5786 141.2 91.1881 142.092 91.6043 143.162C92.0502 144.233 92.2732 145.496 92.2732 146.953V161H87.3232V147.934C87.3232 146.12 86.8773 144.783 85.9854 143.92C85.1232 143.029 83.7557 142.583 81.8827 142.583C80.4557 142.583 79.1476 142.895 77.9584 143.519C76.799 144.114 75.8476 144.901 75.1044 145.883C74.3612 146.834 73.9301 147.889 73.8112 149.049L73.7666 146.641C73.9152 145.541 74.2422 144.5 74.7476 143.519C75.253 142.508 75.922 141.616 76.7544 140.843C77.5868 140.041 78.5679 139.416 79.6976 138.97C80.8273 138.524 82.076 138.302 83.4435 138.302ZM103.538 129.383V134.154H97.6067V129.383H103.538ZM98.0527 138.792H103.047V161H98.0527V138.792ZM108.976 138.792H113.926V161H108.976V138.792ZM123.291 138.302C124.569 138.302 125.744 138.48 126.814 138.837C127.914 139.193 128.85 139.743 129.623 140.487C130.426 141.2 131.035 142.092 131.452 143.162C131.898 144.233 132.121 145.496 132.121 146.953V161H127.171V147.934C127.171 146.12 126.725 144.783 125.833 143.92C124.971 143.029 123.603 142.583 121.73 142.583C120.303 142.583 118.995 142.895 117.806 143.519C116.646 144.114 115.695 144.901 114.952 145.883C114.209 146.834 113.777 147.889 113.659 149.049L113.614 146.641C113.763 145.541 114.09 144.5 114.595 143.519C115.1 142.508 115.769 141.616 116.602 140.843C117.434 140.041 118.415 139.416 119.545 138.97C120.675 138.524 121.923 138.302 123.291 138.302ZM147.488 157.566C145.407 157.566 143.519 157.195 141.824 156.451C140.16 155.708 138.837 154.623 137.855 153.196C136.904 151.769 136.428 150.06 136.428 148.068C136.428 146.076 136.889 144.351 137.811 142.895C138.762 141.438 140.07 140.308 141.735 139.506C143.43 138.703 145.347 138.302 147.488 138.302C148.112 138.302 148.707 138.346 149.272 138.435C149.866 138.524 150.431 138.643 150.966 138.792L161.357 138.837V142.984C159.93 143.014 158.488 142.82 157.031 142.404C155.604 141.958 154.34 141.497 153.241 141.022L153.107 140.754C154.118 141.26 155.024 141.884 155.827 142.627C156.659 143.341 157.313 144.158 157.789 145.08C158.265 146.001 158.503 147.042 158.503 148.201C158.503 150.164 158.027 151.843 157.076 153.241C156.154 154.638 154.861 155.708 153.196 156.451C151.561 157.195 149.658 157.566 147.488 157.566ZM154.623 170.053V169.027C154.623 167.57 154.192 166.545 153.33 165.95C152.468 165.355 151.263 165.058 149.718 165.058H143.697C142.508 165.058 141.482 164.954 140.62 164.746C139.788 164.568 139.119 164.285 138.614 163.899C138.108 163.542 137.737 163.111 137.499 162.605C137.261 162.13 137.142 161.595 137.142 161C137.142 159.811 137.499 158.919 138.212 158.324C138.955 157.73 139.922 157.343 141.111 157.165C142.33 156.987 143.608 156.957 144.946 157.076L147.488 157.566C145.734 157.626 144.396 157.789 143.474 158.057C142.582 158.295 142.137 158.785 142.137 159.528C142.137 159.974 142.315 160.331 142.672 160.599C143.028 160.866 143.534 161 144.188 161H150.52C152.334 161 153.924 161.208 155.292 161.624C156.659 162.07 157.715 162.799 158.458 163.809C159.231 164.85 159.617 166.262 159.617 168.046V170.053H154.623ZM147.488 153.687C148.677 153.687 149.732 153.464 150.654 153.018C151.576 152.572 152.304 151.932 152.839 151.1C153.374 150.268 153.642 149.257 153.642 148.068C153.642 146.878 153.374 145.853 152.839 144.991C152.304 144.129 151.576 143.474 150.654 143.029C149.732 142.583 148.677 142.36 147.488 142.36C146.328 142.36 145.273 142.583 144.322 143.029C143.4 143.474 142.672 144.129 142.137 144.991C141.601 145.823 141.334 146.849 141.334 148.068C141.334 149.257 141.601 150.268 142.137 151.1C142.672 151.932 143.4 152.572 144.322 153.018C145.243 153.464 146.299 153.687 147.488 153.687Z" fill="white"/>
<path d="M287.204 198.792H302.901V202.85H287.204V198.792ZM292.555 192.816H297.55V221H292.555V192.816ZM325.435 221V208.157C325.435 206.968 325.226 205.987 324.81 205.214C324.424 204.411 323.814 203.801 322.982 203.385C322.149 202.969 321.049 202.761 319.682 202.761C318.314 202.761 317.066 203.058 315.936 203.653C314.806 204.218 313.885 204.976 313.171 205.927C312.458 206.878 312.041 207.934 311.923 209.093L311.878 206.596C312.027 205.526 312.354 204.5 312.859 203.519C313.364 202.508 314.033 201.616 314.866 200.843C315.698 200.07 316.679 199.461 317.809 199.015C318.939 198.539 320.187 198.302 321.555 198.302C322.833 198.302 324.008 198.48 325.078 198.837C326.178 199.193 327.114 199.729 327.887 200.442C328.69 201.126 329.299 201.988 329.716 203.029C330.162 204.039 330.385 205.214 330.385 206.551V221H325.435ZM307.24 221V189.873H312.19V221H307.24ZM345.785 221.491C343.763 221.491 341.905 221 340.211 220.019C338.546 219.038 337.208 217.685 336.197 215.961C335.216 214.207 334.726 212.2 334.726 209.941C334.726 207.622 335.231 205.6 336.242 203.876C337.253 202.122 338.62 200.754 340.344 199.773C342.069 198.792 344.001 198.302 346.142 198.302C348.52 198.302 350.408 198.822 351.805 199.862C353.202 200.903 354.198 202.3 354.793 204.054C355.388 205.808 355.685 207.77 355.685 209.941C355.685 211.16 355.506 212.453 355.15 213.82C354.793 215.158 354.228 216.407 353.455 217.566C352.712 218.726 351.701 219.677 350.423 220.42C349.174 221.134 347.628 221.491 345.785 221.491ZM347.301 217.388C348.966 217.388 350.378 217.076 351.538 216.451C352.727 215.797 353.619 214.905 354.213 213.776C354.838 212.646 355.15 211.368 355.15 209.941C355.15 208.365 354.838 207.027 354.213 205.927C353.589 204.797 352.697 203.935 351.538 203.341C350.378 202.716 348.966 202.404 347.301 202.404C344.923 202.404 343.079 203.103 341.771 204.5C340.463 205.897 339.809 207.711 339.809 209.941C339.809 211.397 340.121 212.691 340.746 213.82C341.4 214.95 342.292 215.827 343.421 216.451C344.551 217.076 345.844 217.388 347.301 217.388ZM355.15 198.792H360.144V221H355.506C355.506 221 355.477 220.718 355.417 220.153C355.358 219.588 355.298 218.904 355.239 218.101C355.179 217.269 355.15 216.481 355.15 215.738V198.792ZM364.025 198.792H379.722V202.85H364.025V198.792ZM369.376 192.816H374.37V221H369.376V192.816Z" fill="white"/>
<path d="M405.562 129.383V134.154H399.631V129.383H405.562ZM400.077 138.792H405.072V161H400.077V138.792ZM411.001 138.792H415.95V161H411.001V138.792ZM425.315 138.302C426.594 138.302 427.768 138.48 428.838 138.837C429.938 139.193 430.875 139.743 431.648 140.487C432.45 141.2 433.06 142.092 433.476 143.162C433.922 144.233 434.145 145.496 434.145 146.953V161H429.195V147.934C429.195 146.12 428.749 144.783 427.857 143.92C426.995 143.029 425.627 142.583 423.754 142.583C422.327 142.583 421.019 142.895 419.83 143.519C418.671 144.114 417.719 144.901 416.976 145.883C416.233 146.834 415.802 147.889 415.683 149.049L415.638 146.641C415.787 145.541 416.114 144.5 416.619 143.519C417.125 142.508 417.794 141.616 418.626 140.843C419.459 140.041 420.44 139.416 421.569 138.97C422.699 138.524 423.948 138.302 425.315 138.302ZM438.051 138.792H453.749V142.85H438.051V138.792ZM443.403 132.816H448.397V161H443.403V132.816ZM469.111 161.491C466.643 161.491 464.428 161.045 462.466 160.153C460.504 159.261 458.958 157.953 457.828 156.228C456.699 154.504 456.134 152.408 456.134 149.941C456.134 147.503 456.699 145.422 457.828 143.697C458.958 141.943 460.504 140.606 462.466 139.684C464.428 138.762 466.643 138.302 469.111 138.302C471.578 138.302 473.778 138.762 475.711 139.684C477.643 140.606 479.159 141.943 480.259 143.697C481.389 145.422 481.954 147.503 481.954 149.941C481.954 152.408 481.389 154.504 480.259 156.228C479.159 157.953 477.643 159.261 475.711 160.153C473.778 161.045 471.578 161.491 469.111 161.491ZM469.111 157.432C470.538 157.432 471.846 157.15 473.035 156.585C474.224 156.02 475.161 155.173 475.844 154.043C476.558 152.914 476.915 151.546 476.915 149.941C476.915 148.335 476.558 146.968 475.844 145.838C475.161 144.708 474.224 143.846 473.035 143.251C471.876 142.627 470.567 142.315 469.111 142.315C467.654 142.315 466.331 142.612 465.142 143.207C463.953 143.801 462.986 144.664 462.243 145.793C461.53 146.923 461.173 148.306 461.173 149.941C461.173 151.546 461.53 152.914 462.243 154.043C462.957 155.173 463.908 156.02 465.097 156.585C466.316 157.15 467.654 157.432 469.111 157.432Z" fill="white"/>
<path d="M105.254 97.2541L103.782 97.2095L110.248 78.7921H115.689L107.038 101H102.355L95.4431 82.4934H97.0039L89.9134 101H85.231L76.7581 78.7921H82.1986L88.4864 97.2541H87.0148L93.3472 78.7921H99.1444L105.254 97.2541ZM137.906 101V88.1569C137.906 86.9677 137.698 85.9866 137.282 85.2136C136.895 84.4109 136.286 83.8015 135.453 83.3853C134.621 82.9691 133.521 82.7609 132.153 82.7609C130.786 82.7609 129.537 83.0582 128.407 83.6528C127.278 84.2177 126.356 84.9758 125.642 85.9271C124.929 86.8785 124.513 87.9339 124.394 89.0933L124.349 86.5961C124.498 85.5258 124.825 84.5001 125.33 83.519C125.836 82.5082 126.505 81.6164 127.337 80.8434C128.169 80.0704 129.151 79.461 130.28 79.015C131.41 78.5394 132.659 78.3015 134.026 78.3015C135.305 78.3015 136.479 78.4799 137.549 78.8367C138.649 79.1934 139.586 79.7285 140.359 80.442C141.161 81.1258 141.771 81.988 142.187 83.0285C142.633 84.0393 142.856 85.2136 142.856 86.5515V101H137.906ZM119.711 101V69.8732H124.661V101H119.711ZM158.256 101.491C156.235 101.491 154.377 101 152.682 100.019C151.017 99.0379 149.679 97.6852 148.668 95.9608C147.687 94.2068 147.197 92.2001 147.197 89.9406C147.197 87.6217 147.702 85.6001 148.713 83.8758C149.724 82.1218 151.091 80.7542 152.816 79.7731C154.54 78.7921 156.472 78.3015 158.613 78.3015C160.991 78.3015 162.879 78.8218 164.276 79.8623C165.674 80.9029 166.67 82.3001 167.264 84.0542C167.859 85.8082 168.156 87.7704 168.156 89.9406C168.156 91.1595 167.978 92.4528 167.621 93.8203C167.264 95.1582 166.699 96.4068 165.926 97.5662C165.183 98.7257 164.172 99.677 162.894 100.42C161.645 101.134 160.099 101.491 158.256 101.491ZM159.772 97.3879C161.437 97.3879 162.849 97.0757 164.009 96.4514C165.198 95.7973 166.09 94.9055 166.685 93.7757C167.309 92.646 167.621 91.3676 167.621 89.9406C167.621 88.365 167.309 87.0271 166.685 85.9271C166.06 84.7974 165.168 83.9353 164.009 83.3407C162.849 82.7164 161.437 82.4042 159.772 82.4042C157.394 82.4042 155.551 83.1028 154.243 84.5001C152.935 85.8974 152.281 87.7109 152.281 89.9406C152.281 91.3974 152.593 92.6906 153.217 93.8203C153.871 94.95 154.763 95.8271 155.893 96.4514C157.022 97.0757 158.316 97.3879 159.772 97.3879ZM167.621 78.7921H172.616V101H167.978C167.978 101 167.948 100.718 167.889 100.153C167.829 99.5878 167.77 98.9041 167.71 98.1014C167.651 97.2689 167.621 96.4811 167.621 95.7379V78.7921ZM176.496 78.7921H192.193V82.8501H176.496V78.7921ZM181.847 72.8164H186.842V101H181.847V72.8164Z" fill="white"/>
<path d="M299.204 79.0596H315.303V83.0731H299.204V79.0596ZM312.003 69.8732H315.659V74.1543H312.894C312.062 74.1245 311.334 74.2137 310.709 74.4218C310.115 74.6299 309.639 75.0164 309.282 75.5813C308.955 76.1461 308.792 76.9488 308.792 77.9894V101H303.797V77.5434C303.797 75.7596 304.124 74.3029 304.778 73.1732C305.432 72.0435 306.369 71.211 307.588 70.6759C308.836 70.1408 310.308 69.8732 312.003 69.8732ZM337.215 93.6865H341.986C341.748 95.2027 341.154 96.5554 340.203 97.7446C339.281 98.9041 338.017 99.8257 336.412 100.509C334.807 101.164 332.889 101.491 330.659 101.491C328.132 101.491 325.873 101.03 323.881 100.108C321.889 99.1568 320.328 97.8189 319.199 96.0946C318.069 94.3703 317.504 92.319 317.504 89.9406C317.504 87.592 318.054 85.5407 319.154 83.7866C320.254 82.0326 321.77 80.6799 323.703 79.7285C325.665 78.7772 327.924 78.3015 330.481 78.3015C333.127 78.3015 335.327 78.7772 337.081 79.7285C338.865 80.6502 340.188 82.0474 341.05 83.9204C341.912 85.7636 342.269 88.0974 342.12 90.9217H322.543C322.692 92.1703 323.093 93.3001 323.747 94.3109C324.431 95.2919 325.353 96.0649 326.512 96.6298C327.672 97.1649 329.024 97.4325 330.57 97.4325C332.294 97.4325 333.736 97.0906 334.896 96.4068C336.085 95.723 336.858 94.8163 337.215 93.6865ZM330.347 82.315C328.326 82.315 326.661 82.8204 325.353 83.8312C324.045 84.8123 323.197 86.0758 322.811 87.6217H337.126C337.007 85.9569 336.338 84.6636 335.119 83.742C333.9 82.7907 332.309 82.315 330.347 82.315ZM365.086 93.6865H369.858C369.62 95.2027 369.025 96.5554 368.074 97.7446C367.152 98.9041 365.889 99.8257 364.283 100.509C362.678 101.164 360.761 101.491 358.531 101.491C356.004 101.491 353.744 101.03 351.752 100.108C349.761 99.1568 348.2 97.8189 347.07 96.0946C345.94 94.3703 345.375 92.319 345.375 89.9406C345.375 87.592 345.925 85.5407 347.025 83.7866C348.125 82.0326 349.642 80.6799 351.574 79.7285C353.536 78.7772 355.796 78.3015 358.352 78.3015C360.998 78.3015 363.198 78.7772 364.952 79.7285C366.736 80.6502 368.059 82.0474 368.921 83.9204C369.783 85.7636 370.14 88.0974 369.992 90.9217H350.415C350.563 92.1703 350.965 93.3001 351.619 94.3109C352.302 95.2919 353.224 96.0649 354.384 96.6298C355.543 97.1649 356.896 97.4325 358.442 97.4325C360.166 97.4325 361.608 97.0906 362.767 96.4068C363.956 95.723 364.729 94.8163 365.086 93.6865ZM358.219 82.315C356.197 82.315 354.532 82.8204 353.224 83.8312C351.916 84.8123 351.069 86.0758 350.682 87.6217H364.997C364.878 85.9569 364.209 84.6636 362.99 83.742C361.771 82.7907 360.181 82.315 358.219 82.315ZM374.852 69.8732H379.802V101H374.852V69.8732Z" fill="white"/>
<path d="M394.696 96.1838V101H388.765V96.1838H394.696Z" fill="white"/>
<path d="M494.561 91.4122H499.511C499.63 92.5122 500.061 93.5082 500.804 94.4C501.577 95.2622 502.588 95.946 503.836 96.4514C505.115 96.9271 506.572 97.1649 508.207 97.1649C509.663 97.1649 510.867 96.9865 511.819 96.6298C512.77 96.273 513.469 95.7825 513.915 95.1582C514.39 94.5041 514.628 93.746 514.628 92.8838C514.628 92.0217 514.346 91.3528 513.781 90.8771C513.246 90.3717 512.413 89.9555 511.284 89.6285C510.154 89.2717 508.712 88.9298 506.958 88.6028C505.501 88.3352 504.089 87.9785 502.722 87.5325C501.354 87.0866 500.12 86.5217 499.02 85.838C497.95 85.1542 497.103 84.3217 496.478 83.3407C495.854 82.3299 495.542 81.1407 495.542 79.7731C495.542 78.2272 495.973 76.8299 496.835 75.5813C497.727 74.3326 499.035 73.3516 500.759 72.638C502.484 71.9245 504.58 71.5678 507.047 71.5678C510.823 71.5678 513.707 72.4448 515.698 74.1988C517.69 75.9232 518.657 78.2718 518.597 81.2447H513.736C513.647 79.3718 512.963 78.0191 511.685 77.1867C510.407 76.3542 508.786 75.938 506.824 75.938C505.07 75.938 503.599 76.2502 502.409 76.8745C501.22 77.4988 500.626 78.5096 500.626 79.9069C500.626 80.5015 500.759 81.0218 501.027 81.4677C501.324 81.8839 501.8 82.2704 502.454 82.6272C503.108 82.9542 504 83.2812 505.13 83.6082C506.289 83.9055 507.701 84.2326 509.366 84.5893C510.793 84.8271 512.131 85.1542 513.38 85.5704C514.628 85.9866 515.713 86.5069 516.635 87.1312C517.586 87.7555 518.33 88.5582 518.865 89.5393C519.4 90.5203 519.667 91.7244 519.667 93.1514C519.667 94.7865 519.251 96.2433 518.419 97.5216C517.586 98.7703 516.308 99.7662 514.584 100.509C512.889 101.223 510.689 101.58 507.984 101.58C505.932 101.58 504.134 101.342 502.588 100.866C501.072 100.361 499.778 99.7216 498.708 98.9487C497.638 98.146 496.776 97.2838 496.122 96.3622C495.497 95.4406 495.051 94.5487 494.784 93.6865C494.546 92.7947 494.472 92.0366 494.561 91.4122ZM542.843 101V88.1569C542.843 86.9677 542.635 85.9866 542.218 85.2136C541.832 84.4109 541.223 83.8015 540.39 83.3853C539.558 82.9691 538.458 82.7609 537.09 82.7609C535.723 82.7609 534.474 83.0582 533.344 83.6528C532.214 84.2177 531.293 84.9758 530.579 85.9271C529.866 86.8785 529.45 87.9339 529.331 89.0933L529.286 86.5961C529.435 85.5258 529.762 84.5001 530.267 83.519C530.773 82.5082 531.442 81.6164 532.274 80.8434C533.106 80.0704 534.087 79.461 535.217 79.015C536.347 78.5394 537.596 78.3015 538.963 78.3015C540.241 78.3015 541.416 78.4799 542.486 78.8367C543.586 79.1934 544.523 79.7285 545.295 80.442C546.098 81.1258 546.708 81.988 547.124 83.0285C547.57 84.0393 547.793 85.2136 547.793 86.5515V101H542.843ZM524.648 101V69.8732H529.598V101H524.648ZM553.293 78.7921H558.243V101H553.293V78.7921ZM566.27 83.0285C564.665 83.0285 563.282 83.3704 562.123 84.0542C560.993 84.738 560.086 85.5704 559.403 86.5515C558.719 87.5325 558.243 88.4839 557.976 89.4055L557.931 86.9082C557.961 86.5812 558.065 86.0907 558.243 85.4366C558.422 84.7528 558.689 84.0096 559.046 83.2069C559.432 82.4042 559.938 81.6312 560.562 80.888C561.216 80.115 562.004 79.4907 562.926 79.015C563.877 78.5394 564.992 78.3015 566.27 78.3015V83.0285ZM593.16 101H588.21V78.7921H593.16V101ZM588.478 90.4312L588.523 91.8582C588.463 92.2447 588.329 92.8244 588.121 93.5974C587.943 94.3703 587.631 95.2176 587.185 96.1392C586.769 97.0311 586.204 97.8933 585.49 98.7257C584.806 99.5284 583.944 100.197 582.904 100.732C581.863 101.238 580.6 101.491 579.113 101.491C578.043 101.491 576.958 101.342 575.858 101.045C574.788 100.777 573.807 100.316 572.915 99.6622C572.053 99.0081 571.354 98.1162 570.819 96.9865C570.284 95.8568 570.016 94.4298 570.016 92.7055V78.7921H574.966V91.769C574.966 93.1663 575.189 94.2663 575.635 95.069C576.111 95.8419 576.765 96.3919 577.597 96.719C578.429 97.046 579.396 97.2095 580.496 97.2095C582.071 97.2095 583.409 96.8527 584.509 96.1392C585.609 95.4257 586.486 94.5487 587.14 93.5082C587.824 92.4379 588.27 91.4122 588.478 90.4312ZM597.067 78.7921H612.764V82.8501H597.067V78.7921ZM602.418 72.8164H607.413V101H602.418V72.8164ZM622.454 69.3827V74.1543H616.523V69.3827H622.454ZM616.969 78.7921H621.964V101H616.969V78.7921ZM628.25 107.511L627.358 106.218C627.833 105.504 628.264 104.731 628.651 103.899C629.067 103.096 629.29 102.293 629.32 101.491L626.956 101V96.1838H633.066V99.6176C633.066 101.639 632.605 103.259 631.683 104.478C630.791 105.727 629.647 106.738 628.25 107.511Z" fill="white"/>
</svg>
