<svg width="100" height="100" viewBox="0 0 100 100" fill="none" xmlns="http://www.w3.org/2000/svg">
<rect x="0.5" y="0.5" width="99" height="99" rx="19.5" stroke="white"/>
<path d="M69.2161 46.6047L64.8673 61L60.5166 46.6047M44.4329 55.5684C44.4288 57.0078 43.969 58.3867 43.1539 59.4043C42.3388 60.4218 41.2346 60.9955 40.0822 61C38.9301 60.9948 37.8264 60.4209 37.0117 59.4034C36.1971 58.3859 35.7376 57.0074 35.7334 55.5684V52.0362C35.7376 50.5973 36.1971 49.2187 37.0117 48.2012C37.8264 47.1837 38.9301 46.6098 40.0822 46.6047C41.2346 46.6092 42.3388 47.1828 43.1539 48.2004C43.969 49.2179 44.4288 50.5968 44.4329 52.0362M44.4329 61V46.6047M57.4087 61V52.0362C57.4046 50.5973 56.9451 49.2187 56.1304 48.2012C55.3158 47.1837 54.212 46.6098 53.0599 46.6047C51.9079 46.6098 50.8041 47.1837 49.9895 48.2012C49.1748 49.2187 48.7153 50.5973 48.7112 52.0362M48.7112 52.0362V61M48.7112 52.0362V46.6047M31.7428 53.6667C31.7454 54.6306 31.5953 55.5856 31.3012 56.4768C31.007 57.368 30.5746 58.1777 30.0289 58.8593C29.4832 59.5409 28.8349 60.0809 28.1214 60.4483C27.4079 60.8157 26.6432 61.0032 25.8714 61C25.0997 61.0032 24.335 60.8157 23.6215 60.4483C22.908 60.0809 22.2597 59.5409 21.714 58.8593C21.1682 58.1777 20.7358 57.368 20.4417 56.4768C20.1475 55.5856 19.9974 54.6306 20 53.6667V46.3333C19.9974 45.3694 20.1475 44.4144 20.4417 43.5232C20.7358 42.632 21.1682 41.8223 21.714 41.1407C22.2597 40.4591 22.908 39.9191 23.6215 39.5517C24.335 39.1843 25.0997 38.9968 25.8714 39C26.6323 39.0011 27.3852 39.1935 28.0852 39.5658C28.7852 39.9381 29.418 40.4827 29.9459 41.167C30.4737 41.8514 30.8858 42.6616 31.1576 43.5492C31.4293 44.4368 31.5551 45.3837 31.5276 46.3333M81 55.5684C80.9959 57.0082 80.5358 58.3875 79.7203 59.4051C78.9048 60.4228 77.8001 60.9961 76.6473 61C75.4952 60.9948 74.3915 60.4209 73.5769 59.4034C72.7622 58.3859 72.3027 57.0074 72.2986 55.5684V52.0362C72.3027 50.5973 72.7622 49.2187 73.5769 48.2012C74.3915 47.1837 75.4952 46.6098 76.6473 46.6047C77.7998 46.6092 78.904 47.1828 79.7191 48.2004C80.5342 49.2179 80.9939 50.5968 80.998 52.0362M81 61V46.6047" stroke="white" stroke-linecap="round" stroke-linejoin="round"/>
</svg>
