<svg width="100" height="100" viewBox="0 0 100 100" fill="none" xmlns="http://www.w3.org/2000/svg">
<rect x="0.5" y="0.5" width="99" height="99" rx="19.5" stroke="white"/>
<path d="M76.4501 45.9898C76.466 47.3101 76.1061 49.0913 75.5533 50.5441C75.5114 50.6543 75.468 50.7634 75.4234 50.8708L75.6596 52.0873C75.7903 52.7603 76.0218 53.2975 76.3356 53.6576C76.6363 54.0027 77.0259 54.2033 77.5501 54.2033C78.4089 54.2033 79.2684 53.7111 79.9319 52.9394C80.3912 52.4053 80.725 51.7726 80.887 51.154C80.665 51.6713 80.4236 52.1168 80.1715 52.4762C79.9583 52.7803 79.7265 53.0383 79.478 53.2244C79.2308 53.4097 78.938 53.5447 78.6157 53.5447C78.3979 53.5447 78.1977 53.4718 78.0346 53.3348C77.8806 53.2052 77.7824 53.038 77.718 52.8773C77.5923 52.5638 77.5532 52.1683 77.5532 51.7689C77.5532 50.7227 77.8306 49.1358 78.1621 47.604C78.4964 46.0599 78.8967 44.5231 79.1638 43.5505C79.2193 43.3352 79.2407 43.1739 79.2407 43.0585C79.2407 42.8604 79.1918 42.8156 79.1815 42.8064C79.1582 42.7856 79.0628 42.724 78.7719 42.724C78.4919 42.724 78.2114 42.7822 77.9222 42.9789C77.625 43.181 77.2821 43.5545 76.9306 44.2496L76.4138 45.2719C76.4392 45.5041 76.45 45.7462 76.4501 45.9898ZM76.4501 45.9898C76.4501 45.9908 76.4501 45.9919 76.4501 45.993H75.9501L76.45 45.9867C76.45 45.9877 76.45 45.9888 76.4501 45.9898ZM68.7475 46.7608C68.1315 47.0523 67.5469 47.0536 67.1379 46.9859L66.7539 46.9224L66.5981 47.2791C65.7982 49.1102 64.7309 50.8868 63.6874 52.1975C63.165 52.8537 62.6593 53.3796 62.2073 53.7364C61.7375 54.1074 61.3983 54.2378 61.1969 54.2378C61.0852 54.2378 60.9335 54.1843 60.7396 53.961C60.5427 53.7342 60.3437 53.3762 60.1558 52.8841C59.7816 51.9037 59.4978 50.5163 59.3122 48.9414L58.4237 48.8481C58.5649 48.4501 58.6919 48.0327 58.8005 47.6013L58.8006 47.6013L58.8022 47.5946C58.9655 46.9062 59.0637 46.22 59.0964 45.4984L59.0966 45.4931C59.1269 44.6218 59.2707 43.8803 59.5597 43.372C59.8274 42.9012 60.2175 42.624 60.8532 42.624C61.0119 42.624 61.1236 42.6356 61.2 42.6512C61.2262 42.6565 61.2467 42.662 61.2624 42.667C61.2611 42.8125 61.2488 42.9094 61.2284 43.0699C61.22 43.1357 61.2103 43.2122 61.1994 43.3071C61.1621 43.6322 61.1222 44.1052 61.1064 44.9799M61.1064 44.9799C61.1064 44.9797 61.1064 44.9795 61.1064 44.9793L61.6063 44.9896L61.1064 44.9805C61.1064 44.9803 61.1064 44.9801 61.1064 44.9799ZM73.0688 53.3723C73.4382 53.3723 73.7646 53.2165 74.0455 52.9893C73.3653 53.8303 72.6005 54.2378 71.7532 54.2378C71.2431 54.2378 70.6995 54.0509 70.2707 53.5116C69.8311 52.9585 69.4688 51.9794 69.4688 50.3137C69.4688 49.1976 69.6768 48.0457 70.063 46.9968L70.6049 45.5249C70.7869 45.3254 70.9634 45.1041 71.1323 44.8614L71.1327 44.8608C72.1307 43.4226 73.2562 42.6551 74.2907 42.6551C74.7757 42.6551 75.1403 42.7733 75.4042 42.9861C75.6334 43.1709 75.8294 43.4616 75.9475 43.9139C75.7348 43.6477 75.4302 43.4551 75.0126 43.4551C74.3918 43.4551 73.8694 43.8536 73.4689 44.3202C73.0558 44.8014 72.6907 45.448 72.3882 46.1453C71.7848 47.5364 71.3813 49.2459 71.3813 50.5206C71.3813 51.1787 71.4703 51.8453 71.7015 52.3671C71.9358 52.8958 72.3712 53.3723 73.0688 53.3723Z" stroke="white"/>
</svg>
