<svg width="100" height="100" viewBox="0 0 100 100" fill="none" xmlns="http://www.w3.org/2000/svg">
<path d="M46.3912 0.0467425C46.0123 0.0866552 44.8294 0.226741 43.7859 0.34961C39.579 0.829345 34.8084 2.09247 30.6219 3.85567C15.4702 10.1846 4.06679 24.0703 0.920606 39.9971C0.18005 43.7849 0 45.6459 0 50.0144C0 55.6452 0.559722 59.5308 2.04318 64.4409C6.8928 80.5077 19.5182 93.1092 35.6312 97.9762C40.4808 99.4404 44.3887 100 50 100C55.6324 100 59.5192 99.4404 64.4306 97.9574C80.5021 93.1092 93.1072 80.4874 97.9756 64.3791C99.4403 59.5308 100 55.6241 100 50.0144C100 47.6298 99.881 44.9063 99.7401 43.903C98.1165 32.3236 93.346 22.5865 85.3924 14.6321C77.4538 6.73878 67.7545 1.9516 56.4114 0.32848C54.8488 0.107786 47.6139 -0.0941261 46.3912 0.0467425ZM30.059 31.6013C31.1237 31.9222 31.6215 32.2227 32.3433 32.9435C33.7469 34.3678 34.0679 35.148 34.0679 37.2908C34.0679 38.8959 34.0068 39.1957 33.527 40.0362C32.6032 41.5983 30.4598 43.0414 28.9772 43.0805C27.9336 43.1024 27.9767 42.6407 29.1181 41.4394C30.6407 39.8562 30.8606 39.2559 30.8606 36.8901C30.8419 34.6073 30.5608 33.827 29.4993 33.1853C28.6163 32.6445 27.6557 32.6844 26.2521 33.3441C22.6042 35.0894 18.6564 40.8986 17.115 46.8503C15.0694 54.7836 18.6963 61.1328 24.6685 60.0505C26.411 59.7296 29.6981 58.0486 31.1237 56.7244C32.3042 55.6452 32.3042 55.6241 32.4232 54.2827C32.6862 51.4755 34.6675 48.6722 37.3158 47.37C38.5355 46.7673 38.8384 46.7094 40.4808 46.7094C42.0433 46.7094 42.4042 46.7893 43.1659 47.208C45.5903 48.5932 45.0893 51.8175 42.4653 51.8175C40.9427 51.8175 40.1599 51.0349 41.2636 50.617C42.3463 50.2163 41.9423 48.7121 40.6828 48.3725C39.1993 47.9906 37.5147 48.9931 36.4532 50.9159C35.1693 53.2403 35.1106 56.006 36.331 57.266C37.5147 58.5283 38.9973 57.5289 40.1411 54.6607C40.7407 53.1996 41.6026 52.417 42.6062 52.417C43.4869 52.417 43.6489 52.9585 43.2661 54.6028C42.704 57.1462 43.0861 57.8067 44.6697 57.0273C45.1895 56.7854 46.0522 56.2267 46.572 55.826L47.5537 55.0434L48.2175 51.5765C48.9393 47.6908 49.2172 47.168 50.7006 46.8902C52.1254 46.6273 52.4463 47.33 51.9234 49.5526L51.6416 50.797L52.6851 49.7326C55.1494 47.208 58.1766 45.9667 59.2194 47.0092C59.7791 47.5687 59.718 48.2715 58.9172 50.7539C58.5375 51.9372 58.0146 53.8022 57.7766 54.8626C57.4157 56.4646 57.3938 56.8465 57.5966 57.1071C58.2385 57.8678 60.201 57.0852 61.9444 55.3822L62.966 54.3829L63.0881 52.1571C63.2071 49.5925 63.4459 48.6722 64.1277 47.8497C64.7696 47.089 65.9321 46.5294 66.5529 46.6883C67.1737 46.8503 67.1737 47.4498 66.614 49.2138C65.8311 51.6375 65.9133 57.2261 66.7149 57.2261C67.0359 57.2261 68.6775 55.5043 69.721 54.062L70.5007 52.9977L69.8799 52.3591C68.7973 51.2164 68.5374 50.4761 68.5374 48.6112C68.5374 47.251 68.6383 46.7493 68.9773 46.0857C69.5402 45.0464 70.4208 44.2857 71.4636 43.9828C72.5642 43.6432 73.9279 44.2028 74.4876 45.2053C75.0505 46.2266 74.9104 48.5102 74.1878 50.0754L73.668 51.2157H74.3686C75.3315 51.2157 75.7112 50.977 77.4358 49.3539C78.3376 48.4922 79.3803 47.7495 80.16 47.3887C83.2271 45.9487 86.836 46.6883 87.4348 48.8921C87.9358 50.6561 86.836 51.8973 84.9094 51.7564C83.527 51.6563 83.2671 51.2947 84.0687 50.617C85.5114 49.4118 84.0687 47.8716 82.0044 48.4312C80.8818 48.7332 79.6191 49.9932 78.9591 51.4575C77.6346 54.3829 78.3376 57.8279 80.2399 57.8279C81.0015 57.8279 82.3465 56.3245 82.8662 54.8626C83.487 53.1784 84.7896 52.118 85.7713 52.4991C86.313 52.6987 86.353 53.2395 86.0132 54.9424C85.6312 56.8074 85.5725 58.5502 85.8723 59.3508C85.9921 59.6498 86.353 60.2125 86.6951 60.592C87.3338 61.3128 87.3558 61.5734 86.814 61.9154C86.5541 62.0954 86.2113 62.0164 85.3713 61.5554C84.2088 60.9528 83.206 59.8705 82.8451 58.8492L82.6251 58.2497L81.8235 58.8492C81.3616 59.17 80.6407 59.5308 80.2211 59.6498C78.5576 60.0904 76.512 58.9501 75.5523 57.0273C75.1695 56.2838 75.0505 54.1019 75.3315 53.2606C75.4912 52.7989 75.4912 52.7989 74.8485 53.1197C74.5096 53.3005 73.7878 53.4993 73.2281 53.5603C72.3043 53.6621 72.1634 53.7623 71.2436 54.9236C69.941 56.5436 67.6348 58.7302 66.693 59.192C64.6905 60.1913 64.0298 59.9104 63.5069 57.8459L63.146 56.4646L62.2834 57.2261C61.1827 58.1887 58.9783 59.3508 57.7148 59.6318C56.5131 59.8916 55.2293 59.5097 54.7087 58.7083C53.9298 57.507 54.1897 54.9636 55.4305 51.5365C56.3511 48.9931 55.6912 48.9539 53.3669 51.3777C51.6424 53.1996 50.9018 54.5018 50.4219 56.5256C49.9209 58.6293 49.3182 59.39 47.9576 59.7108C47.1348 59.8916 46.752 59.3899 46.9149 58.2896L47.0339 57.4061L46.2722 57.9288C45.1895 58.6692 43.8258 59.3508 42.8841 59.6106C41.9423 59.8705 40.7008 59.5919 40.401 59.0691C39.86 58.1495 39.86 58.1495 39.0193 58.8093C37.1937 60.2923 34.5885 59.8705 33.2671 57.9077L32.8443 57.2871L31.5237 58.5095C27.7137 61.9952 22.9463 63.5573 19.418 62.475C14.9285 61.1148 12.4454 57.266 12.4853 51.7173C12.5041 46.1475 14.9685 40.278 19.1182 35.9306C21.4636 33.485 23.668 32.0419 25.9132 31.5011C27.5336 31.1004 28.5184 31.1208 30.059 31.6013Z" fill="white"/>
<path d="M70.68 45.8478C70.2401 46.2877 70.4018 48.0516 70.9612 49.1739C71.2417 49.7546 71.5409 50.2163 71.6409 50.2163C71.7206 50.2163 71.9003 49.7546 72.0409 49.1919C72.5409 47.1102 71.6409 44.8844 70.68 45.8478Z" fill="white"/>
</svg>
