<svg width="100" height="101" viewBox="0 0 100 101" fill="none" xmlns="http://www.w3.org/2000/svg">
<rect x="0.5" y="1" width="99" height="99" rx="19.5" stroke="white"/>
<path d="M76.4501 46.4898C76.466 47.8101 76.1061 49.5913 75.5533 51.0441C75.5114 51.1543 75.468 51.2634 75.4234 51.3708L75.6596 52.5873C75.7903 53.2603 76.0218 53.7975 76.3356 54.1576C76.6363 54.5027 77.0259 54.7033 77.5501 54.7033C78.4089 54.7033 79.2684 54.2111 79.9319 53.4394C80.3912 52.9053 80.725 52.2726 80.887 51.654C80.665 52.1713 80.4236 52.6168 80.1715 52.9762C79.9583 53.2803 79.7265 53.5383 79.478 53.7244C79.2308 53.9097 78.938 54.0447 78.6157 54.0447C78.3979 54.0447 78.1977 53.9718 78.0346 53.8348C77.8806 53.7052 77.7824 53.538 77.718 53.3773C77.5923 53.0638 77.5532 52.6683 77.5532 52.2689C77.5532 51.2227 77.8306 49.6358 78.1621 48.104C78.4964 46.5599 78.8967 45.0231 79.1638 44.0505C79.2193 43.8352 79.2407 43.6739 79.2407 43.5585C79.2407 43.3604 79.1918 43.3156 79.1815 43.3064C79.1582 43.2856 79.0628 43.224 78.7719 43.224C78.4919 43.224 78.2114 43.2822 77.9222 43.4789C77.625 43.681 77.2821 44.0545 76.9306 44.7496L76.4138 45.7719C76.4392 46.0041 76.45 46.2462 76.4501 46.4898ZM76.4501 46.4898C76.4501 46.4908 76.4501 46.4919 76.4501 46.493H75.9501L76.45 46.4867C76.45 46.4877 76.45 46.4888 76.4501 46.4898ZM68.7475 47.2608C68.1315 47.5523 67.5469 47.5536 67.1379 47.4859L66.7539 47.4224L66.5981 47.7791C65.7982 49.6102 64.7309 51.3868 63.6874 52.6975C63.165 53.3537 62.6593 53.8796 62.2073 54.2364C61.7375 54.6074 61.3983 54.7378 61.1969 54.7378C61.0852 54.7378 60.9335 54.6843 60.7396 54.461C60.5427 54.2342 60.3437 53.8762 60.1558 53.3841C59.7816 52.4037 59.4978 51.0163 59.3122 49.4414L58.4237 49.3481C58.5649 48.9501 58.6919 48.5327 58.8005 48.1013L58.8006 48.1013L58.8022 48.0946C58.9655 47.4062 59.0637 46.72 59.0964 45.9984L59.0966 45.9931C59.1269 45.1218 59.2707 44.3803 59.5597 43.872C59.8274 43.4012 60.2175 43.124 60.8532 43.124C61.0119 43.124 61.1236 43.1356 61.2 43.1512C61.2262 43.1565 61.2467 43.162 61.2624 43.167C61.2611 43.3125 61.2488 43.4094 61.2284 43.5699C61.22 43.6357 61.2103 43.7122 61.1994 43.8071C61.1621 44.1322 61.1222 44.6052 61.1064 45.4799M61.1064 45.4799C61.1064 45.4797 61.1064 45.4795 61.1064 45.4793L61.6063 45.4896L61.1064 45.4805C61.1064 45.4803 61.1064 45.4801 61.1064 45.4799ZM73.0688 53.8723C73.4382 53.8723 73.7646 53.7165 74.0455 53.4893C73.3653 54.3303 72.6005 54.7378 71.7532 54.7378C71.2431 54.7378 70.6995 54.5509 70.2707 54.0116C69.8311 53.4585 69.4688 52.4794 69.4688 50.8137C69.4688 49.6976 69.6768 48.5457 70.063 47.4968L70.6049 46.0249C70.7869 45.8254 70.9634 45.6041 71.1323 45.3614L71.1327 45.3608C72.1307 43.9226 73.2562 43.1551 74.2907 43.1551C74.7757 43.1551 75.1403 43.2733 75.4042 43.4861C75.6334 43.6709 75.8294 43.9616 75.9475 44.4139C75.7348 44.1477 75.4302 43.9551 75.0126 43.9551C74.3918 43.9551 73.8694 44.3536 73.4689 44.8202C73.0558 45.3014 72.6907 45.948 72.3882 46.6453C71.7848 48.0364 71.3813 49.7459 71.3813 51.0206C71.3813 51.6787 71.4703 52.3453 71.7015 52.8671C71.9358 53.3958 72.3712 53.8723 73.0688 53.8723Z" stroke="white"/>
</svg>
