<svg width="63" height="23" viewBox="0 0 63 23" fill="none" xmlns="http://www.w3.org/2000/svg">
<path d="M57.4501 11.9898C57.466 13.3101 57.1061 15.0913 56.5533 16.5441C56.5114 16.6543 56.468 16.7634 56.4234 16.8708L56.6596 18.0873C56.7903 18.7603 57.0218 19.2975 57.3356 19.6576C57.6363 20.0027 58.0259 20.2033 58.5501 20.2033C59.4089 20.2033 60.2684 19.7111 60.9319 18.9394C61.3912 18.4053 61.725 17.7726 61.887 17.154C61.665 17.6713 61.4236 18.1168 61.1715 18.4762C60.9583 18.7803 60.7265 19.0383 60.478 19.2244C60.2308 19.4097 59.938 19.5447 59.6157 19.5447C59.3979 19.5447 59.1977 19.4718 59.0346 19.3348C58.8806 19.2052 58.7824 19.038 58.718 18.8773C58.5923 18.5638 58.5532 18.1683 58.5532 17.7689C58.5532 16.7227 58.8306 15.1358 59.1621 13.604C59.4964 12.0599 59.8967 10.5231 60.1638 9.55046C60.2193 9.33523 60.2407 9.17386 60.2407 9.05852C60.2407 8.86036 60.1918 8.81557 60.1815 8.8064C60.1582 8.78561 60.0628 8.72404 59.7719 8.72404C59.4919 8.72404 59.2114 8.78221 58.9222 8.97887C58.625 9.18103 58.2821 9.55454 57.9306 10.2496L57.4138 11.2719C57.4392 11.5041 57.45 11.7462 57.4501 11.9898ZM57.4501 11.9898C57.4501 11.9908 57.4501 11.9919 57.4501 11.993H56.9501L57.45 11.9867C57.45 11.9877 57.45 11.9888 57.4501 11.9898ZM49.7475 12.7608C49.1315 13.0523 48.5469 13.0536 48.1379 12.9859L47.7539 12.9224L47.5981 13.2791C46.7982 15.1102 45.7309 16.8868 44.6874 18.1975C44.165 18.8537 43.6593 19.3796 43.2073 19.7364C42.7375 20.1074 42.3983 20.2378 42.1969 20.2378C42.0852 20.2378 41.9335 20.1843 41.7396 19.961C41.5427 19.7342 41.3437 19.3762 41.1558 18.8841C40.7816 17.9037 40.4978 16.5163 40.3122 14.9414L39.4237 14.8481C39.5649 14.4501 39.6919 14.0327 39.8005 13.6013L39.8006 13.6013L39.8022 13.5946C39.9655 12.9062 40.0637 12.22 40.0964 11.4984L40.0966 11.4931C40.1269 10.6218 40.2707 9.88032 40.5597 9.372C40.8274 8.90119 41.2175 8.62404 41.8532 8.62404C42.0119 8.62404 42.1236 8.6356 42.2 8.65117C42.2262 8.65648 42.2467 8.66197 42.2624 8.66699C42.2611 8.81246 42.2488 8.90943 42.2284 9.06991C42.22 9.13573 42.2103 9.21223 42.1994 9.30714C42.1621 9.6322 42.1222 10.1052 42.1064 10.9799M42.1064 10.9799C42.1064 10.9797 42.1064 10.9795 42.1064 10.9793L42.6063 10.9896L42.1064 10.9805C42.1064 10.9803 42.1064 10.9801 42.1064 10.9799ZM54.0688 19.3723C54.4382 19.3723 54.7646 19.2165 55.0455 18.9893C54.3653 19.8303 53.6005 20.2378 52.7532 20.2378C52.2431 20.2378 51.6995 20.0509 51.2707 19.5116C50.8311 18.9585 50.4688 17.9794 50.4688 16.3137C50.4688 15.1976 50.6768 14.0457 51.063 12.9968L51.6049 11.5249C51.7869 11.3254 51.9634 11.1041 52.1323 10.8614L52.1327 10.8608C53.1307 9.42256 54.2562 8.65508 55.2907 8.65508C55.7757 8.65508 56.1403 8.77334 56.4042 8.98611C56.6334 9.17095 56.8294 9.4616 56.9475 9.91389C56.7348 9.6477 56.4302 9.45507 56.0126 9.45507C55.3918 9.45507 54.8694 9.85365 54.4689 10.3202C54.0558 10.8014 53.6907 11.448 53.3882 12.1453C52.7848 13.5364 52.3813 15.2459 52.3813 16.5206C52.3813 17.1787 52.4703 17.8453 52.7015 18.3671C52.9358 18.8958 53.3712 19.3723 54.0688 19.3723Z" stroke="white"/>
</svg>
