<svg width="89" height="20" viewBox="0 0 89 20" fill="none" xmlns="http://www.w3.org/2000/svg">
<path d="M4.07019 4H17.3202C18.5702 4 19.2002 4.59 19.2002 5.79V14.21C19.2002 15.4 18.5702 16 17.3202 16H4.07019C2.82019 16 2.19019 15.4 2.19019 14.21V5.79C2.19019 4.59 2.82019 4 4.07019 4ZM10.6902 12.6L17.4302 7.07C17.6702 6.87 17.8602 6.41 17.5602 6C17.2702 5.59 16.7402 5.58 16.3902 5.83L10.6902 9.69L5.00019 5.83C4.65019 5.58 4.12019 5.59 3.83019 6C3.53019 6.41 3.72019 6.87 3.96019 7.07L10.6902 12.6Z" fill="white" fill-opacity="0.4"/>
<path d="M28.0014 10.26V12.168H33.9894V13.5H26.4054V5.736H33.9774V7.068H28.0014V9H32.8974V10.26H28.0014ZM35.4241 7.536H36.9841V13.5H35.4241V7.536ZM39.7561 7.404C40.1241 7.404 40.4641 7.452 40.7761 7.548C41.0881 7.644 41.3601 7.792 41.5921 7.992C41.8241 8.192 42.0041 8.448 42.1321 8.76C42.2601 9.064 42.3241 9.428 42.3241 9.852V13.5H40.7641V10.128C40.7641 9.624 40.6401 9.256 40.3921 9.024C40.1521 8.784 39.7561 8.664 39.2041 8.664C38.7881 8.664 38.4121 8.744 38.0761 8.904C37.7401 9.064 37.4681 9.268 37.2601 9.516C37.0521 9.756 36.9321 10.008 36.9001 10.272L36.8881 9.66C36.9281 9.38 37.0201 9.108 37.1641 8.844C37.3081 8.58 37.5001 8.34 37.7401 8.124C37.9881 7.9 38.2801 7.724 38.6161 7.596C38.9521 7.468 39.3321 7.404 39.7561 7.404ZM44.9521 7.404C45.3201 7.404 45.6601 7.452 45.9721 7.548C46.2841 7.644 46.5561 7.792 46.7881 7.992C47.0201 8.192 47.2001 8.448 47.3281 8.76C47.4641 9.064 47.5321 9.428 47.5321 9.852V13.5H45.9721V10.128C45.9721 9.624 45.8481 9.256 45.6001 9.024C45.3521 8.784 44.9521 8.664 44.4001 8.664C43.9841 8.664 43.6081 8.744 43.2721 8.904C42.9361 9.064 42.6641 9.268 42.4561 9.516C42.2481 9.756 42.1321 10.008 42.1081 10.272L42.0841 9.624C42.1241 9.36 42.2201 9.096 42.3721 8.832C42.5241 8.568 42.7241 8.328 42.9721 8.112C43.2201 7.896 43.5081 7.724 43.8361 7.596C44.1721 7.468 44.5441 7.404 44.9521 7.404ZM51.8515 13.632C51.2595 13.632 50.7195 13.504 50.2315 13.248C49.7515 12.984 49.3675 12.62 49.0795 12.156C48.7995 11.684 48.6595 11.14 48.6595 10.524C48.6595 9.892 48.8035 9.344 49.0915 8.88C49.3795 8.416 49.7675 8.056 50.2555 7.8C50.7515 7.536 51.3115 7.404 51.9355 7.404C52.6235 7.404 53.1755 7.544 53.5915 7.824C54.0155 8.096 54.3235 8.468 54.5155 8.94C54.7075 9.412 54.8035 9.94 54.8035 10.524C54.8035 10.876 54.7475 11.236 54.6355 11.604C54.5235 11.964 54.3515 12.3 54.1195 12.612C53.8875 12.916 53.5835 13.164 53.2075 13.356C52.8315 13.54 52.3795 13.632 51.8515 13.632ZM52.3555 12.432C52.8275 12.432 53.2355 12.352 53.5795 12.192C53.9235 12.032 54.1875 11.808 54.3715 11.52C54.5555 11.232 54.6475 10.9 54.6475 10.524C54.6475 10.116 54.5515 9.772 54.3595 9.492C54.1755 9.204 53.9115 8.988 53.5675 8.844C53.2315 8.692 52.8275 8.616 52.3555 8.616C51.6915 8.616 51.1755 8.792 50.8075 9.144C50.4395 9.488 50.2555 9.948 50.2555 10.524C50.2555 10.908 50.3435 11.244 50.5195 11.532C50.6955 11.812 50.9395 12.032 51.2515 12.192C51.5715 12.352 51.9395 12.432 52.3555 12.432ZM54.6475 7.536H56.2075V13.5H54.7555C54.7555 13.5 54.7435 13.424 54.7195 13.272C54.7035 13.112 54.6875 12.912 54.6715 12.672C54.6555 12.432 54.6475 12.196 54.6475 11.964V7.536ZM59.4074 4.92V6.288H57.5954V4.92H59.4074ZM57.7154 7.536H59.2754V13.5H57.7154V7.536ZM60.9504 5.136H62.5104V13.5H60.9504V5.136ZM66.9827 7.536H68.5427V13.5H66.9827V7.536ZM71.3147 7.404C71.6827 7.404 72.0227 7.452 72.3347 7.548C72.6467 7.644 72.9187 7.792 73.1507 7.992C73.3827 8.192 73.5627 8.448 73.6907 8.76C73.8187 9.064 73.8827 9.428 73.8827 9.852V13.5H72.3227V10.128C72.3227 9.624 72.1987 9.256 71.9507 9.024C71.7107 8.784 71.3147 8.664 70.7627 8.664C70.3467 8.664 69.9707 8.744 69.6347 8.904C69.2987 9.064 69.0267 9.268 68.8187 9.516C68.6107 9.756 68.4907 10.008 68.4587 10.272L68.4467 9.66C68.4867 9.38 68.5787 9.108 68.7227 8.844C68.8667 8.58 69.0587 8.34 69.2987 8.124C69.5467 7.9 69.8387 7.724 70.1747 7.596C70.5107 7.468 70.8907 7.404 71.3147 7.404ZM76.5107 7.404C76.8787 7.404 77.2187 7.452 77.5307 7.548C77.8427 7.644 78.1147 7.792 78.3467 7.992C78.5787 8.192 78.7587 8.448 78.8867 8.76C79.0227 9.064 79.0907 9.428 79.0907 9.852V13.5H77.5307V10.128C77.5307 9.624 77.4067 9.256 77.1587 9.024C76.9107 8.784 76.5107 8.664 75.9587 8.664C75.5427 8.664 75.1667 8.744 74.8307 8.904C74.4947 9.064 74.2227 9.268 74.0147 9.516C73.8067 9.756 73.6907 10.008 73.6667 10.272L73.6427 9.624C73.6827 9.36 73.7787 9.096 73.9307 8.832C74.0827 8.568 74.2827 8.328 74.5307 8.112C74.7787 7.896 75.0667 7.724 75.3947 7.596C75.7307 7.468 76.1027 7.404 76.5107 7.404ZM85.9421 11.52H87.4541C87.3901 11.928 87.2181 12.292 86.9381 12.612C86.6661 12.932 86.2941 13.184 85.8221 13.368C85.3501 13.552 84.7741 13.644 84.0941 13.644C83.3341 13.644 82.6621 13.524 82.0781 13.284C81.4941 13.036 81.0381 12.68 80.7101 12.216C80.3821 11.752 80.2181 11.192 80.2181 10.536C80.2181 9.88 80.3781 9.32 80.6981 8.856C81.0181 8.384 81.4621 8.024 82.0301 7.776C82.6061 7.528 83.2781 7.404 84.0461 7.404C84.8301 7.404 85.4821 7.528 86.0021 7.776C86.5221 8.024 86.9061 8.4 87.1541 8.904C87.4101 9.4 87.5181 10.036 87.4781 10.812H81.7901C81.8301 11.116 81.9421 11.392 82.1261 11.64C82.3181 11.888 82.5741 12.084 82.8941 12.228C83.2221 12.372 83.6101 12.444 84.0581 12.444C84.5541 12.444 84.9661 12.36 85.2941 12.192C85.6301 12.016 85.8461 11.792 85.9421 11.52ZM83.9741 8.592C83.3981 8.592 82.9301 8.72 82.5701 8.976C82.2101 9.224 81.9781 9.532 81.8741 9.9H85.9301C85.8901 9.5 85.6981 9.184 85.3541 8.952C85.0181 8.712 84.5581 8.592 83.9741 8.592Z" fill="white" fill-opacity="0.4"/>
</svg>
