<svg width="100" height="100" viewBox="0 0 100 100" fill="none" xmlns="http://www.w3.org/2000/svg">
<path d="M23.4375 0.5H76.5625C89.2305 0.5 99.5 10.7695 99.5 23.4375V76.5625C99.5 89.2305 89.2305 99.5 76.5625 99.5H23.4375C10.7695 99.5 0.5 89.2305 0.5 76.5625V23.4375C0.5 10.7695 10.7695 0.5 23.4375 0.5Z" stroke="white"/>
<mask id="mask0_754_140" style="mask-type:luminance" maskUnits="userSpaceOnUse" x="23" y="10" width="53" height="80">
<path d="M23.8281 10.9375H75.9219V89.0625H23.8281V10.9375Z" fill="white"/>
</mask>
<g mask="url(#mask0_754_140)">
<path d="M48.8748 76.0414C48.8748 82.6766 43.4893 88.0621 36.8541 88.0621C30.2188 88.0621 24.833 82.6765 24.833 76.0414C24.833 69.4061 30.2189 64.0203 36.8541 64.0203H48.8748V76.0414Z" stroke="white" stroke-width="2"/>
<path d="M24.833 50.0004C24.833 43.3653 30.2188 37.9797 36.8541 37.9797H48.8748V62.0211H36.8541C30.2188 62.0211 24.833 56.6356 24.833 50.0004Z" stroke="white" stroke-width="2"/>
<path d="M24.833 23.9582C24.833 17.323 30.2188 11.9375 36.8541 11.9375H48.8748V35.9793H36.8541C30.2189 35.9793 24.833 30.5934 24.833 23.9582Z" stroke="white" stroke-width="2"/>
<path d="M50.875 11.9375H62.8957C69.531 11.9375 74.9168 17.323 74.9168 23.9582C74.9168 30.5934 69.5309 35.9793 62.8957 35.9793H50.875V11.9375Z" stroke="white" stroke-width="2"/>
<path d="M74.9168 50.0004C74.9168 56.6356 69.531 62.0211 62.8957 62.0211C56.2605 62.0211 50.875 56.6357 50.875 50.0004C50.875 43.3652 56.2605 37.9797 62.8957 37.9797C69.531 37.9797 74.9168 43.3653 74.9168 50.0004Z" stroke="white" stroke-width="2"/>
</g>
</svg>
