<svg width="560" height="239" viewBox="0 0 560 239" fill="none" xmlns="http://www.w3.org/2000/svg">
<g opacity="0.21">
<path d="M8.912 23.064V29.472H25.292V33H4.808V9.672H25.256V13.2H8.912V19.68H22.304V23.064H8.912ZM38.1879 30.156H36.7839L42.9759 15.072H47.3319L39.4119 33H35.5959L27.7839 15.072H32.1759L38.1879 30.156ZM64.4893 27.096H68.3413C68.1493 28.32 67.6693 29.412 66.9013 30.372C66.1573 31.308 65.1373 32.052 63.8413 32.604C62.5453 33.132 60.9973 33.396 59.1973 33.396C57.1573 33.396 55.3333 33.024 53.7253 32.28C52.1173 31.512 50.8573 30.432 49.9453 29.04C49.0333 27.648 48.5773 25.992 48.5773 24.072C48.5773 22.176 49.0213 20.52 49.9093 19.104C50.7973 17.688 52.0213 16.596 53.5813 15.828C55.1653 15.06 56.9893 14.676 59.0533 14.676C61.1893 14.676 62.9653 15.06 64.3813 15.828C65.8213 16.572 66.8893 17.7 67.5853 19.212C68.2813 20.7 68.5693 22.584 68.4492 24.864H52.6453C52.7653 25.872 53.0893 26.784 53.6173 27.6C54.1693 28.392 54.9133 29.016 55.8493 29.472C56.7853 29.904 57.8773 30.12 59.1253 30.12C60.5173 30.12 61.6813 29.844 62.6173 29.292C63.5773 28.74 64.2013 28.008 64.4893 27.096ZM58.9453 17.916C57.3133 17.916 55.9693 18.324 54.9133 19.14C53.8573 19.932 53.1733 20.952 52.8613 22.2H64.4173C64.3213 20.856 63.7813 19.812 62.7973 19.068C61.8133 18.3 60.5293 17.916 58.9453 17.916ZM72.0133 15.072H76.0093V33H72.0133V15.072ZM82.4893 18.492C81.1933 18.492 80.0773 18.768 79.1413 19.32C78.2293 19.872 77.4973 20.544 76.9453 21.336C76.3933 22.128 76.0093 22.896 75.7933 23.64L75.7573 21.624C75.7813 21.36 75.8653 20.964 76.0093 20.436C76.1533 19.884 76.3693 19.284 76.6573 18.636C76.9693 17.988 77.3773 17.364 77.8813 16.764C78.4093 16.14 79.0453 15.636 79.7893 15.252C80.5573 14.868 81.4573 14.676 82.4893 14.676V18.492ZM83.8933 15.072H88.1773L95.4133 32.28L91.9573 33L83.8933 15.072ZM103.873 15.072L92.3533 40.2H88.1413L93.0733 30.372L99.5893 15.072H103.873Z" fill="white"/>
<path d="M19.208 76.096H23.06C22.868 77.32 22.388 78.412 21.62 79.372C20.876 80.308 19.856 81.052 18.56 81.604C17.264 82.132 15.716 82.396 13.916 82.396C11.876 82.396 10.052 82.024 8.444 81.28C6.836 80.512 5.576 79.432 4.664 78.04C3.752 76.648 3.296 74.992 3.296 73.072C3.296 71.176 3.74 69.52 4.628 68.104C5.516 66.688 6.74 65.596 8.3 64.828C9.884 64.06 11.708 63.676 13.772 63.676C15.908 63.676 17.684 64.06 19.1 64.828C20.54 65.572 21.608 66.7 22.304 68.212C23 69.7 23.288 71.584 23.168 73.864H7.364C7.484 74.872 7.808 75.784 8.336 76.6C8.888 77.392 9.632 78.016 10.568 78.472C11.504 78.904 12.596 79.12 13.844 79.12C15.236 79.12 16.4 78.844 17.336 78.292C18.296 77.74 18.92 77.008 19.208 76.096ZM13.664 66.916C12.032 66.916 10.688 67.324 9.632 68.14C8.576 68.932 7.892 69.952 7.58 71.2H19.136C19.04 69.856 18.5 68.812 17.516 68.068C16.532 67.3 15.248 66.916 13.664 66.916ZM34.8832 79.156H33.4792L39.6712 64.072H44.0272L36.1072 82H32.2912L24.4792 64.072H28.8712L34.8832 79.156ZM61.1846 76.096H65.0366C64.8446 77.32 64.3646 78.412 63.5966 79.372C62.8526 80.308 61.8326 81.052 60.5366 81.604C59.2406 82.132 57.6926 82.396 55.8926 82.396C53.8526 82.396 52.0286 82.024 50.4206 81.28C48.8126 80.512 47.5526 79.432 46.6406 78.04C45.7286 76.648 45.2726 74.992 45.2726 73.072C45.2726 71.176 45.7166 69.52 46.6046 68.104C47.4926 66.688 48.7166 65.596 50.2766 64.828C51.8606 64.06 53.6846 63.676 55.7486 63.676C57.8846 63.676 59.6606 64.06 61.0766 64.828C62.5166 65.572 63.5846 66.7 64.2806 68.212C64.9766 69.7 65.2646 71.584 65.1446 73.864H49.3406C49.4606 74.872 49.7846 75.784 50.3126 76.6C50.8646 77.392 51.6086 78.016 52.5446 78.472C53.4806 78.904 54.5726 79.12 55.8206 79.12C57.2126 79.12 58.3766 78.844 59.3126 78.292C60.2726 77.74 60.8966 77.008 61.1846 76.096ZM55.6406 66.916C54.0086 66.916 52.6646 67.324 51.6086 68.14C50.5526 68.932 49.8686 69.952 49.5566 71.2H61.1126C61.0166 69.856 60.4766 68.812 59.4926 68.068C58.5086 67.3 57.2246 66.916 55.6406 66.916ZM68.7086 64.072H72.7046V82H68.7086V64.072ZM79.1846 67.492C77.8886 67.492 76.7726 67.768 75.8366 68.32C74.9246 68.872 74.1926 69.544 73.6406 70.336C73.0886 71.128 72.7046 71.896 72.4886 72.64L72.4526 70.624C72.4766 70.36 72.5606 69.964 72.7046 69.436C72.8486 68.884 73.0646 68.284 73.3526 67.636C73.6646 66.988 74.0726 66.364 74.5766 65.764C75.1046 65.14 75.7406 64.636 76.4846 64.252C77.2526 63.868 78.1526 63.676 79.1846 63.676V67.492ZM80.5886 64.072H84.8726L92.1086 81.28L88.6526 82L80.5886 64.072ZM100.569 64.072L89.0486 89.2H84.8366L89.7686 79.372L96.2846 64.072H100.569Z" fill="white"/>
<path d="M118.912 56.476V60.328H114.124V56.476H118.912ZM114.484 64.072H118.516V82H114.484V64.072ZM123.302 64.072H127.298V82H123.302V64.072ZM134.858 63.676C135.89 63.676 136.838 63.82 137.702 64.108C138.59 64.396 139.346 64.84 139.97 65.44C140.618 66.016 141.11 66.736 141.446 67.6C141.806 68.464 141.986 69.484 141.986 70.66V82H137.99V71.452C137.99 69.988 137.63 68.908 136.91 68.212C136.214 67.492 135.11 67.132 133.598 67.132C132.446 67.132 131.39 67.384 130.43 67.888C129.494 68.368 128.726 69.004 128.126 69.796C127.526 70.564 127.178 71.416 127.082 72.352L127.046 70.408C127.166 69.52 127.43 68.68 127.838 67.888C128.246 67.072 128.786 66.352 129.458 65.728C130.13 65.08 130.922 64.576 131.834 64.216C132.746 63.856 133.754 63.676 134.858 63.676ZM145.14 64.072H157.812V67.348H145.14V64.072ZM149.46 59.248H153.492V82H149.46V59.248ZM175.649 76.096H179.501C179.309 77.32 178.829 78.412 178.061 79.372C177.317 80.308 176.297 81.052 175.001 81.604C173.705 82.132 172.157 82.396 170.357 82.396C168.317 82.396 166.493 82.024 164.885 81.28C163.277 80.512 162.017 79.432 161.105 78.04C160.193 76.648 159.737 74.992 159.737 73.072C159.737 71.176 160.181 69.52 161.069 68.104C161.957 66.688 163.181 65.596 164.741 64.828C166.325 64.06 168.149 63.676 170.213 63.676C172.349 63.676 174.125 64.06 175.541 64.828C176.981 65.572 178.049 66.7 178.745 68.212C179.441 69.7 179.729 71.584 179.609 73.864H163.805C163.925 74.872 164.249 75.784 164.777 76.6C165.329 77.392 166.073 78.016 167.009 78.472C167.945 78.904 169.037 79.12 170.285 79.12C171.677 79.12 172.841 78.844 173.777 78.292C174.737 77.74 175.361 77.008 175.649 76.096ZM170.105 66.916C168.473 66.916 167.129 67.324 166.073 68.14C165.017 68.932 164.333 69.952 164.021 71.2H175.577C175.481 69.856 174.941 68.812 173.957 68.068C172.973 67.3 171.689 66.916 170.105 66.916ZM183.173 64.072H187.169V82H183.173V64.072ZM193.649 67.492C192.353 67.492 191.237 67.768 190.301 68.32C189.389 68.872 188.657 69.544 188.105 70.336C187.553 71.128 187.169 71.896 186.953 72.64L186.917 70.624C186.941 70.36 187.025 69.964 187.169 69.436C187.313 68.884 187.529 68.284 187.817 67.636C188.129 66.988 188.537 66.364 189.041 65.764C189.569 65.14 190.205 64.636 190.949 64.252C191.717 63.868 192.617 63.676 193.649 63.676V67.492ZM195.484 64.288H208.48V67.528H195.484V64.288ZM205.816 56.872H208.768V60.328H206.536C205.864 60.304 205.276 60.376 204.772 60.544C204.292 60.712 203.908 61.024 203.62 61.48C203.356 61.936 203.224 62.584 203.224 63.424V82H199.192V63.064C199.192 61.624 199.456 60.448 199.984 59.536C200.512 58.624 201.268 57.952 202.252 57.52C203.26 57.088 204.448 56.872 205.816 56.872ZM219.185 82.396C217.553 82.396 216.053 82 214.685 81.208C213.341 80.416 212.261 79.324 211.445 77.932C210.653 76.516 210.257 74.896 210.257 73.072C210.257 71.2 210.665 69.568 211.481 68.176C212.297 66.76 213.401 65.656 214.793 64.864C216.185 64.072 217.745 63.676 219.473 63.676C221.393 63.676 222.917 64.096 224.045 64.936C225.173 65.776 225.977 66.904 226.457 68.32C226.937 69.736 227.177 71.32 227.177 73.072C227.177 74.056 227.033 75.1 226.745 76.204C226.457 77.284 226.001 78.292 225.377 79.228C224.777 80.164 223.961 80.932 222.929 81.532C221.921 82.108 220.673 82.396 219.185 82.396ZM220.409 79.084C221.753 79.084 222.893 78.832 223.829 78.328C224.789 77.8 225.509 77.08 225.989 76.168C226.493 75.256 226.745 74.224 226.745 73.072C226.745 71.8 226.493 70.72 225.989 69.832C225.485 68.92 224.765 68.224 223.829 67.744C222.893 67.24 221.753 66.988 220.409 66.988C218.489 66.988 217.001 67.552 215.945 68.68C214.889 69.808 214.361 71.272 214.361 73.072C214.361 74.248 214.613 75.292 215.117 76.204C215.645 77.116 216.365 77.824 217.277 78.328C218.189 78.832 219.233 79.084 220.409 79.084ZM226.745 64.072H230.777V82H227.033C227.033 82 227.009 81.772 226.961 81.316C226.913 80.86 226.865 80.308 226.817 79.66C226.769 78.988 226.745 78.352 226.745 77.752V64.072ZM254.466 75.052C254.322 76.588 253.83 77.908 252.99 79.012C252.15 80.116 251.022 80.956 249.606 81.532C248.214 82.108 246.606 82.396 244.782 82.396C242.814 82.396 241.026 82.036 239.418 81.316C237.834 80.596 236.574 79.54 235.638 78.148C234.702 76.756 234.234 75.064 234.234 73.072C234.234 71.08 234.702 69.388 235.638 67.996C236.574 66.604 237.834 65.536 239.418 64.792C241.026 64.048 242.814 63.676 244.782 63.676C246.606 63.676 248.214 63.976 249.606 64.576C250.998 65.152 252.114 65.98 252.954 67.06C253.794 68.14 254.286 69.448 254.43 70.984H250.758C250.35 69.712 249.606 68.728 248.526 68.032C247.47 67.312 246.222 66.952 244.782 66.952C243.606 66.952 242.526 67.192 241.542 67.672C240.558 68.128 239.766 68.812 239.166 69.724C238.59 70.612 238.302 71.728 238.302 73.072C238.302 74.392 238.59 75.508 239.166 76.42C239.766 77.332 240.558 78.016 241.542 78.472C242.526 78.904 243.606 79.12 244.782 79.12C246.366 79.12 247.662 78.772 248.67 78.076C249.702 77.356 250.41 76.348 250.794 75.052H254.466ZM272.962 76.096H276.814C276.622 77.32 276.142 78.412 275.374 79.372C274.63 80.308 273.61 81.052 272.314 81.604C271.018 82.132 269.47 82.396 267.67 82.396C265.63 82.396 263.806 82.024 262.198 81.28C260.59 80.512 259.33 79.432 258.418 78.04C257.506 76.648 257.05 74.992 257.05 73.072C257.05 71.176 257.494 69.52 258.382 68.104C259.27 66.688 260.494 65.596 262.054 64.828C263.638 64.06 265.462 63.676 267.526 63.676C269.662 63.676 271.438 64.06 272.854 64.828C274.294 65.572 275.362 66.7 276.058 68.212C276.754 69.7 277.042 71.584 276.922 73.864H261.118C261.238 74.872 261.562 75.784 262.09 76.6C262.642 77.392 263.386 78.016 264.322 78.472C265.258 78.904 266.35 79.12 267.598 79.12C268.99 79.12 270.154 78.844 271.09 78.292C272.05 77.74 272.674 77.008 272.962 76.096ZM267.418 66.916C265.786 66.916 264.442 67.324 263.386 68.14C262.33 68.932 261.646 69.952 261.334 71.2H272.89C272.794 69.856 272.254 68.812 271.27 68.068C270.286 67.3 269.002 66.916 267.418 66.916Z" fill="white"/>
<path d="M306.28 82V71.632C306.28 70.672 306.112 69.88 305.776 69.256C305.464 68.608 304.972 68.116 304.3 67.78C303.628 67.444 302.74 67.276 301.636 67.276C300.532 67.276 299.524 67.516 298.612 67.996C297.7 68.452 296.956 69.064 296.38 69.832C295.804 70.6 295.468 71.452 295.372 72.388L295.336 70.372C295.456 69.508 295.72 68.68 296.128 67.888C296.536 67.072 297.076 66.352 297.748 65.728C298.42 65.104 299.212 64.612 300.124 64.252C301.036 63.868 302.044 63.676 303.148 63.676C304.18 63.676 305.128 63.82 305.992 64.108C306.88 64.396 307.636 64.828 308.26 65.404C308.908 65.956 309.4 66.652 309.736 67.492C310.096 68.308 310.276 69.256 310.276 70.336V82H306.28ZM291.592 82V56.872H295.588V82H291.592ZM322.708 82.396C321.076 82.396 319.576 82 318.208 81.208C316.864 80.416 315.784 79.324 314.968 77.932C314.176 76.516 313.78 74.896 313.78 73.072C313.78 71.2 314.188 69.568 315.004 68.176C315.82 66.76 316.924 65.656 318.316 64.864C319.708 64.072 321.268 63.676 322.996 63.676C324.916 63.676 326.44 64.096 327.568 64.936C328.696 65.776 329.5 66.904 329.98 68.32C330.46 69.736 330.7 71.32 330.7 73.072C330.7 74.056 330.556 75.1 330.268 76.204C329.98 77.284 329.524 78.292 328.9 79.228C328.3 80.164 327.484 80.932 326.452 81.532C325.444 82.108 324.196 82.396 322.708 82.396ZM323.932 79.084C325.276 79.084 326.416 78.832 327.352 78.328C328.312 77.8 329.032 77.08 329.512 76.168C330.016 75.256 330.268 74.224 330.268 73.072C330.268 71.8 330.016 70.72 329.512 69.832C329.008 68.92 328.288 68.224 327.352 67.744C326.416 67.24 325.276 66.988 323.932 66.988C322.012 66.988 320.524 67.552 319.468 68.68C318.412 69.808 317.884 71.272 317.884 73.072C317.884 74.248 318.136 75.292 318.64 76.204C319.168 77.116 319.888 77.824 320.8 78.328C321.712 78.832 322.756 79.084 323.932 79.084ZM330.268 64.072H334.3V82H330.556C330.556 82 330.532 81.772 330.484 81.316C330.436 80.86 330.388 80.308 330.34 79.66C330.292 78.988 330.268 78.352 330.268 77.752V64.072ZM337.901 76.096H341.609C341.801 77.008 342.293 77.752 343.085 78.328C343.877 78.88 344.945 79.156 346.289 79.156C347.153 79.156 347.825 79.06 348.305 78.868C348.809 78.676 349.157 78.412 349.349 78.076C349.565 77.74 349.673 77.356 349.673 76.924C349.673 76.396 349.517 75.988 349.205 75.7C348.917 75.412 348.485 75.172 347.909 74.98C347.333 74.788 346.613 74.62 345.749 74.476C344.861 74.26 343.985 74.02 343.121 73.756C342.257 73.492 341.477 73.168 340.781 72.784C340.085 72.376 339.533 71.872 339.125 71.272C338.741 70.648 338.549 69.892 338.549 69.004C338.549 68.188 338.729 67.456 339.089 66.808C339.473 66.136 340.001 65.572 340.673 65.116C341.345 64.66 342.137 64.312 343.049 64.072C343.961 63.808 344.957 63.676 346.037 63.676C347.597 63.676 348.893 63.928 349.925 64.432C350.981 64.936 351.773 65.644 352.301 66.556C352.853 67.468 353.129 68.512 353.129 69.688H349.601C349.409 68.728 349.037 68.032 348.485 67.6C347.933 67.168 347.105 66.952 346.001 66.952C344.897 66.952 344.057 67.144 343.481 67.528C342.905 67.912 342.617 68.44 342.617 69.112C342.617 69.616 342.797 70.024 343.157 70.336C343.541 70.624 344.081 70.876 344.777 71.092C345.473 71.308 346.289 71.524 347.225 71.74C348.089 71.98 348.905 72.232 349.673 72.496C350.441 72.736 351.125 73.048 351.725 73.432C352.349 73.792 352.841 74.272 353.201 74.872C353.561 75.472 353.741 76.216 353.741 77.104C353.741 78.208 353.441 79.156 352.841 79.948C352.265 80.74 351.425 81.352 350.321 81.784C349.217 82.192 347.885 82.396 346.325 82.396C344.957 82.396 343.769 82.24 342.761 81.928C341.777 81.616 340.949 81.208 340.277 80.704C339.629 80.2 339.125 79.66 338.765 79.084C338.405 78.508 338.153 77.956 338.009 77.428C337.889 76.9 337.853 76.456 337.901 76.096Z" fill="white"/>
<path d="M376.224 82.396C374.592 82.396 373.092 82 371.724 81.208C370.38 80.416 369.3 79.324 368.484 77.932C367.692 76.516 367.296 74.896 367.296 73.072C367.296 71.2 367.704 69.568 368.52 68.176C369.336 66.76 370.44 65.656 371.832 64.864C373.224 64.072 374.784 63.676 376.512 63.676C378.432 63.676 379.956 64.096 381.084 64.936C382.212 65.776 383.016 66.904 383.496 68.32C383.976 69.736 384.216 71.32 384.216 73.072C384.216 74.056 384.072 75.1 383.784 76.204C383.496 77.284 383.04 78.292 382.416 79.228C381.816 80.164 381 80.932 379.968 81.532C378.96 82.108 377.712 82.396 376.224 82.396ZM377.448 79.084C378.792 79.084 379.932 78.832 380.868 78.328C381.828 77.8 382.548 77.08 383.028 76.168C383.532 75.256 383.784 74.224 383.784 73.072C383.784 71.8 383.532 70.72 383.028 69.832C382.524 68.92 381.804 68.224 380.868 67.744C379.932 67.24 378.792 66.988 377.448 66.988C375.528 66.988 374.04 67.552 372.984 68.68C371.928 69.808 371.4 71.272 371.4 73.072C371.4 74.248 371.652 75.292 372.156 76.204C372.684 77.116 373.404 77.824 374.316 78.328C375.228 78.832 376.272 79.084 377.448 79.084ZM383.784 64.072H387.816V82H384.072C384.072 82 384.048 81.772 384 81.316C383.952 80.86 383.904 80.308 383.856 79.66C383.808 78.988 383.784 78.352 383.784 77.752V64.072Z" fill="white"/>
<path d="M413.752 82.396C412.288 82.396 411.04 82.108 410.008 81.532C409 80.956 408.184 80.2 407.56 79.264C406.96 78.304 406.516 77.284 406.228 76.204C405.94 75.1 405.796 74.056 405.796 73.072C405.796 71.752 405.928 70.528 406.192 69.4C406.48 68.272 406.924 67.288 407.524 66.448C408.148 65.584 408.964 64.912 409.972 64.432C411.004 63.928 412.264 63.676 413.752 63.676C415.432 63.676 416.944 64.084 418.288 64.9C419.632 65.692 420.7 66.796 421.492 68.212C422.284 69.604 422.68 71.224 422.68 73.072C422.68 74.92 422.272 76.552 421.456 77.968C420.664 79.36 419.596 80.452 418.252 81.244C416.908 82.012 415.408 82.396 413.752 82.396ZM412.564 79.084C413.764 79.084 414.82 78.832 415.732 78.328C416.644 77.824 417.352 77.116 417.856 76.204C418.36 75.292 418.612 74.248 418.612 73.072C418.612 71.272 418.084 69.808 417.028 68.68C415.972 67.528 414.484 66.952 412.564 66.952C411.364 66.952 410.284 67.204 409.324 67.708C408.364 68.212 407.608 68.92 407.056 69.832C406.504 70.72 406.228 71.8 406.228 73.072C406.228 74.224 406.48 75.256 406.984 76.168C407.488 77.08 408.208 77.8 409.144 78.328C410.08 78.832 411.22 79.084 412.564 79.084ZM402.232 64.072H406.048L406.228 68.464V89.2H402.232V64.072ZM444.928 82H440.932V64.072H444.928V82ZM441.148 73.468L441.184 74.62C441.136 74.932 441.028 75.4 440.86 76.024C440.716 76.648 440.464 77.332 440.104 78.076C439.768 78.796 439.312 79.492 438.736 80.164C438.184 80.812 437.488 81.352 436.648 81.784C435.808 82.192 434.788 82.396 433.588 82.396C432.724 82.396 431.848 82.276 430.96 82.036C430.096 81.82 429.304 81.448 428.584 80.92C427.888 80.392 427.324 79.672 426.892 78.76C426.46 77.848 426.244 76.696 426.244 75.304V64.072H430.24V74.548C430.24 75.676 430.42 76.564 430.78 77.212C431.164 77.836 431.692 78.28 432.364 78.544C433.036 78.808 433.816 78.94 434.704 78.94C435.976 78.94 437.056 78.652 437.944 78.076C438.832 77.5 439.54 76.792 440.068 75.952C440.62 75.088 440.98 74.26 441.148 73.468ZM449.341 64.072H453.337V82H449.341V64.072ZM459.817 67.492C458.521 67.492 457.405 67.768 456.469 68.32C455.557 68.872 454.825 69.544 454.273 70.336C453.721 71.128 453.337 71.896 453.121 72.64L453.085 70.624C453.109 70.36 453.193 69.964 453.337 69.436C453.481 68.884 453.697 68.284 453.985 67.636C454.297 66.988 454.705 66.364 455.209 65.764C455.737 65.14 456.373 64.636 457.117 64.252C457.885 63.868 458.785 63.676 459.817 63.676V67.492ZM474.361 82.396C472.897 82.396 471.649 82.108 470.617 81.532C469.609 80.956 468.793 80.2 468.169 79.264C467.569 78.304 467.125 77.284 466.837 76.204C466.549 75.1 466.405 74.056 466.405 73.072C466.405 71.752 466.537 70.528 466.801 69.4C467.089 68.272 467.533 67.288 468.133 66.448C468.757 65.584 469.573 64.912 470.581 64.432C471.613 63.928 472.873 63.676 474.361 63.676C476.041 63.676 477.553 64.084 478.897 64.9C480.241 65.692 481.309 66.796 482.101 68.212C482.893 69.604 483.289 71.224 483.289 73.072C483.289 74.92 482.881 76.552 482.065 77.968C481.273 79.36 480.205 80.452 478.861 81.244C477.517 82.012 476.017 82.396 474.361 82.396ZM473.173 79.084C474.373 79.084 475.429 78.832 476.341 78.328C477.253 77.824 477.961 77.116 478.465 76.204C478.969 75.292 479.221 74.248 479.221 73.072C479.221 71.272 478.693 69.808 477.637 68.68C476.581 67.528 475.093 66.952 473.173 66.952C471.973 66.952 470.893 67.204 469.933 67.708C468.973 68.212 468.217 68.92 467.665 69.832C467.113 70.72 466.837 71.8 466.837 73.072C466.837 74.224 467.089 75.256 467.593 76.168C468.097 77.08 468.817 77.8 469.753 78.328C470.689 78.832 471.829 79.084 473.173 79.084ZM462.841 64.072H466.657L466.837 68.464V89.2H462.841V64.072ZM496.393 82.396C494.401 82.396 492.613 82.036 491.029 81.316C489.445 80.596 488.197 79.54 487.285 78.148C486.373 76.756 485.917 75.064 485.917 73.072C485.917 71.104 486.373 69.424 487.285 68.032C488.197 66.616 489.445 65.536 491.029 64.792C492.613 64.048 494.401 63.676 496.393 63.676C498.385 63.676 500.161 64.048 501.721 64.792C503.281 65.536 504.505 66.616 505.393 68.032C506.305 69.424 506.761 71.104 506.761 73.072C506.761 75.064 506.305 76.756 505.393 78.148C504.505 79.54 503.281 80.596 501.721 81.316C500.161 82.036 498.385 82.396 496.393 82.396ZM496.393 79.12C497.545 79.12 498.601 78.892 499.561 78.436C500.521 77.98 501.277 77.296 501.829 76.384C502.405 75.472 502.693 74.368 502.693 73.072C502.693 71.776 502.405 70.672 501.829 69.76C501.277 68.848 500.521 68.152 499.561 67.672C498.625 67.168 497.569 66.916 496.393 66.916C495.217 66.916 494.149 67.156 493.189 67.636C492.229 68.116 491.449 68.812 490.849 69.724C490.273 70.636 489.985 71.752 489.985 73.072C489.985 74.368 490.273 75.472 490.849 76.384C491.425 77.296 492.193 77.98 493.153 78.436C494.137 78.892 495.217 79.12 496.393 79.12ZM509.545 76.096H513.253C513.445 77.008 513.937 77.752 514.729 78.328C515.521 78.88 516.589 79.156 517.933 79.156C518.797 79.156 519.469 79.06 519.949 78.868C520.453 78.676 520.801 78.412 520.993 78.076C521.209 77.74 521.317 77.356 521.317 76.924C521.317 76.396 521.161 75.988 520.849 75.7C520.561 75.412 520.129 75.172 519.553 74.98C518.977 74.788 518.257 74.62 517.393 74.476C516.505 74.26 515.629 74.02 514.765 73.756C513.901 73.492 513.121 73.168 512.425 72.784C511.729 72.376 511.177 71.872 510.769 71.272C510.385 70.648 510.193 69.892 510.193 69.004C510.193 68.188 510.373 67.456 510.733 66.808C511.117 66.136 511.645 65.572 512.317 65.116C512.989 64.66 513.781 64.312 514.693 64.072C515.605 63.808 516.601 63.676 517.681 63.676C519.241 63.676 520.537 63.928 521.569 64.432C522.625 64.936 523.417 65.644 523.945 66.556C524.497 67.468 524.773 68.512 524.773 69.688H521.245C521.053 68.728 520.681 68.032 520.129 67.6C519.577 67.168 518.749 66.952 517.645 66.952C516.541 66.952 515.701 67.144 515.125 67.528C514.549 67.912 514.261 68.44 514.261 69.112C514.261 69.616 514.441 70.024 514.801 70.336C515.185 70.624 515.725 70.876 516.421 71.092C517.117 71.308 517.933 71.524 518.869 71.74C519.733 71.98 520.549 72.232 521.317 72.496C522.085 72.736 522.769 73.048 523.369 73.432C523.993 73.792 524.485 74.272 524.845 74.872C525.205 75.472 525.385 76.216 525.385 77.104C525.385 78.208 525.085 79.156 524.485 79.948C523.909 80.74 523.069 81.352 521.965 81.784C520.861 82.192 519.529 82.396 517.969 82.396C516.601 82.396 515.413 82.24 514.405 81.928C513.421 81.616 512.593 81.208 511.921 80.704C511.273 80.2 510.769 79.66 510.409 79.084C510.049 78.508 509.797 77.956 509.653 77.428C509.533 76.9 509.497 76.456 509.545 76.096ZM543.981 76.096H547.833C547.641 77.32 547.161 78.412 546.393 79.372C545.649 80.308 544.629 81.052 543.333 81.604C542.037 82.132 540.489 82.396 538.689 82.396C536.649 82.396 534.825 82.024 533.217 81.28C531.609 80.512 530.349 79.432 529.437 78.04C528.525 76.648 528.069 74.992 528.069 73.072C528.069 71.176 528.513 69.52 529.401 68.104C530.289 66.688 531.513 65.596 533.073 64.828C534.657 64.06 536.481 63.676 538.545 63.676C540.681 63.676 542.457 64.06 543.873 64.828C545.313 65.572 546.381 66.7 547.077 68.212C547.773 69.7 548.061 71.584 547.941 73.864H532.137C532.257 74.872 532.581 75.784 533.109 76.6C533.661 77.392 534.405 78.016 535.341 78.472C536.277 78.904 537.369 79.12 538.617 79.12C540.009 79.12 541.173 78.844 542.109 78.292C543.069 77.74 543.693 77.008 543.981 76.096ZM538.437 66.916C536.805 66.916 535.461 67.324 534.405 68.14C533.349 68.932 532.665 69.952 532.353 71.2H543.909C543.813 69.856 543.273 68.812 542.289 68.068C541.305 67.3 540.021 66.916 538.437 66.916Z" fill="white"/>
<path d="M557.02 78.112V82H552.232V78.112H557.02Z" fill="white"/>
<path d="M12.044 131L2.72 107.672H7.184L15.104 128.192H13.808L21.368 107.672H26.012L33.572 128.192H32.276L40.196 107.672H44.588L35.372 131H30.548L23.096 110.516H24.32L16.832 131H12.044ZM60.376 125.096H64.228C64.036 126.32 63.556 127.412 62.788 128.372C62.044 129.308 61.024 130.052 59.728 130.604C58.432 131.132 56.884 131.396 55.084 131.396C53.044 131.396 51.22 131.024 49.612 130.28C48.004 129.512 46.744 128.432 45.832 127.04C44.92 125.648 44.464 123.992 44.464 122.072C44.464 120.176 44.908 118.52 45.796 117.104C46.684 115.688 47.908 114.596 49.468 113.828C51.052 113.06 52.876 112.676 54.94 112.676C57.076 112.676 58.852 113.06 60.268 113.828C61.708 114.572 62.776 115.7 63.472 117.212C64.168 118.7 64.456 120.584 64.336 122.864H48.532C48.652 123.872 48.976 124.784 49.504 125.6C50.056 126.392 50.8 127.016 51.736 127.472C52.672 127.904 53.764 128.12 55.012 128.12C56.404 128.12 57.568 127.844 58.504 127.292C59.464 126.74 60.088 126.008 60.376 125.096ZM54.832 115.916C53.2 115.916 51.856 116.324 50.8 117.14C49.744 117.932 49.06 118.952 48.748 120.2H60.304C60.208 118.856 59.668 117.812 58.684 117.068C57.7 116.3 56.416 115.916 54.832 115.916ZM68.26 105.872H72.256V131H68.26V105.872ZM96.4069 124.052C96.2629 125.588 95.7709 126.908 94.9309 128.012C94.0909 129.116 92.9629 129.956 91.5469 130.532C90.1549 131.108 88.5469 131.396 86.7229 131.396C84.7549 131.396 82.9669 131.036 81.3589 130.316C79.7749 129.596 78.5149 128.54 77.5789 127.148C76.6429 125.756 76.1749 124.064 76.1749 122.072C76.1749 120.08 76.6429 118.388 77.5789 116.996C78.5149 115.604 79.7749 114.536 81.3589 113.792C82.9669 113.048 84.7549 112.676 86.7229 112.676C88.5469 112.676 90.1549 112.976 91.5469 113.576C92.9389 114.152 94.0549 114.98 94.8949 116.06C95.7349 117.14 96.2269 118.448 96.3709 119.984H92.6989C92.2909 118.712 91.5469 117.728 90.4669 117.032C89.4109 116.312 88.1629 115.952 86.7229 115.952C85.5469 115.952 84.4669 116.192 83.4829 116.672C82.4989 117.128 81.7069 117.812 81.1069 118.724C80.5309 119.612 80.2429 120.728 80.2429 122.072C80.2429 123.392 80.5309 124.508 81.1069 125.42C81.7069 126.332 82.4989 127.016 83.4829 127.472C84.4669 127.904 85.5469 128.12 86.7229 128.12C88.3069 128.12 89.6029 127.772 90.6109 127.076C91.6429 126.356 92.3509 125.348 92.7349 124.052H96.4069ZM109.467 131.396C107.475 131.396 105.687 131.036 104.103 130.316C102.519 129.596 101.271 128.54 100.359 127.148C99.4473 125.756 98.9913 124.064 98.9913 122.072C98.9913 120.104 99.4473 118.424 100.359 117.032C101.271 115.616 102.519 114.536 104.103 113.792C105.687 113.048 107.475 112.676 109.467 112.676C111.459 112.676 113.235 113.048 114.795 113.792C116.355 114.536 117.579 115.616 118.467 117.032C119.379 118.424 119.835 120.104 119.835 122.072C119.835 124.064 119.379 125.756 118.467 127.148C117.579 128.54 116.355 129.596 114.795 130.316C113.235 131.036 111.459 131.396 109.467 131.396ZM109.467 128.12C110.619 128.12 111.675 127.892 112.635 127.436C113.595 126.98 114.351 126.296 114.903 125.384C115.479 124.472 115.767 123.368 115.767 122.072C115.767 120.776 115.479 119.672 114.903 118.76C114.351 117.848 113.595 117.152 112.635 116.672C111.699 116.168 110.643 115.916 109.467 115.916C108.291 115.916 107.223 116.156 106.263 116.636C105.303 117.116 104.523 117.812 103.923 118.724C103.347 119.636 103.059 120.752 103.059 122.072C103.059 123.368 103.347 124.472 103.923 125.384C104.499 126.296 105.267 126.98 106.227 127.436C107.211 127.892 108.291 128.12 109.467 128.12ZM123.412 113.072H127.408V131H123.412V113.072ZM134.968 112.676C136 112.676 136.948 112.82 137.812 113.108C138.7 113.396 139.456 113.84 140.08 114.44C140.728 115.016 141.22 115.736 141.556 116.6C141.916 117.464 142.096 118.484 142.096 119.66V131H138.1V120.452C138.1 118.988 137.74 117.908 137.02 117.212C136.324 116.492 135.22 116.132 133.708 116.132C132.556 116.132 131.5 116.384 130.54 116.888C129.604 117.368 128.836 118.004 128.236 118.796C127.636 119.564 127.288 120.416 127.192 121.352L127.156 119.408C127.276 118.52 127.54 117.68 127.948 116.888C128.356 116.072 128.896 115.352 129.568 114.728C130.24 114.08 131.032 113.576 131.944 113.216C132.856 112.856 133.864 112.676 134.968 112.676ZM149.26 112.676C150.316 112.676 151.276 112.82 152.14 113.108C153.004 113.396 153.748 113.84 154.372 114.44C155.02 115.016 155.524 115.736 155.884 116.6C156.244 117.464 156.424 118.484 156.424 119.66V131H152.392V120.452C152.392 118.988 152.032 117.908 151.312 117.212C150.616 116.492 149.512 116.132 148 116.132C146.848 116.132 145.792 116.384 144.832 116.888C143.896 117.368 143.128 118.004 142.528 118.796C141.952 119.564 141.616 120.416 141.52 121.352L141.448 119.336C141.568 118.472 141.844 117.644 142.276 116.852C142.708 116.036 143.26 115.316 143.932 114.692C144.604 114.068 145.384 113.576 146.272 113.216C147.184 112.856 148.18 112.676 149.26 112.676ZM175.794 125.096H179.646C179.454 126.32 178.974 127.412 178.206 128.372C177.462 129.308 176.442 130.052 175.146 130.604C173.85 131.132 172.302 131.396 170.502 131.396C168.462 131.396 166.638 131.024 165.03 130.28C163.422 129.512 162.162 128.432 161.25 127.04C160.338 125.648 159.882 123.992 159.882 122.072C159.882 120.176 160.326 118.52 161.214 117.104C162.102 115.688 163.326 114.596 164.886 113.828C166.47 113.06 168.294 112.676 170.358 112.676C172.494 112.676 174.27 113.06 175.686 113.828C177.126 114.572 178.194 115.7 178.89 117.212C179.586 118.7 179.874 120.584 179.754 122.864H163.95C164.07 123.872 164.394 124.784 164.922 125.6C165.474 126.392 166.218 127.016 167.154 127.472C168.09 127.904 169.182 128.12 170.43 128.12C171.822 128.12 172.986 127.844 173.922 127.292C174.882 126.74 175.506 126.008 175.794 125.096ZM170.25 115.916C168.618 115.916 167.274 116.324 166.218 117.14C165.162 117.932 164.478 118.952 164.166 120.2H175.722C175.626 118.856 175.086 117.812 174.102 117.068C173.118 116.3 171.834 115.916 170.25 115.916Z" fill="white"/>
<path d="M192.972 113.072H205.644V116.348H192.972V113.072ZM197.292 108.248H201.324V131H197.292V108.248ZM218.045 131.396C216.053 131.396 214.265 131.036 212.681 130.316C211.097 129.596 209.849 128.54 208.937 127.148C208.025 125.756 207.569 124.064 207.569 122.072C207.569 120.104 208.025 118.424 208.937 117.032C209.849 115.616 211.097 114.536 212.681 113.792C214.265 113.048 216.053 112.676 218.045 112.676C220.037 112.676 221.813 113.048 223.373 113.792C224.933 114.536 226.157 115.616 227.045 117.032C227.957 118.424 228.413 120.104 228.413 122.072C228.413 124.064 227.957 125.756 227.045 127.148C226.157 128.54 224.933 129.596 223.373 130.316C221.813 131.036 220.037 131.396 218.045 131.396ZM218.045 128.12C219.197 128.12 220.253 127.892 221.213 127.436C222.173 126.98 222.929 126.296 223.481 125.384C224.057 124.472 224.345 123.368 224.345 122.072C224.345 120.776 224.057 119.672 223.481 118.76C222.929 117.848 222.173 117.152 221.213 116.672C220.277 116.168 219.221 115.916 218.045 115.916C216.869 115.916 215.801 116.156 214.841 116.636C213.881 117.116 213.101 117.812 212.501 118.724C211.925 119.636 211.637 120.752 211.637 122.072C211.637 123.368 211.925 124.472 212.501 125.384C213.077 126.296 213.845 126.98 214.805 127.436C215.789 127.892 216.869 128.12 218.045 128.12Z" fill="white"/>
<path d="M242.232 113.072H246.228V131H242.232V113.072ZM253.788 112.676C254.82 112.676 255.768 112.82 256.632 113.108C257.52 113.396 258.276 113.84 258.9 114.44C259.548 115.016 260.04 115.736 260.376 116.6C260.736 117.464 260.916 118.484 260.916 119.66V131H256.92V120.452C256.92 118.988 256.56 117.908 255.84 117.212C255.144 116.492 254.04 116.132 252.528 116.132C251.376 116.132 250.32 116.384 249.36 116.888C248.424 117.368 247.656 118.004 247.056 118.796C246.456 119.564 246.108 120.416 246.012 121.352L245.976 119.408C246.096 118.52 246.36 117.68 246.768 116.888C247.176 116.072 247.716 115.352 248.388 114.728C249.06 114.08 249.852 113.576 250.764 113.216C251.676 112.856 252.684 112.676 253.788 112.676ZM268.08 112.676C269.136 112.676 270.096 112.82 270.96 113.108C271.824 113.396 272.568 113.84 273.192 114.44C273.84 115.016 274.344 115.736 274.704 116.6C275.064 117.464 275.244 118.484 275.244 119.66V131H271.212V120.452C271.212 118.988 270.852 117.908 270.132 117.212C269.436 116.492 268.332 116.132 266.82 116.132C265.668 116.132 264.612 116.384 263.652 116.888C262.716 117.368 261.948 118.004 261.348 118.796C260.772 119.564 260.436 120.416 260.34 121.352L260.268 119.336C260.388 118.472 260.664 117.644 261.096 116.852C261.528 116.036 262.08 115.316 262.752 114.692C263.424 114.068 264.204 113.576 265.092 113.216C266.004 112.856 267 112.676 268.08 112.676ZM277.667 113.072H281.951L289.187 130.28L285.731 131L277.667 113.072ZM297.647 113.072L286.127 138.2H281.915L286.847 128.372L293.363 113.072H297.647Z" fill="white"/>
<path d="M322.752 131.396C321.288 131.396 320.04 131.108 319.008 130.532C318 129.956 317.184 129.2 316.56 128.264C315.96 127.304 315.516 126.284 315.228 125.204C314.94 124.1 314.796 123.056 314.796 122.072C314.796 120.752 314.928 119.528 315.192 118.4C315.48 117.272 315.924 116.288 316.524 115.448C317.148 114.584 317.964 113.912 318.972 113.432C320.004 112.928 321.264 112.676 322.752 112.676C324.432 112.676 325.944 113.084 327.288 113.9C328.632 114.692 329.7 115.796 330.492 117.212C331.284 118.604 331.68 120.224 331.68 122.072C331.68 123.92 331.272 125.552 330.456 126.968C329.664 128.36 328.596 129.452 327.252 130.244C325.908 131.012 324.408 131.396 322.752 131.396ZM321.564 128.084C322.764 128.084 323.82 127.832 324.732 127.328C325.644 126.824 326.352 126.116 326.856 125.204C327.36 124.292 327.612 123.248 327.612 122.072C327.612 120.272 327.084 118.808 326.028 117.68C324.972 116.528 323.484 115.952 321.564 115.952C320.364 115.952 319.284 116.204 318.324 116.708C317.364 117.212 316.608 117.92 316.056 118.832C315.504 119.72 315.228 120.8 315.228 122.072C315.228 123.224 315.48 124.256 315.984 125.168C316.488 126.08 317.208 126.8 318.144 127.328C319.08 127.832 320.22 128.084 321.564 128.084ZM311.232 113.072H315.048L315.228 117.464V138.2H311.232V113.072ZM344.784 131.396C342.792 131.396 341.004 131.036 339.42 130.316C337.836 129.596 336.588 128.54 335.676 127.148C334.764 125.756 334.308 124.064 334.308 122.072C334.308 120.104 334.764 118.424 335.676 117.032C336.588 115.616 337.836 114.536 339.42 113.792C341.004 113.048 342.792 112.676 344.784 112.676C346.776 112.676 348.552 113.048 350.112 113.792C351.672 114.536 352.896 115.616 353.784 117.032C354.696 118.424 355.152 120.104 355.152 122.072C355.152 124.064 354.696 125.756 353.784 127.148C352.896 128.54 351.672 129.596 350.112 130.316C348.552 131.036 346.776 131.396 344.784 131.396ZM344.784 128.12C345.936 128.12 346.992 127.892 347.952 127.436C348.912 126.98 349.668 126.296 350.22 125.384C350.796 124.472 351.084 123.368 351.084 122.072C351.084 120.776 350.796 119.672 350.22 118.76C349.668 117.848 348.912 117.152 347.952 116.672C347.016 116.168 345.96 115.916 344.784 115.916C343.608 115.916 342.54 116.156 341.58 116.636C340.62 117.116 339.84 117.812 339.24 118.724C338.664 119.636 338.376 120.752 338.376 122.072C338.376 123.368 338.664 124.472 339.24 125.384C339.816 126.296 340.584 126.98 341.544 127.436C342.528 127.892 343.608 128.12 344.784 128.12ZM358.728 113.072H362.724V131H358.728V113.072ZM369.204 116.492C367.908 116.492 366.792 116.768 365.856 117.32C364.944 117.872 364.212 118.544 363.66 119.336C363.108 120.128 362.724 120.896 362.508 121.64L362.472 119.624C362.496 119.36 362.58 118.964 362.724 118.436C362.868 117.884 363.084 117.284 363.372 116.636C363.684 115.988 364.092 115.364 364.596 114.764C365.124 114.14 365.76 113.636 366.504 113.252C367.272 112.868 368.172 112.676 369.204 112.676V116.492ZM371.038 113.072H383.71V116.348H371.038V113.072ZM375.358 108.248H379.39V131H375.358V108.248ZM385.593 113.288H398.589V116.528H385.593V113.288ZM395.925 105.872H398.877V109.328H396.645C395.973 109.304 395.385 109.376 394.881 109.544C394.401 109.712 394.017 110.024 393.729 110.48C393.465 110.936 393.333 111.584 393.333 112.424V131H389.301V112.064C389.301 110.624 389.565 109.448 390.093 108.536C390.621 107.624 391.377 106.952 392.361 106.52C393.369 106.088 394.557 105.872 395.925 105.872ZM410.842 131.396C408.85 131.396 407.062 131.036 405.478 130.316C403.894 129.596 402.646 128.54 401.734 127.148C400.822 125.756 400.366 124.064 400.366 122.072C400.366 120.104 400.822 118.424 401.734 117.032C402.646 115.616 403.894 114.536 405.478 113.792C407.062 113.048 408.85 112.676 410.842 112.676C412.834 112.676 414.61 113.048 416.17 113.792C417.73 114.536 418.954 115.616 419.842 117.032C420.754 118.424 421.21 120.104 421.21 122.072C421.21 124.064 420.754 125.756 419.842 127.148C418.954 128.54 417.73 129.596 416.17 130.316C414.61 131.036 412.834 131.396 410.842 131.396ZM410.842 128.12C411.994 128.12 413.05 127.892 414.01 127.436C414.97 126.98 415.726 126.296 416.278 125.384C416.854 124.472 417.142 123.368 417.142 122.072C417.142 120.776 416.854 119.672 416.278 118.76C415.726 117.848 414.97 117.152 414.01 116.672C413.074 116.168 412.018 115.916 410.842 115.916C409.666 115.916 408.598 116.156 407.638 116.636C406.678 117.116 405.898 117.812 405.298 118.724C404.722 119.636 404.434 120.752 404.434 122.072C404.434 123.368 404.722 124.472 405.298 125.384C405.874 126.296 406.642 126.98 407.602 127.436C408.586 127.892 409.666 128.12 410.842 128.12ZM425.147 105.872H429.143V131H425.147V105.872ZM438.678 105.476V109.328H433.89V105.476H438.678ZM434.25 113.072H438.282V131H434.25V113.072ZM452.608 131.396C450.616 131.396 448.828 131.036 447.244 130.316C445.66 129.596 444.412 128.54 443.5 127.148C442.588 125.756 442.132 124.064 442.132 122.072C442.132 120.104 442.588 118.424 443.5 117.032C444.412 115.616 445.66 114.536 447.244 113.792C448.828 113.048 450.616 112.676 452.608 112.676C454.6 112.676 456.376 113.048 457.936 113.792C459.496 114.536 460.72 115.616 461.608 117.032C462.52 118.424 462.976 120.104 462.976 122.072C462.976 124.064 462.52 125.756 461.608 127.148C460.72 128.54 459.496 129.596 457.936 130.316C456.376 131.036 454.6 131.396 452.608 131.396ZM452.608 128.12C453.76 128.12 454.816 127.892 455.776 127.436C456.736 126.98 457.492 126.296 458.044 125.384C458.62 124.472 458.908 123.368 458.908 122.072C458.908 120.776 458.62 119.672 458.044 118.76C457.492 117.848 456.736 117.152 455.776 116.672C454.84 116.168 453.784 115.916 452.608 115.916C451.432 115.916 450.364 116.156 449.404 116.636C448.444 117.116 447.664 117.812 447.064 118.724C446.488 119.636 446.2 120.752 446.2 122.072C446.2 123.368 446.488 124.472 447.064 125.384C447.64 126.296 448.408 126.98 449.368 127.436C450.352 127.892 451.432 128.12 452.608 128.12Z" fill="white"/>
<path d="M477.16 119.552H502.648V122.864H477.16V119.552Z" fill="white"/>
<path d="M21.528 173.052C21.384 174.588 20.892 175.908 20.052 177.012C19.212 178.116 18.084 178.956 16.668 179.532C15.276 180.108 13.668 180.396 11.844 180.396C9.876 180.396 8.088 180.036 6.48 179.316C4.896 178.596 3.636 177.54 2.7 176.148C1.764 174.756 1.296 173.064 1.296 171.072C1.296 169.08 1.764 167.388 2.7 165.996C3.636 164.604 4.896 163.536 6.48 162.792C8.088 162.048 9.876 161.676 11.844 161.676C13.668 161.676 15.276 161.976 16.668 162.576C18.06 163.152 19.176 163.98 20.016 165.06C20.856 166.14 21.348 167.448 21.492 168.984H17.82C17.412 167.712 16.668 166.728 15.588 166.032C14.532 165.312 13.284 164.952 11.844 164.952C10.668 164.952 9.588 165.192 8.604 165.672C7.62 166.128 6.828 166.812 6.228 167.724C5.652 168.612 5.364 169.728 5.364 171.072C5.364 172.392 5.652 173.508 6.228 174.42C6.828 175.332 7.62 176.016 8.604 176.472C9.588 176.904 10.668 177.12 11.844 177.12C13.428 177.12 14.724 176.772 15.732 176.076C16.764 175.356 17.472 174.348 17.856 173.052H21.528ZM25.0484 162.072H29.0444V180H25.0484V162.072ZM35.5244 165.492C34.2284 165.492 33.1124 165.768 32.1764 166.32C31.2644 166.872 30.5324 167.544 29.9804 168.336C29.4284 169.128 29.0444 169.896 28.8284 170.64L28.7924 168.624C28.8164 168.36 28.9004 167.964 29.0444 167.436C29.1884 166.884 29.4044 166.284 29.6924 165.636C30.0044 164.988 30.4124 164.364 30.9164 163.764C31.4444 163.14 32.0804 162.636 32.8244 162.252C33.5924 161.868 34.4924 161.676 35.5244 161.676V165.492ZM46.5404 180.396C44.9084 180.396 43.4084 180 42.0404 179.208C40.6964 178.416 39.6164 177.324 38.8004 175.932C38.0084 174.516 37.6124 172.896 37.6124 171.072C37.6124 169.2 38.0204 167.568 38.8364 166.176C39.6524 164.76 40.7564 163.656 42.1484 162.864C43.5404 162.072 45.1004 161.676 46.8284 161.676C48.7484 161.676 50.2724 162.096 51.4004 162.936C52.5284 163.776 53.3324 164.904 53.8124 166.32C54.2924 167.736 54.5324 169.32 54.5324 171.072C54.5324 172.056 54.3884 173.1 54.1004 174.204C53.8124 175.284 53.3564 176.292 52.7324 177.228C52.1324 178.164 51.3164 178.932 50.2844 179.532C49.2764 180.108 48.0284 180.396 46.5404 180.396ZM47.7644 177.084C49.1084 177.084 50.2484 176.832 51.1844 176.328C52.1444 175.8 52.8644 175.08 53.3444 174.168C53.8484 173.256 54.1004 172.224 54.1004 171.072C54.1004 169.8 53.8484 168.72 53.3444 167.832C52.8404 166.92 52.1204 166.224 51.1844 165.744C50.2484 165.24 49.1084 164.988 47.7644 164.988C45.8444 164.988 44.3564 165.552 43.3004 166.68C42.2444 167.808 41.7164 169.272 41.7164 171.072C41.7164 172.248 41.9684 173.292 42.4724 174.204C43.0004 175.116 43.7204 175.824 44.6324 176.328C45.5444 176.832 46.5884 177.084 47.7644 177.084ZM54.1004 162.072H58.1324V180H54.3884C54.3884 180 54.3644 179.772 54.3164 179.316C54.2684 178.86 54.2204 178.308 54.1724 177.66C54.1244 176.988 54.1004 176.352 54.1004 175.752V162.072ZM61.265 162.288H74.261V165.528H61.265V162.288ZM71.597 154.872H74.549V158.328H72.317C71.645 158.304 71.057 158.376 70.553 158.544C70.073 158.712 69.689 159.024 69.401 159.48C69.137 159.936 69.005 160.584 69.005 161.424V180H64.973V161.064C64.973 159.624 65.237 158.448 65.765 157.536C66.293 156.624 67.049 155.952 68.033 155.52C69.041 155.088 70.229 154.872 71.597 154.872ZM75.9954 162.072H88.6674V165.348H75.9954V162.072ZM80.3154 157.248H84.3474V180H80.3154V157.248ZM106.505 174.096H110.357C110.165 175.32 109.685 176.412 108.917 177.372C108.173 178.308 107.153 179.052 105.857 179.604C104.561 180.132 103.013 180.396 101.213 180.396C99.1729 180.396 97.3489 180.024 95.7409 179.28C94.1329 178.512 92.8729 177.432 91.9609 176.04C91.0489 174.648 90.5929 172.992 90.5929 171.072C90.5929 169.176 91.0369 167.52 91.9249 166.104C92.8129 164.688 94.0369 163.596 95.5969 162.828C97.1809 162.06 99.0049 161.676 101.069 161.676C103.205 161.676 104.981 162.06 106.397 162.828C107.837 163.572 108.905 164.7 109.601 166.212C110.297 167.7 110.585 169.584 110.465 171.864H94.6609C94.7809 172.872 95.1049 173.784 95.6329 174.6C96.1849 175.392 96.9289 176.016 97.8649 176.472C98.8009 176.904 99.8929 177.12 101.141 177.12C102.533 177.12 103.697 176.844 104.633 176.292C105.593 175.74 106.217 175.008 106.505 174.096ZM100.961 164.916C99.3289 164.916 97.9849 165.324 96.9289 166.14C95.8729 166.932 95.1889 167.952 94.8769 169.2H106.433C106.337 167.856 105.797 166.812 104.813 166.068C103.829 165.3 102.545 164.916 100.961 164.916ZM122.021 180.396C120.365 180.396 118.853 180 117.485 179.208C116.141 178.416 115.073 177.324 114.281 175.932C113.489 174.516 113.093 172.896 113.093 171.072C113.093 169.2 113.477 167.568 114.245 166.176C115.037 164.76 116.093 163.656 117.413 162.864C118.757 162.072 120.293 161.676 122.021 161.676C123.533 161.676 124.805 161.928 125.837 162.432C126.869 162.912 127.685 163.584 128.285 164.448C128.885 165.288 129.317 166.272 129.581 167.4C129.869 168.528 130.013 169.752 130.013 171.072C130.013 172.056 129.869 173.1 129.581 174.204C129.293 175.284 128.837 176.292 128.213 177.228C127.613 178.164 126.797 178.932 125.765 179.532C124.757 180.108 123.509 180.396 122.021 180.396ZM123.245 177.084C124.589 177.084 125.729 176.832 126.665 176.328C127.625 175.8 128.345 175.08 128.825 174.168C129.329 173.256 129.581 172.224 129.581 171.072C129.581 169.8 129.329 168.72 128.825 167.832C128.321 166.92 127.601 166.212 126.665 165.708C125.729 165.204 124.589 164.952 123.245 164.952C121.325 164.952 119.837 165.528 118.781 166.68C117.725 167.808 117.197 169.272 117.197 171.072C117.197 172.248 117.449 173.292 117.953 174.204C118.481 175.116 119.201 175.824 120.113 176.328C121.025 176.832 122.069 177.084 123.245 177.084ZM129.581 154.872H133.613V180H129.869C129.821 179.448 129.761 178.764 129.689 177.948C129.617 177.132 129.581 176.4 129.581 175.752V154.872Z" fill="white"/>
<path d="M170.616 176.976L169.428 176.94L174.648 162.072H179.04L172.056 180H168.276L162.696 165.06H163.956L158.232 180H154.452L147.612 162.072H152.004L157.08 176.976H155.892L161.004 162.072H165.684L170.616 176.976ZM186.607 154.476V158.328H181.819V154.476H186.607ZM182.179 162.072H186.211V180H182.179V162.072ZM189.738 162.072H202.41V165.348H189.738V162.072ZM194.058 157.248H198.09V180H194.058V157.248ZM220.6 180V169.632C220.6 168.672 220.432 167.88 220.096 167.256C219.784 166.608 219.292 166.116 218.62 165.78C217.948 165.444 217.06 165.276 215.956 165.276C214.852 165.276 213.844 165.516 212.932 165.996C212.02 166.452 211.276 167.064 210.7 167.832C210.124 168.6 209.788 169.452 209.692 170.388L209.656 168.372C209.776 167.508 210.04 166.68 210.448 165.888C210.856 165.072 211.396 164.352 212.068 163.728C212.74 163.104 213.532 162.612 214.444 162.252C215.356 161.868 216.364 161.676 217.468 161.676C218.5 161.676 219.448 161.82 220.312 162.108C221.2 162.396 221.956 162.828 222.58 163.404C223.228 163.956 223.72 164.652 224.056 165.492C224.416 166.308 224.596 167.256 224.596 168.336V180H220.6ZM205.912 180V154.872H209.908V180H205.912Z" fill="white"/>
<path d="M250.752 180.396C249.288 180.396 248.04 180.108 247.008 179.532C246 178.956 245.184 178.2 244.56 177.264C243.96 176.304 243.516 175.284 243.228 174.204C242.94 173.1 242.796 172.056 242.796 171.072C242.796 169.752 242.928 168.528 243.192 167.4C243.48 166.272 243.924 165.288 244.524 164.448C245.148 163.584 245.964 162.912 246.972 162.432C248.004 161.928 249.264 161.676 250.752 161.676C252.432 161.676 253.944 162.084 255.288 162.9C256.632 163.692 257.7 164.796 258.492 166.212C259.284 167.604 259.68 169.224 259.68 171.072C259.68 172.92 259.272 174.552 258.456 175.968C257.664 177.36 256.596 178.452 255.252 179.244C253.908 180.012 252.408 180.396 250.752 180.396ZM249.564 177.084C250.764 177.084 251.82 176.832 252.732 176.328C253.644 175.824 254.352 175.116 254.856 174.204C255.36 173.292 255.612 172.248 255.612 171.072C255.612 169.272 255.084 167.808 254.028 166.68C252.972 165.528 251.484 164.952 249.564 164.952C248.364 164.952 247.284 165.204 246.324 165.708C245.364 166.212 244.608 166.92 244.056 167.832C243.504 168.72 243.228 169.8 243.228 171.072C243.228 172.224 243.48 173.256 243.984 174.168C244.488 175.08 245.208 175.8 246.144 176.328C247.08 176.832 248.22 177.084 249.564 177.084ZM239.232 162.072H243.048L243.228 166.464V187.2H239.232V162.072ZM271.236 180.396C269.604 180.396 268.104 180 266.736 179.208C265.392 178.416 264.312 177.324 263.496 175.932C262.704 174.516 262.308 172.896 262.308 171.072C262.308 169.2 262.716 167.568 263.532 166.176C264.348 164.76 265.452 163.656 266.844 162.864C268.236 162.072 269.796 161.676 271.524 161.676C273.444 161.676 274.968 162.096 276.096 162.936C277.224 163.776 278.028 164.904 278.508 166.32C278.988 167.736 279.228 169.32 279.228 171.072C279.228 172.056 279.084 173.1 278.796 174.204C278.508 175.284 278.052 176.292 277.428 177.228C276.828 178.164 276.012 178.932 274.98 179.532C273.972 180.108 272.724 180.396 271.236 180.396ZM272.46 177.084C273.804 177.084 274.944 176.832 275.88 176.328C276.84 175.8 277.56 175.08 278.04 174.168C278.544 173.256 278.796 172.224 278.796 171.072C278.796 169.8 278.544 168.72 278.04 167.832C277.536 166.92 276.816 166.224 275.88 165.744C274.944 165.24 273.804 164.988 272.46 164.988C270.54 164.988 269.052 165.552 267.996 166.68C266.94 167.808 266.412 169.272 266.412 171.072C266.412 172.248 266.664 173.292 267.168 174.204C267.696 175.116 268.416 175.824 269.328 176.328C270.24 176.832 271.284 177.084 272.46 177.084ZM278.796 162.072H282.828V180H279.084C279.084 180 279.06 179.772 279.012 179.316C278.964 178.86 278.916 178.308 278.868 177.66C278.82 176.988 278.796 176.352 278.796 175.752V162.072ZM286.428 174.096H290.136C290.328 175.008 290.82 175.752 291.612 176.328C292.404 176.88 293.472 177.156 294.816 177.156C295.68 177.156 296.352 177.06 296.832 176.868C297.336 176.676 297.684 176.412 297.876 176.076C298.092 175.74 298.2 175.356 298.2 174.924C298.2 174.396 298.044 173.988 297.732 173.7C297.444 173.412 297.012 173.172 296.436 172.98C295.86 172.788 295.14 172.62 294.276 172.476C293.388 172.26 292.512 172.02 291.648 171.756C290.784 171.492 290.004 171.168 289.308 170.784C288.612 170.376 288.06 169.872 287.652 169.272C287.268 168.648 287.076 167.892 287.076 167.004C287.076 166.188 287.256 165.456 287.616 164.808C288 164.136 288.528 163.572 289.2 163.116C289.872 162.66 290.664 162.312 291.576 162.072C292.488 161.808 293.484 161.676 294.564 161.676C296.124 161.676 297.42 161.928 298.452 162.432C299.508 162.936 300.3 163.644 300.828 164.556C301.38 165.468 301.656 166.512 301.656 167.688H298.128C297.936 166.728 297.564 166.032 297.012 165.6C296.46 165.168 295.632 164.952 294.528 164.952C293.424 164.952 292.584 165.144 292.008 165.528C291.432 165.912 291.144 166.44 291.144 167.112C291.144 167.616 291.324 168.024 291.684 168.336C292.068 168.624 292.608 168.876 293.304 169.092C294 169.308 294.816 169.524 295.752 169.74C296.616 169.98 297.432 170.232 298.2 170.496C298.968 170.736 299.652 171.048 300.252 171.432C300.876 171.792 301.368 172.272 301.728 172.872C302.088 173.472 302.268 174.216 302.268 175.104C302.268 176.208 301.968 177.156 301.368 177.948C300.792 178.74 299.952 179.352 298.848 179.784C297.744 180.192 296.412 180.396 294.852 180.396C293.484 180.396 292.296 180.24 291.288 179.928C290.304 179.616 289.476 179.208 288.804 178.704C288.156 178.2 287.652 177.66 287.292 177.084C286.932 176.508 286.68 175.956 286.536 175.428C286.416 174.9 286.38 174.456 286.428 174.096ZM305.096 174.096H308.804C308.996 175.008 309.488 175.752 310.28 176.328C311.072 176.88 312.14 177.156 313.484 177.156C314.348 177.156 315.02 177.06 315.5 176.868C316.004 176.676 316.352 176.412 316.544 176.076C316.76 175.74 316.868 175.356 316.868 174.924C316.868 174.396 316.712 173.988 316.4 173.7C316.112 173.412 315.68 173.172 315.104 172.98C314.528 172.788 313.808 172.62 312.944 172.476C312.056 172.26 311.18 172.02 310.316 171.756C309.452 171.492 308.672 171.168 307.976 170.784C307.28 170.376 306.728 169.872 306.32 169.272C305.936 168.648 305.744 167.892 305.744 167.004C305.744 166.188 305.924 165.456 306.284 164.808C306.668 164.136 307.196 163.572 307.868 163.116C308.54 162.66 309.332 162.312 310.244 162.072C311.156 161.808 312.152 161.676 313.232 161.676C314.792 161.676 316.088 161.928 317.12 162.432C318.176 162.936 318.968 163.644 319.496 164.556C320.048 165.468 320.324 166.512 320.324 167.688H316.796C316.604 166.728 316.232 166.032 315.68 165.6C315.128 165.168 314.3 164.952 313.196 164.952C312.092 164.952 311.252 165.144 310.676 165.528C310.1 165.912 309.812 166.44 309.812 167.112C309.812 167.616 309.992 168.024 310.352 168.336C310.736 168.624 311.276 168.876 311.972 169.092C312.668 169.308 313.484 169.524 314.42 169.74C315.284 169.98 316.1 170.232 316.868 170.496C317.636 170.736 318.32 171.048 318.92 171.432C319.544 171.792 320.036 172.272 320.396 172.872C320.756 173.472 320.936 174.216 320.936 175.104C320.936 176.208 320.636 177.156 320.036 177.948C319.46 178.74 318.62 179.352 317.516 179.784C316.412 180.192 315.08 180.396 313.52 180.396C312.152 180.396 310.964 180.24 309.956 179.928C308.972 179.616 308.144 179.208 307.472 178.704C306.824 178.2 306.32 177.66 305.96 177.084C305.6 176.508 305.348 175.956 305.204 175.428C305.084 174.9 305.048 174.456 305.096 174.096ZM329.236 154.476V158.328H324.448V154.476H329.236ZM324.808 162.072H328.84V180H324.808V162.072ZM343.167 180.396C341.175 180.396 339.387 180.036 337.803 179.316C336.219 178.596 334.971 177.54 334.059 176.148C333.147 174.756 332.691 173.064 332.691 171.072C332.691 169.104 333.147 167.424 334.059 166.032C334.971 164.616 336.219 163.536 337.803 162.792C339.387 162.048 341.175 161.676 343.167 161.676C345.159 161.676 346.935 162.048 348.495 162.792C350.055 163.536 351.279 164.616 352.167 166.032C353.079 167.424 353.535 169.104 353.535 171.072C353.535 173.064 353.079 174.756 352.167 176.148C351.279 177.54 350.055 178.596 348.495 179.316C346.935 180.036 345.159 180.396 343.167 180.396ZM343.167 177.12C344.319 177.12 345.375 176.892 346.335 176.436C347.295 175.98 348.051 175.296 348.603 174.384C349.179 173.472 349.467 172.368 349.467 171.072C349.467 169.776 349.179 168.672 348.603 167.76C348.051 166.848 347.295 166.152 346.335 165.672C345.399 165.168 344.343 164.916 343.167 164.916C341.991 164.916 340.923 165.156 339.963 165.636C339.003 166.116 338.223 166.812 337.623 167.724C337.047 168.636 336.759 169.752 336.759 171.072C336.759 172.368 337.047 173.472 337.623 174.384C338.199 175.296 338.967 175.98 339.927 176.436C340.911 176.892 341.991 177.12 343.167 177.12ZM357.111 162.072H361.107V180H357.111V162.072ZM368.667 161.676C369.699 161.676 370.647 161.82 371.511 162.108C372.399 162.396 373.155 162.84 373.779 163.44C374.427 164.016 374.919 164.736 375.255 165.6C375.615 166.464 375.795 167.484 375.795 168.66V180H371.799V169.452C371.799 167.988 371.439 166.908 370.719 166.212C370.023 165.492 368.919 165.132 367.407 165.132C366.255 165.132 365.199 165.384 364.239 165.888C363.303 166.368 362.535 167.004 361.935 167.796C361.335 168.564 360.987 169.416 360.891 170.352L360.855 168.408C360.975 167.52 361.239 166.68 361.647 165.888C362.055 165.072 362.595 164.352 363.267 163.728C363.939 163.08 364.731 162.576 365.643 162.216C366.555 161.856 367.563 161.676 368.667 161.676Z" fill="white"/>
<path d="M398.224 180.396C396.592 180.396 395.092 180 393.724 179.208C392.38 178.416 391.3 177.324 390.484 175.932C389.692 174.516 389.296 172.896 389.296 171.072C389.296 169.2 389.704 167.568 390.52 166.176C391.336 164.76 392.44 163.656 393.832 162.864C395.224 162.072 396.784 161.676 398.512 161.676C400.432 161.676 401.956 162.096 403.084 162.936C404.212 163.776 405.016 164.904 405.496 166.32C405.976 167.736 406.216 169.32 406.216 171.072C406.216 172.056 406.072 173.1 405.784 174.204C405.496 175.284 405.04 176.292 404.416 177.228C403.816 178.164 403 178.932 401.968 179.532C400.96 180.108 399.712 180.396 398.224 180.396ZM399.448 177.084C400.792 177.084 401.932 176.832 402.868 176.328C403.828 175.8 404.548 175.08 405.028 174.168C405.532 173.256 405.784 172.224 405.784 171.072C405.784 169.8 405.532 168.72 405.028 167.832C404.524 166.92 403.804 166.224 402.868 165.744C401.932 165.24 400.792 164.988 399.448 164.988C397.528 164.988 396.04 165.552 394.984 166.68C393.928 167.808 393.4 169.272 393.4 171.072C393.4 172.248 393.652 173.292 394.156 174.204C394.684 175.116 395.404 175.824 396.316 176.328C397.228 176.832 398.272 177.084 399.448 177.084ZM405.784 162.072H409.816V180H406.072C406.072 180 406.048 179.772 406 179.316C405.952 178.86 405.904 178.308 405.856 177.66C405.808 176.988 405.784 176.352 405.784 175.752V162.072ZM414.209 162.072H418.205V180H414.209V162.072ZM425.765 161.676C426.797 161.676 427.745 161.82 428.609 162.108C429.497 162.396 430.253 162.84 430.877 163.44C431.525 164.016 432.017 164.736 432.353 165.6C432.713 166.464 432.893 167.484 432.893 168.66V180H428.897V169.452C428.897 167.988 428.537 166.908 427.817 166.212C427.121 165.492 426.017 165.132 424.505 165.132C423.353 165.132 422.297 165.384 421.337 165.888C420.401 166.368 419.633 167.004 419.033 167.796C418.433 168.564 418.085 169.416 417.989 170.352L417.953 168.408C418.073 167.52 418.337 166.68 418.745 165.888C419.153 165.072 419.693 164.352 420.365 163.728C421.037 163.08 421.829 162.576 422.741 162.216C423.653 161.856 424.661 161.676 425.765 161.676ZM445.298 180.396C443.642 180.396 442.13 180 440.762 179.208C439.418 178.416 438.35 177.324 437.558 175.932C436.766 174.516 436.37 172.896 436.37 171.072C436.37 169.2 436.754 167.568 437.522 166.176C438.314 164.76 439.37 163.656 440.69 162.864C442.034 162.072 443.57 161.676 445.298 161.676C446.81 161.676 448.082 161.928 449.114 162.432C450.146 162.912 450.962 163.584 451.562 164.448C452.162 165.288 452.594 166.272 452.858 167.4C453.146 168.528 453.29 169.752 453.29 171.072C453.29 172.056 453.146 173.1 452.858 174.204C452.57 175.284 452.114 176.292 451.49 177.228C450.89 178.164 450.074 178.932 449.042 179.532C448.034 180.108 446.786 180.396 445.298 180.396ZM446.522 177.084C447.866 177.084 449.006 176.832 449.942 176.328C450.902 175.8 451.622 175.08 452.102 174.168C452.606 173.256 452.858 172.224 452.858 171.072C452.858 169.8 452.606 168.72 452.102 167.832C451.598 166.92 450.878 166.212 449.942 165.708C449.006 165.204 447.866 164.952 446.522 164.952C444.602 164.952 443.114 165.528 442.058 166.68C441.002 167.808 440.474 169.272 440.474 171.072C440.474 172.248 440.726 173.292 441.23 174.204C441.758 175.116 442.478 175.824 443.39 176.328C444.302 176.832 445.346 177.084 446.522 177.084ZM452.858 154.872H456.89V180H453.146C453.098 179.448 453.038 178.764 452.966 177.948C452.894 177.132 452.858 176.4 452.858 175.752V154.872Z" fill="white"/>
<path d="M13.752 229.396C12.288 229.396 11.04 229.108 10.008 228.532C9 227.956 8.184 227.2 7.56 226.264C6.96 225.304 6.516 224.284 6.228 223.204C5.94 222.1 5.796 221.056 5.796 220.072C5.796 218.752 5.928 217.528 6.192 216.4C6.48 215.272 6.924 214.288 7.524 213.448C8.148 212.584 8.964 211.912 9.972 211.432C11.004 210.928 12.264 210.676 13.752 210.676C15.432 210.676 16.944 211.084 18.288 211.9C19.632 212.692 20.7 213.796 21.492 215.212C22.284 216.604 22.68 218.224 22.68 220.072C22.68 221.92 22.272 223.552 21.456 224.968C20.664 226.36 19.596 227.452 18.252 228.244C16.908 229.012 15.408 229.396 13.752 229.396ZM12.564 226.084C13.764 226.084 14.82 225.832 15.732 225.328C16.644 224.824 17.352 224.116 17.856 223.204C18.36 222.292 18.612 221.248 18.612 220.072C18.612 218.272 18.084 216.808 17.028 215.68C15.972 214.528 14.484 213.952 12.564 213.952C11.364 213.952 10.284 214.204 9.324 214.708C8.364 215.212 7.608 215.92 7.056 216.832C6.504 217.72 6.228 218.8 6.228 220.072C6.228 221.224 6.48 222.256 6.984 223.168C7.488 224.08 8.208 224.8 9.144 225.328C10.08 225.832 11.22 226.084 12.564 226.084ZM2.232 211.072H6.048L6.228 215.464V236.2H2.232V211.072ZM26.2437 211.072H30.2397V229H26.2437V211.072ZM36.7197 214.492C35.4237 214.492 34.3077 214.768 33.3717 215.32C32.4597 215.872 31.7277 216.544 31.1757 217.336C30.6237 218.128 30.2397 218.896 30.0237 219.64L29.9877 217.624C30.0117 217.36 30.0957 216.964 30.2397 216.436C30.3837 215.884 30.5997 215.284 30.8877 214.636C31.1997 213.988 31.6077 213.364 32.1117 212.764C32.6397 212.14 33.2757 211.636 34.0197 211.252C34.7877 210.868 35.6877 210.676 36.7197 210.676V214.492ZM54.7197 223.096H58.5717C58.3797 224.32 57.8997 225.412 57.1317 226.372C56.3877 227.308 55.3677 228.052 54.0717 228.604C52.7757 229.132 51.2277 229.396 49.4277 229.396C47.3877 229.396 45.5637 229.024 43.9557 228.28C42.3477 227.512 41.0877 226.432 40.1757 225.04C39.2637 223.648 38.8077 221.992 38.8077 220.072C38.8077 218.176 39.2517 216.52 40.1397 215.104C41.0277 213.688 42.2517 212.596 43.8117 211.828C45.3957 211.06 47.2197 210.676 49.2837 210.676C51.4197 210.676 53.1957 211.06 54.6117 211.828C56.0517 212.572 57.1197 213.7 57.8157 215.212C58.5117 216.7 58.7997 218.584 58.6797 220.864H42.8757C42.9957 221.872 43.3197 222.784 43.8477 223.6C44.3997 224.392 45.1437 225.016 46.0797 225.472C47.0157 225.904 48.1077 226.12 49.3557 226.12C50.7477 226.12 51.9117 225.844 52.8477 225.292C53.8077 224.74 54.4317 224.008 54.7197 223.096ZM49.1757 213.916C47.5437 213.916 46.1997 214.324 45.1437 215.14C44.0877 215.932 43.4037 216.952 43.0917 218.2H54.6477C54.5517 216.856 54.0117 215.812 53.0277 215.068C52.0437 214.3 50.7597 213.916 49.1757 213.916ZM81.5397 222.052C81.3957 223.588 80.9037 224.908 80.0637 226.012C79.2237 227.116 78.0957 227.956 76.6797 228.532C75.2877 229.108 73.6797 229.396 71.8557 229.396C69.8877 229.396 68.0997 229.036 66.4917 228.316C64.9077 227.596 63.6477 226.54 62.7117 225.148C61.7757 223.756 61.3077 222.064 61.3077 220.072C61.3077 218.08 61.7757 216.388 62.7117 214.996C63.6477 213.604 64.9077 212.536 66.4917 211.792C68.0997 211.048 69.8877 210.676 71.8557 210.676C73.6797 210.676 75.2877 210.976 76.6797 211.576C78.0717 212.152 79.1877 212.98 80.0277 214.06C80.8677 215.14 81.3597 216.448 81.5037 217.984H77.8317C77.4237 216.712 76.6797 215.728 75.5997 215.032C74.5437 214.312 73.2957 213.952 71.8557 213.952C70.6797 213.952 69.5997 214.192 68.6157 214.672C67.6317 215.128 66.8397 215.812 66.2397 216.724C65.6637 217.612 65.3757 218.728 65.3757 220.072C65.3757 221.392 65.6637 222.508 66.2397 223.42C66.8397 224.332 67.6317 225.016 68.6157 225.472C69.5997 225.904 70.6797 226.12 71.8557 226.12C73.4397 226.12 74.7357 225.772 75.7437 225.076C76.7757 224.356 77.4837 223.348 77.8677 222.052H81.5397ZM89.7401 203.476V207.328H84.9521V203.476H89.7401ZM85.3121 211.072H89.3441V229H85.3121V211.072ZM93.3384 223.096H97.0464C97.2384 224.008 97.7304 224.752 98.5224 225.328C99.3144 225.88 100.382 226.156 101.726 226.156C102.59 226.156 103.262 226.06 103.742 225.868C104.246 225.676 104.594 225.412 104.786 225.076C105.002 224.74 105.11 224.356 105.11 223.924C105.11 223.396 104.954 222.988 104.642 222.7C104.354 222.412 103.922 222.172 103.346 221.98C102.77 221.788 102.05 221.62 101.186 221.476C100.298 221.26 99.4224 221.02 98.5584 220.756C97.6944 220.492 96.9144 220.168 96.2184 219.784C95.5224 219.376 94.9704 218.872 94.5624 218.272C94.1784 217.648 93.9864 216.892 93.9864 216.004C93.9864 215.188 94.1664 214.456 94.5264 213.808C94.9104 213.136 95.4384 212.572 96.1104 212.116C96.7824 211.66 97.5744 211.312 98.4864 211.072C99.3984 210.808 100.394 210.676 101.474 210.676C103.034 210.676 104.33 210.928 105.362 211.432C106.418 211.936 107.21 212.644 107.738 213.556C108.29 214.468 108.566 215.512 108.566 216.688H105.038C104.846 215.728 104.474 215.032 103.922 214.6C103.37 214.168 102.542 213.952 101.438 213.952C100.334 213.952 99.4944 214.144 98.9184 214.528C98.3424 214.912 98.0544 215.44 98.0544 216.112C98.0544 216.616 98.2344 217.024 98.5944 217.336C98.9784 217.624 99.5184 217.876 100.214 218.092C100.91 218.308 101.726 218.524 102.662 218.74C103.526 218.98 104.342 219.232 105.11 219.496C105.878 219.736 106.562 220.048 107.162 220.432C107.786 220.792 108.278 221.272 108.638 221.872C108.998 222.472 109.178 223.216 109.178 224.104C109.178 225.208 108.878 226.156 108.278 226.948C107.702 227.74 106.862 228.352 105.758 228.784C104.654 229.192 103.322 229.396 101.762 229.396C100.394 229.396 99.2064 229.24 98.1984 228.928C97.2144 228.616 96.3864 228.208 95.7144 227.704C95.0664 227.2 94.5624 226.66 94.2024 226.084C93.8424 225.508 93.5904 224.956 93.4464 224.428C93.3264 223.9 93.2904 223.456 93.3384 223.096ZM117.478 203.476V207.328H112.69V203.476H117.478ZM113.05 211.072H117.082V229H113.05V211.072ZM131.409 229.396C129.417 229.396 127.629 229.036 126.045 228.316C124.461 227.596 123.213 226.54 122.301 225.148C121.389 223.756 120.933 222.064 120.933 220.072C120.933 218.104 121.389 216.424 122.301 215.032C123.213 213.616 124.461 212.536 126.045 211.792C127.629 211.048 129.417 210.676 131.409 210.676C133.401 210.676 135.177 211.048 136.737 211.792C138.297 212.536 139.521 213.616 140.409 215.032C141.321 216.424 141.777 218.104 141.777 220.072C141.777 222.064 141.321 223.756 140.409 225.148C139.521 226.54 138.297 227.596 136.737 228.316C135.177 229.036 133.401 229.396 131.409 229.396ZM131.409 226.12C132.561 226.12 133.617 225.892 134.577 225.436C135.537 224.98 136.293 224.296 136.845 223.384C137.421 222.472 137.709 221.368 137.709 220.072C137.709 218.776 137.421 217.672 136.845 216.76C136.293 215.848 135.537 215.152 134.577 214.672C133.641 214.168 132.585 213.916 131.409 213.916C130.233 213.916 129.165 214.156 128.205 214.636C127.245 215.116 126.465 215.812 125.865 216.724C125.289 217.636 125.001 218.752 125.001 220.072C125.001 221.368 125.289 222.472 125.865 223.384C126.441 224.296 127.209 224.98 128.169 225.436C129.153 225.892 130.233 226.12 131.409 226.12ZM145.353 211.072H149.349V229H145.353V211.072ZM156.909 210.676C157.941 210.676 158.889 210.82 159.753 211.108C160.641 211.396 161.397 211.84 162.021 212.44C162.669 213.016 163.161 213.736 163.497 214.6C163.857 215.464 164.037 216.484 164.037 217.66V229H160.041V218.452C160.041 216.988 159.681 215.908 158.961 215.212C158.265 214.492 157.161 214.132 155.649 214.132C154.497 214.132 153.441 214.384 152.481 214.888C151.545 215.368 150.777 216.004 150.177 216.796C149.577 217.564 149.229 218.416 149.133 219.352L149.097 217.408C149.217 216.52 149.481 215.68 149.889 214.888C150.297 214.072 150.837 213.352 151.509 212.728C152.181 212.08 152.973 211.576 153.885 211.216C154.797 210.856 155.805 210.676 156.909 210.676Z" fill="white"/>
<path d="M174.02 225.112V229H169.232V225.112H174.02Z" fill="white"/>
<path d="M128.752 33.396C127.288 33.396 126.04 33.108 125.008 32.532C124 31.956 123.184 31.2 122.56 30.264C121.96 29.304 121.516 28.284 121.228 27.204C120.94 26.1 120.796 25.056 120.796 24.072C120.796 22.752 120.928 21.528 121.192 20.4C121.48 19.272 121.924 18.288 122.524 17.448C123.148 16.584 123.964 15.912 124.972 15.432C126.004 14.928 127.264 14.676 128.752 14.676C130.432 14.676 131.944 15.084 133.288 15.9C134.632 16.692 135.7 17.796 136.492 19.212C137.284 20.604 137.68 22.224 137.68 24.072C137.68 25.92 137.272 27.552 136.456 28.968C135.664 30.36 134.596 31.452 133.252 32.244C131.908 33.012 130.408 33.396 128.752 33.396ZM127.564 30.084C128.764 30.084 129.82 29.832 130.732 29.328C131.644 28.824 132.352 28.116 132.856 27.204C133.36 26.292 133.612 25.248 133.612 24.072C133.612 22.272 133.084 20.808 132.028 19.68C130.972 18.528 129.484 17.952 127.564 17.952C126.364 17.952 125.284 18.204 124.324 18.708C123.364 19.212 122.608 19.92 122.056 20.832C121.504 21.72 121.228 22.8 121.228 24.072C121.228 25.224 121.48 26.256 121.984 27.168C122.488 28.08 123.208 28.8 124.144 29.328C125.08 29.832 126.22 30.084 127.564 30.084ZM117.232 15.072H121.048L121.228 19.464V40.2H117.232V15.072ZM145.924 7.476V11.328H141.136V7.476H145.924ZM141.496 15.072H145.528V33H141.496V15.072ZM168.53 15.072L160.106 24.972L153.77 33H148.874L157.73 22.56L163.67 15.072H168.53ZM148.874 15.072H153.806L160.142 22.56L168.998 33H164.102L157.55 25.044L148.874 15.072ZM186.278 27.096H190.13C189.938 28.32 189.458 29.412 188.69 30.372C187.946 31.308 186.926 32.052 185.63 32.604C184.334 33.132 182.786 33.396 180.986 33.396C178.946 33.396 177.122 33.024 175.514 32.28C173.906 31.512 172.646 30.432 171.734 29.04C170.822 27.648 170.366 25.992 170.366 24.072C170.366 22.176 170.81 20.52 171.698 19.104C172.586 17.688 173.81 16.596 175.37 15.828C176.954 15.06 178.778 14.676 180.842 14.676C182.978 14.676 184.754 15.06 186.17 15.828C187.61 16.572 188.678 17.7 189.374 19.212C190.07 20.7 190.358 22.584 190.238 24.864H174.434C174.554 25.872 174.878 26.784 175.406 27.6C175.958 28.392 176.702 29.016 177.638 29.472C178.574 29.904 179.666 30.12 180.914 30.12C182.306 30.12 183.47 29.844 184.406 29.292C185.366 28.74 185.99 28.008 186.278 27.096ZM180.734 17.916C179.102 17.916 177.758 18.324 176.702 19.14C175.646 19.932 174.962 20.952 174.65 22.2H186.206C186.11 20.856 185.57 19.812 184.586 19.068C183.602 18.3 182.318 17.916 180.734 17.916ZM194.162 7.872H198.158V33H194.162V7.872Z" fill="white"/>
<path d="M211.972 15.072H224.644V18.348H211.972V15.072ZM216.292 10.248H220.324V33H216.292V10.248ZM242.481 27.096H246.333C246.141 28.32 245.661 29.412 244.893 30.372C244.149 31.308 243.129 32.052 241.833 32.604C240.537 33.132 238.989 33.396 237.189 33.396C235.149 33.396 233.325 33.024 231.717 32.28C230.109 31.512 228.849 30.432 227.937 29.04C227.025 27.648 226.569 25.992 226.569 24.072C226.569 22.176 227.013 20.52 227.901 19.104C228.789 17.688 230.013 16.596 231.573 15.828C233.157 15.06 234.981 14.676 237.045 14.676C239.181 14.676 240.957 15.06 242.373 15.828C243.813 16.572 244.881 17.7 245.577 19.212C246.273 20.7 246.561 22.584 246.441 24.864H230.637C230.757 25.872 231.081 26.784 231.609 27.6C232.161 28.392 232.905 29.016 233.841 29.472C234.777 29.904 235.869 30.12 237.117 30.12C238.509 30.12 239.673 29.844 240.609 29.292C241.569 28.74 242.193 28.008 242.481 27.096ZM236.937 17.916C235.305 17.916 233.961 18.324 232.905 19.14C231.849 19.932 231.165 20.952 230.853 22.2H242.409C242.313 20.856 241.773 19.812 240.789 19.068C239.805 18.3 238.521 17.916 236.937 17.916ZM250.365 7.872H254.361V33H250.365V7.872ZM259.576 7.872H263.572V33H259.576V7.872ZM267.635 27.096H271.343C271.535 28.008 272.027 28.752 272.819 29.328C273.611 29.88 274.679 30.156 276.023 30.156C276.887 30.156 277.559 30.06 278.039 29.868C278.543 29.676 278.891 29.412 279.083 29.076C279.299 28.74 279.407 28.356 279.407 27.924C279.407 27.396 279.251 26.988 278.939 26.7C278.651 26.412 278.219 26.172 277.643 25.98C277.067 25.788 276.347 25.62 275.483 25.476C274.595 25.26 273.719 25.02 272.855 24.756C271.991 24.492 271.211 24.168 270.515 23.784C269.819 23.376 269.267 22.872 268.859 22.272C268.475 21.648 268.283 20.892 268.283 20.004C268.283 19.188 268.463 18.456 268.823 17.808C269.207 17.136 269.735 16.572 270.407 16.116C271.079 15.66 271.871 15.312 272.783 15.072C273.695 14.808 274.691 14.676 275.771 14.676C277.331 14.676 278.627 14.928 279.659 15.432C280.715 15.936 281.507 16.644 282.035 17.556C282.587 18.468 282.863 19.512 282.863 20.688H279.335C279.143 19.728 278.771 19.032 278.219 18.6C277.667 18.168 276.839 17.952 275.735 17.952C274.631 17.952 273.791 18.144 273.215 18.528C272.639 18.912 272.351 19.44 272.351 20.112C272.351 20.616 272.531 21.024 272.891 21.336C273.275 21.624 273.815 21.876 274.511 22.092C275.207 22.308 276.023 22.524 276.959 22.74C277.823 22.98 278.639 23.232 279.407 23.496C280.175 23.736 280.859 24.048 281.459 24.432C282.083 24.792 282.575 25.272 282.935 25.872C283.295 26.472 283.475 27.216 283.475 28.104C283.475 29.208 283.175 30.156 282.575 30.948C281.999 31.74 281.159 32.352 280.055 32.784C278.951 33.192 277.619 33.396 276.059 33.396C274.691 33.396 273.503 33.24 272.495 32.928C271.511 32.616 270.683 32.208 270.011 31.704C269.363 31.2 268.859 30.66 268.499 30.084C268.139 29.508 267.887 28.956 267.743 28.428C267.623 27.9 267.587 27.456 267.635 27.096Z" fill="white"/>
<path d="M305.224 33.396C303.592 33.396 302.092 33 300.724 32.208C299.38 31.416 298.3 30.324 297.484 28.932C296.692 27.516 296.296 25.896 296.296 24.072C296.296 22.2 296.704 20.568 297.52 19.176C298.336 17.76 299.44 16.656 300.832 15.864C302.224 15.072 303.784 14.676 305.512 14.676C307.432 14.676 308.956 15.096 310.084 15.936C311.212 16.776 312.016 17.904 312.496 19.32C312.976 20.736 313.216 22.32 313.216 24.072C313.216 25.056 313.072 26.1 312.784 27.204C312.496 28.284 312.04 29.292 311.416 30.228C310.816 31.164 310 31.932 308.968 32.532C307.96 33.108 306.712 33.396 305.224 33.396ZM306.448 30.084C307.792 30.084 308.932 29.832 309.868 29.328C310.828 28.8 311.548 28.08 312.028 27.168C312.532 26.256 312.784 25.224 312.784 24.072C312.784 22.8 312.532 21.72 312.028 20.832C311.524 19.92 310.804 19.224 309.868 18.744C308.932 18.24 307.792 17.988 306.448 17.988C304.528 17.988 303.04 18.552 301.984 19.68C300.928 20.808 300.4 22.272 300.4 24.072C300.4 25.248 300.652 26.292 301.156 27.204C301.684 28.116 302.404 28.824 303.316 29.328C304.228 29.832 305.272 30.084 306.448 30.084ZM312.784 15.072H316.816V33H313.072C313.072 33 313.048 32.772 313 32.316C312.952 31.86 312.904 31.308 312.856 30.66C312.808 29.988 312.784 29.352 312.784 28.752V15.072Z" fill="white"/>
<path d="M330.44 27.096H334.148C334.34 28.008 334.832 28.752 335.624 29.328C336.416 29.88 337.484 30.156 338.828 30.156C339.692 30.156 340.364 30.06 340.844 29.868C341.348 29.676 341.696 29.412 341.888 29.076C342.104 28.74 342.212 28.356 342.212 27.924C342.212 27.396 342.056 26.988 341.744 26.7C341.456 26.412 341.024 26.172 340.448 25.98C339.872 25.788 339.152 25.62 338.288 25.476C337.4 25.26 336.524 25.02 335.66 24.756C334.796 24.492 334.016 24.168 333.32 23.784C332.624 23.376 332.072 22.872 331.664 22.272C331.28 21.648 331.088 20.892 331.088 20.004C331.088 19.188 331.268 18.456 331.628 17.808C332.012 17.136 332.54 16.572 333.212 16.116C333.884 15.66 334.676 15.312 335.588 15.072C336.5 14.808 337.496 14.676 338.576 14.676C340.136 14.676 341.432 14.928 342.464 15.432C343.52 15.936 344.312 16.644 344.84 17.556C345.392 18.468 345.668 19.512 345.668 20.688H342.14C341.948 19.728 341.576 19.032 341.024 18.6C340.472 18.168 339.644 17.952 338.54 17.952C337.436 17.952 336.596 18.144 336.02 18.528C335.444 18.912 335.156 19.44 335.156 20.112C335.156 20.616 335.336 21.024 335.696 21.336C336.08 21.624 336.62 21.876 337.316 22.092C338.012 22.308 338.828 22.524 339.764 22.74C340.628 22.98 341.444 23.232 342.212 23.496C342.98 23.736 343.664 24.048 344.264 24.432C344.888 24.792 345.38 25.272 345.74 25.872C346.1 26.472 346.28 27.216 346.28 28.104C346.28 29.208 345.98 30.156 345.38 30.948C344.804 31.74 343.964 32.352 342.86 32.784C341.756 33.192 340.424 33.396 338.864 33.396C337.496 33.396 336.308 33.24 335.3 32.928C334.316 32.616 333.488 32.208 332.816 31.704C332.168 31.2 331.664 30.66 331.304 30.084C330.944 29.508 330.692 28.956 330.548 28.428C330.428 27.9 330.392 27.456 330.44 27.096ZM348.64 15.072H361.312V18.348H348.64V15.072ZM352.96 10.248H356.992V33H352.96V10.248ZM373.713 33.396C371.721 33.396 369.933 33.036 368.349 32.316C366.765 31.596 365.517 30.54 364.605 29.148C363.693 27.756 363.237 26.064 363.237 24.072C363.237 22.104 363.693 20.424 364.605 19.032C365.517 17.616 366.765 16.536 368.349 15.792C369.933 15.048 371.721 14.676 373.713 14.676C375.705 14.676 377.481 15.048 379.041 15.792C380.601 16.536 381.825 17.616 382.713 19.032C383.625 20.424 384.081 22.104 384.081 24.072C384.081 26.064 383.625 27.756 382.713 29.148C381.825 30.54 380.601 31.596 379.041 32.316C377.481 33.036 375.705 33.396 373.713 33.396ZM373.713 30.12C374.865 30.12 375.921 29.892 376.881 29.436C377.841 28.98 378.597 28.296 379.149 27.384C379.725 26.472 380.013 25.368 380.013 24.072C380.013 22.776 379.725 21.672 379.149 20.76C378.597 19.848 377.841 19.152 376.881 18.672C375.945 18.168 374.889 17.916 373.713 17.916C372.537 17.916 371.469 18.156 370.509 18.636C369.549 19.116 368.769 19.812 368.169 20.724C367.593 21.636 367.305 22.752 367.305 24.072C367.305 25.368 367.593 26.472 368.169 27.384C368.745 28.296 369.513 28.98 370.473 29.436C371.457 29.892 372.537 30.12 373.713 30.12ZM387.658 15.072H391.654V33H387.658V15.072ZM398.134 18.492C396.838 18.492 395.722 18.768 394.786 19.32C393.874 19.872 393.142 20.544 392.59 21.336C392.038 22.128 391.654 22.896 391.438 23.64L391.402 21.624C391.426 21.36 391.51 20.964 391.654 20.436C391.798 19.884 392.014 19.284 392.302 18.636C392.614 17.988 393.022 17.364 393.526 16.764C394.054 16.14 394.69 15.636 395.434 15.252C396.202 14.868 397.102 14.676 398.134 14.676V18.492ZM399.538 15.072H403.822L411.058 32.28L407.602 33L399.538 15.072ZM419.518 15.072L407.998 40.2H403.786L408.718 30.372L415.234 15.072H419.518ZM419.797 38.256L419.077 37.212C419.461 36.636 419.809 36.012 420.121 35.34C420.457 34.692 420.637 34.044 420.661 33.396L418.753 33V29.112H423.685V31.884C423.685 33.516 423.313 34.824 422.569 35.808C421.849 36.816 420.925 37.632 419.797 38.256Z" fill="white"/>
<path d="M446.224 33.396C444.592 33.396 443.092 33 441.724 32.208C440.38 31.416 439.3 30.324 438.484 28.932C437.692 27.516 437.296 25.896 437.296 24.072C437.296 22.2 437.704 20.568 438.52 19.176C439.336 17.76 440.44 16.656 441.832 15.864C443.224 15.072 444.784 14.676 446.512 14.676C448.432 14.676 449.956 15.096 451.084 15.936C452.212 16.776 453.016 17.904 453.496 19.32C453.976 20.736 454.216 22.32 454.216 24.072C454.216 25.056 454.072 26.1 453.784 27.204C453.496 28.284 453.04 29.292 452.416 30.228C451.816 31.164 451 31.932 449.968 32.532C448.96 33.108 447.712 33.396 446.224 33.396ZM447.448 30.084C448.792 30.084 449.932 29.832 450.868 29.328C451.828 28.8 452.548 28.08 453.028 27.168C453.532 26.256 453.784 25.224 453.784 24.072C453.784 22.8 453.532 21.72 453.028 20.832C452.524 19.92 451.804 19.224 450.868 18.744C449.932 18.24 448.792 17.988 447.448 17.988C445.528 17.988 444.04 18.552 442.984 19.68C441.928 20.808 441.4 22.272 441.4 24.072C441.4 25.248 441.652 26.292 442.156 27.204C442.684 28.116 443.404 28.824 444.316 29.328C445.228 29.832 446.272 30.084 447.448 30.084ZM453.784 15.072H457.816V33H454.072C454.072 33 454.048 32.772 454 32.316C453.952 31.86 453.904 31.308 453.856 30.66C453.808 29.988 453.784 29.352 453.784 28.752V15.072ZM462.209 15.072H466.205V33H462.209V15.072ZM473.765 14.676C474.797 14.676 475.745 14.82 476.609 15.108C477.497 15.396 478.253 15.84 478.877 16.44C479.525 17.016 480.017 17.736 480.353 18.6C480.713 19.464 480.893 20.484 480.893 21.66V33H476.897V22.452C476.897 20.988 476.537 19.908 475.817 19.212C475.121 18.492 474.017 18.132 472.505 18.132C471.353 18.132 470.297 18.384 469.337 18.888C468.401 19.368 467.633 20.004 467.033 20.796C466.433 21.564 466.085 22.416 465.989 23.352L465.953 21.408C466.073 20.52 466.337 19.68 466.745 18.888C467.153 18.072 467.693 17.352 468.365 16.728C469.037 16.08 469.829 15.576 470.741 15.216C471.653 14.856 472.661 14.676 473.765 14.676ZM493.298 33.396C491.642 33.396 490.13 33 488.762 32.208C487.418 31.416 486.35 30.324 485.558 28.932C484.766 27.516 484.37 25.896 484.37 24.072C484.37 22.2 484.754 20.568 485.522 19.176C486.314 17.76 487.37 16.656 488.69 15.864C490.034 15.072 491.57 14.676 493.298 14.676C494.81 14.676 496.082 14.928 497.114 15.432C498.146 15.912 498.962 16.584 499.562 17.448C500.162 18.288 500.594 19.272 500.858 20.4C501.146 21.528 501.29 22.752 501.29 24.072C501.29 25.056 501.146 26.1 500.858 27.204C500.57 28.284 500.114 29.292 499.49 30.228C498.89 31.164 498.074 31.932 497.042 32.532C496.034 33.108 494.786 33.396 493.298 33.396ZM494.522 30.084C495.866 30.084 497.006 29.832 497.942 29.328C498.902 28.8 499.622 28.08 500.102 27.168C500.606 26.256 500.858 25.224 500.858 24.072C500.858 22.8 500.606 21.72 500.102 20.832C499.598 19.92 498.878 19.212 497.942 18.708C497.006 18.204 495.866 17.952 494.522 17.952C492.602 17.952 491.114 18.528 490.058 19.68C489.002 20.808 488.474 22.272 488.474 24.072C488.474 25.248 488.726 26.292 489.23 27.204C489.758 28.116 490.478 28.824 491.39 29.328C492.302 29.832 493.346 30.084 494.522 30.084ZM500.858 7.872H504.89V33H501.146C501.098 32.448 501.038 31.764 500.966 30.948C500.894 30.132 500.858 29.4 500.858 28.752V7.872Z" fill="white"/>
</g>
</svg>
