<svg width="706" height="294" viewBox="0 0 706 294" fill="none" xmlns="http://www.w3.org/2000/svg">
<path d="M17.3472 12.1029C20.4688 12.1029 23.085 12.4894 25.1958 13.2624C27.3066 14.0353 28.9863 15.0907 30.2349 16.4286C31.4835 17.7367 32.3754 19.2529 32.9106 20.9772C33.4754 22.7015 33.7579 24.515 33.7579 26.4177C33.7579 28.3501 33.4606 30.1933 32.866 31.9474C32.2714 33.7014 31.32 35.2622 30.0119 36.6298C28.7336 37.9676 27.0539 39.0379 24.9728 39.8405C22.8917 40.6135 20.3498 41 17.3472 41H3.47835V12.1029H17.3472ZM8.5621 36.5406H17.3026C19.5026 36.5406 21.3309 36.2581 22.7877 35.6933C24.2444 35.1284 25.4039 34.3703 26.266 33.419C27.1282 32.4379 27.7376 31.3528 28.0944 30.1636C28.4511 28.9447 28.6295 27.696 28.6295 26.4177C28.6295 25.1393 28.4511 23.9204 28.0944 22.7609C27.7376 21.5718 27.1282 20.5164 26.266 19.5948C25.4039 18.6434 24.2444 17.9002 22.7877 17.365C21.3309 16.8002 19.5026 16.5177 17.3026 16.5177H8.5621V36.5406ZM57.3311 33.6865H62.1027C61.8649 35.2027 61.2703 36.5554 60.319 37.7446C59.3973 38.9041 58.1338 39.8257 56.5285 40.5095C54.9231 41.1635 53.0055 41.4905 50.7758 41.4905C48.2488 41.4905 45.9893 41.0297 43.9975 40.1081C42.0056 39.1568 40.4448 37.8189 39.3151 36.0946C38.1853 34.3703 37.6205 32.319 37.6205 29.9406C37.6205 27.592 38.1705 25.5407 39.2705 23.7866C40.3705 22.0326 41.8867 20.6799 43.8191 19.7285C45.7812 18.7772 48.0407 18.3015 50.5974 18.3015C53.2433 18.3015 55.4433 18.7772 57.1974 19.7285C58.9811 20.6502 60.3041 22.0474 61.1663 23.9204C62.0284 25.7636 62.3852 28.0974 62.2365 30.9217H42.6596C42.8083 32.1703 43.2096 33.3001 43.8637 34.3109C44.5475 35.2919 45.4691 36.0649 46.6285 36.6298C47.788 37.1649 49.1407 37.4325 50.6866 37.4325C52.4109 37.4325 53.8528 37.0906 55.0122 36.4068C56.2014 35.723 56.9744 34.8163 57.3311 33.6865ZM50.4636 22.315C48.442 22.315 46.7772 22.8204 45.4691 23.8312C44.161 24.8123 43.3137 26.0758 42.9272 27.6217H57.242C57.123 25.9569 56.4541 24.6636 55.2352 23.742C54.0163 22.7907 52.4258 22.315 50.4636 22.315ZM65.6703 33.6865H70.2635C70.5013 34.8163 71.1108 35.7379 72.0918 36.4514C73.0729 37.1352 74.3959 37.4771 76.0607 37.4771C77.131 37.4771 77.9634 37.3581 78.558 37.1203C79.1823 36.8825 79.6134 36.5554 79.8513 36.1392C80.1188 35.723 80.2526 35.2473 80.2526 34.7122C80.2526 34.0582 80.0594 33.5528 79.6729 33.196C79.3161 32.8392 78.781 32.542 78.0675 32.3041C77.354 32.0663 76.4621 31.8582 75.3918 31.6798C74.2918 31.4122 73.2067 31.1149 72.1364 30.7879C71.0662 30.4609 70.1 30.0595 69.2378 29.5839C68.3757 29.0785 67.6919 28.4541 67.1865 27.7109C66.7108 26.9379 66.473 26.0015 66.473 24.9015C66.473 23.8907 66.6959 22.9839 67.1419 22.1812C67.6176 21.3488 68.2716 20.6502 69.104 20.0853C69.9365 19.5204 70.9175 19.0894 72.0473 18.7921C73.177 18.465 74.4108 18.3015 75.7486 18.3015C77.681 18.3015 79.2864 18.6137 80.5648 19.238C81.8729 19.8623 82.8539 20.7393 83.508 21.8691C84.1918 22.9988 84.5336 24.292 84.5336 25.7488H80.1634C79.9256 24.5596 79.4648 23.6974 78.781 23.1623C78.0972 22.6272 77.0715 22.3596 75.704 22.3596C74.3364 22.3596 73.2959 22.5974 72.5824 23.0731C71.8689 23.5488 71.5121 24.2028 71.5121 25.0353C71.5121 25.6596 71.7351 26.165 72.181 26.5515C72.6567 26.9082 73.3256 27.2204 74.1878 27.4879C75.0499 27.7555 76.0607 28.0231 77.2202 28.2906C78.2905 28.5879 79.3013 28.9001 80.2526 29.2271C81.2039 29.5244 82.0512 29.9109 82.7945 30.3866C83.5674 30.8325 84.1769 31.4271 84.6228 32.1703C85.0688 32.9136 85.2918 33.8352 85.2918 34.9352C85.2918 36.3027 84.9201 37.4771 84.1769 38.4581C83.4634 39.4392 82.4229 40.1973 81.0553 40.7324C79.6877 41.2378 78.0378 41.4905 76.1053 41.4905C74.4108 41.4905 72.9391 41.2973 71.6905 40.9108C70.4716 40.5243 69.4459 40.0189 68.6135 39.3946C67.8108 38.7703 67.1865 38.1014 66.7405 37.3879C66.2946 36.6744 65.9824 35.9906 65.8041 35.3365C65.6554 34.6825 65.6108 34.1325 65.6703 33.6865ZM95.5732 9.38267V14.1543H89.6421V9.38267H95.5732ZM90.0881 18.7921H95.0826V41H90.0881V18.7921ZM110.912 37.5662C108.83 37.5662 106.943 37.1946 105.248 36.4514C103.583 35.7081 102.26 34.623 101.279 33.196C100.328 31.769 99.8521 30.0595 99.8521 28.0677C99.8521 26.0758 100.313 24.3515 101.235 22.8947C102.186 21.438 103.494 20.3083 105.159 19.5056C106.853 18.7029 108.771 18.3015 110.912 18.3015C111.536 18.3015 112.13 18.3461 112.695 18.4353C113.29 18.5245 113.855 18.6434 114.39 18.7921L124.78 18.8367V22.9839C123.353 23.0136 121.911 22.8204 120.455 22.4042C119.028 21.9582 117.764 21.4974 116.664 21.0218L116.53 20.7542C117.541 21.2596 118.448 21.8839 119.251 22.6272C120.083 23.3407 120.737 24.1582 121.213 25.0798C121.688 26.0015 121.926 27.042 121.926 28.2014C121.926 30.1636 121.451 31.8433 120.499 33.2406C119.578 34.6379 118.284 35.7081 116.62 36.4514C114.984 37.1946 113.082 37.5662 110.912 37.5662ZM118.047 50.0526V49.027C118.047 47.5702 117.616 46.5446 116.753 45.95C115.891 45.3554 114.687 45.0581 113.141 45.0581H107.121C105.932 45.0581 104.906 44.954 104.044 44.7459C103.212 44.5675 102.543 44.2851 102.037 43.8986C101.532 43.5419 101.16 43.1108 100.922 42.6054C100.685 42.1297 100.566 41.5946 100.566 41C100.566 39.8108 100.922 38.9189 101.636 38.3243C102.379 37.7298 103.345 37.3433 104.535 37.1649C105.753 36.9865 107.032 36.9568 108.37 37.0757L110.912 37.5662C109.157 37.6257 107.82 37.7892 106.898 38.0568C106.006 38.2946 105.56 38.7852 105.56 39.5284C105.56 39.9743 105.739 40.3311 106.095 40.5987C106.452 40.8662 106.957 41 107.612 41H113.944C115.757 41 117.348 41.2081 118.716 41.6243C120.083 42.0703 121.138 42.7986 121.882 43.8094C122.655 44.85 123.041 46.2621 123.041 48.0459V50.0526H118.047ZM110.912 33.6865C112.101 33.6865 113.156 33.4636 114.078 33.0176C114.999 32.5717 115.728 31.9325 116.263 31.1001C116.798 30.2676 117.066 29.2568 117.066 28.0677C117.066 26.8785 116.798 25.8528 116.263 24.9907C115.728 24.1285 114.999 23.4745 114.078 23.0285C113.156 22.5826 112.101 22.3596 110.912 22.3596C109.752 22.3596 108.697 22.5826 107.745 23.0285C106.824 23.4745 106.095 24.1285 105.56 24.9907C105.025 25.8231 104.757 26.8488 104.757 28.0677C104.757 29.2568 105.025 30.2676 105.56 31.1001C106.095 31.9325 106.824 32.5717 107.745 33.0176C108.667 33.4636 109.722 33.6865 110.912 33.6865ZM128.752 18.7921H133.702V41H128.752V18.7921ZM143.067 18.3015C144.345 18.3015 145.52 18.4799 146.59 18.8367C147.69 19.1934 148.627 19.7434 149.399 20.4866C150.202 21.2001 150.812 22.092 151.228 23.1623C151.674 24.2326 151.897 25.4961 151.897 26.9528V41H146.947V27.9339C146.947 26.1204 146.501 24.7826 145.609 23.9204C144.747 23.0285 143.379 22.5826 141.506 22.5826C140.079 22.5826 138.771 22.8947 137.582 23.519C136.423 24.1136 135.471 24.9015 134.728 25.8825C133.985 26.8339 133.554 27.8893 133.435 29.0487L133.39 26.6406C133.539 25.5407 133.866 24.5001 134.371 23.519C134.877 22.5082 135.546 21.6164 136.378 20.8434C137.21 20.0407 138.191 19.4164 139.321 18.9704C140.451 18.5245 141.7 18.3015 143.067 18.3015Z" fill="white"/>
<path d="M173.562 9.38267V14.1543H167.631V9.38267H173.562ZM168.077 18.7921H173.072V41H168.077V18.7921ZM178.019 33.6865H182.613C182.85 34.8163 183.46 35.7379 184.441 36.4514C185.422 37.1352 186.745 37.4771 188.41 37.4771C189.48 37.4771 190.313 37.3581 190.907 37.1203C191.531 36.8825 191.963 36.5554 192.2 36.1392C192.468 35.723 192.602 35.2473 192.602 34.7122C192.602 34.0582 192.409 33.5528 192.022 33.196C191.665 32.8392 191.13 32.542 190.417 32.3041C189.703 32.0663 188.811 31.8582 187.741 31.6798C186.641 31.4122 185.556 31.1149 184.486 30.7879C183.415 30.4609 182.449 30.0595 181.587 29.5839C180.725 29.0785 180.041 28.4541 179.536 27.7109C179.06 26.9379 178.822 26.0015 178.822 24.9015C178.822 23.8907 179.045 22.9839 179.491 22.1812C179.967 21.3488 180.621 20.6502 181.453 20.0853C182.286 19.5204 183.267 19.0894 184.396 18.7921C185.526 18.465 186.76 18.3015 188.098 18.3015C190.03 18.3015 191.636 18.6137 192.914 19.238C194.222 19.8623 195.203 20.7393 195.857 21.8691C196.541 22.9988 196.883 24.292 196.883 25.7488H192.513C192.275 24.5596 191.814 23.6974 191.13 23.1623C190.446 22.6272 189.421 22.3596 188.053 22.3596C186.686 22.3596 185.645 22.5974 184.932 23.0731C184.218 23.5488 183.861 24.2028 183.861 25.0353C183.861 25.6596 184.084 26.165 184.53 26.5515C185.006 26.9082 185.675 27.2204 186.537 27.4879C187.399 27.7555 188.41 28.0231 189.569 28.2906C190.64 28.5879 191.65 28.9001 192.602 29.2271C193.553 29.5244 194.4 29.9109 195.144 30.3866C195.917 30.8325 196.526 31.4271 196.972 32.1703C197.418 32.9136 197.641 33.8352 197.641 34.9352C197.641 36.3027 197.269 37.4771 196.526 38.4581C195.813 39.4392 194.772 40.1973 193.404 40.7324C192.037 41.2378 190.387 41.4905 188.454 41.4905C186.76 41.4905 185.288 41.2973 184.04 40.9108C182.821 40.5243 181.795 40.0189 180.963 39.3946C180.16 38.7703 179.536 38.1014 179.09 37.3879C178.644 36.6744 178.332 35.9906 178.153 35.3365C178.005 34.6825 177.96 34.1325 178.019 33.6865ZM202.125 18.7921H207.075V41H202.125V18.7921ZM216.44 18.3015C217.718 18.3015 218.893 18.4799 219.963 18.8367C221.063 19.1934 221.999 19.7434 222.772 20.4866C223.575 21.2001 224.184 22.092 224.601 23.1623C225.047 24.2326 225.269 25.4961 225.269 26.9528V41H220.32V27.9339C220.32 26.1204 219.874 24.7826 218.982 23.9204C218.12 23.0285 216.752 22.5826 214.879 22.5826C213.452 22.5826 212.144 22.8947 210.955 23.519C209.795 24.1136 208.844 24.9015 208.101 25.8825C207.357 26.8339 206.926 27.8893 206.807 29.0487L206.763 26.6406C206.912 25.5407 207.239 24.5001 207.744 23.519C208.249 22.5082 208.918 21.6164 209.751 20.8434C210.583 20.0407 211.564 19.4164 212.694 18.9704C213.824 18.5245 215.072 18.3015 216.44 18.3015ZM230.745 23.2961L229.853 21.9582C230.329 21.2447 230.76 20.4866 231.147 19.6839C231.563 18.8515 231.786 18.034 231.815 17.2313L229.452 16.7407V11.9245H235.561V15.4029C235.561 17.365 235.101 18.9704 234.179 20.2191C233.287 21.4677 232.142 22.4934 230.745 23.2961ZM238.583 18.7921H254.28V22.8501H238.583V18.7921ZM243.934 12.8164H248.928V41H243.934V12.8164Z" fill="white"/>
<path d="M269.166 18.7921H274.161V49.9189H269.166V18.7921ZM274.562 9.38267V14.1543H268.631V9.38267H274.562ZM303.145 41H298.195V18.7921H303.145V41ZM298.463 30.4312L298.507 31.8582C298.448 32.2447 298.314 32.8244 298.106 33.5974C297.927 34.3703 297.615 35.2176 297.169 36.1392C296.753 37.0311 296.188 37.8933 295.475 38.7257C294.791 39.5284 293.929 40.1973 292.888 40.7324C291.848 41.2378 290.584 41.4905 289.098 41.4905C288.027 41.4905 286.942 41.3419 285.842 41.0446C284.772 40.777 283.791 40.3162 282.899 39.6622C282.037 39.0081 281.338 38.1162 280.803 36.9865C280.268 35.8568 280.001 34.4298 280.001 32.7055V18.7921H284.95V31.769C284.95 33.1663 285.173 34.2663 285.619 35.069C286.095 35.8419 286.749 36.3919 287.582 36.719C288.414 37.046 289.38 37.2095 290.48 37.2095C292.056 37.2095 293.394 36.8527 294.494 36.1392C295.594 35.4257 296.471 34.5487 297.125 33.5082C297.808 32.4379 298.254 31.4122 298.463 30.4312ZM307.631 33.6865H312.224C312.462 34.8163 313.072 35.7379 314.053 36.4514C315.034 37.1352 316.357 37.4771 318.022 37.4771C319.092 37.4771 319.924 37.3581 320.519 37.1203C321.143 36.8825 321.574 36.5554 321.812 36.1392C322.08 35.723 322.214 35.2473 322.214 34.7122C322.214 34.0582 322.02 33.5528 321.634 33.196C321.277 32.8392 320.742 32.542 320.028 32.3041C319.315 32.0663 318.423 31.8582 317.353 31.6798C316.253 31.4122 315.168 31.1149 314.097 30.7879C313.027 30.4609 312.061 30.0595 311.199 29.5839C310.337 29.0785 309.653 28.4541 309.147 27.7109C308.672 26.9379 308.434 26.0015 308.434 24.9015C308.434 23.8907 308.657 22.9839 309.103 22.1812C309.578 21.3488 310.233 20.6502 311.065 20.0853C311.897 19.5204 312.878 19.0894 314.008 18.7921C315.138 18.465 316.372 18.3015 317.709 18.3015C319.642 18.3015 321.247 18.6137 322.526 19.238C323.834 19.8623 324.815 20.7393 325.469 21.8691C326.153 22.9988 326.495 24.292 326.495 25.7488H322.124C321.886 24.5596 321.426 23.6974 320.742 23.1623C320.058 22.6272 319.032 22.3596 317.665 22.3596C316.297 22.3596 315.257 22.5974 314.543 23.0731C313.83 23.5488 313.473 24.2028 313.473 25.0353C313.473 25.6596 313.696 26.165 314.142 26.5515C314.618 26.9082 315.287 27.2204 316.149 27.4879C317.011 27.7555 318.022 28.0231 319.181 28.2906C320.251 28.5879 321.262 28.9001 322.214 29.2271C323.165 29.5244 324.012 29.9109 324.755 30.3866C325.528 30.8325 326.138 31.4271 326.584 32.1703C327.03 32.9136 327.253 33.8352 327.253 34.9352C327.253 36.3027 326.881 37.4771 326.138 38.4581C325.424 39.4392 324.384 40.1973 323.016 40.7324C321.649 41.2378 319.999 41.4905 318.066 41.4905C316.372 41.4905 314.9 41.2973 313.651 40.9108C312.432 40.5243 311.407 40.0189 310.574 39.3946C309.772 38.7703 309.147 38.1014 308.701 37.3879C308.256 36.6744 307.943 35.9906 307.765 35.3365C307.616 34.6825 307.572 34.1325 307.631 33.6865ZM330.176 18.7921H345.873V22.8501H330.176V18.7921ZM335.527 12.8164H340.522V41H335.527V12.8164Z" fill="white"/>
<path d="M387.254 37.2541L385.782 37.2095L392.248 18.7921H397.689L389.038 41H384.355L377.443 22.4934H379.004L371.913 41H367.231L358.758 18.7921H364.199L370.486 37.2541H369.015L375.347 18.7921H381.144L387.254 37.2541ZM419.906 41V28.1569C419.906 26.9677 419.698 25.9866 419.282 25.2136C418.895 24.4109 418.286 23.8015 417.453 23.3853C416.621 22.9691 415.521 22.7609 414.153 22.7609C412.786 22.7609 411.537 23.0582 410.407 23.6528C409.278 24.2177 408.356 24.9758 407.642 25.9271C406.929 26.8785 406.513 27.9339 406.394 29.0933L406.349 26.5961C406.498 25.5258 406.825 24.5001 407.33 23.519C407.836 22.5082 408.505 21.6164 409.337 20.8434C410.169 20.0704 411.151 19.461 412.28 19.015C413.41 18.5394 414.659 18.3015 416.026 18.3015C417.305 18.3015 418.479 18.4799 419.549 18.8367C420.649 19.1934 421.586 19.7285 422.359 20.442C423.161 21.1258 423.771 21.988 424.187 23.0285C424.633 24.0393 424.856 25.2136 424.856 26.5515V41H419.906ZM401.711 41V9.87321H406.661V41H401.711ZM440.256 41.4905C438.235 41.4905 436.377 41 434.682 40.0189C433.017 39.0379 431.679 37.6852 430.668 35.9608C429.687 34.2068 429.197 32.2001 429.197 29.9406C429.197 27.6217 429.702 25.6001 430.713 23.8758C431.724 22.1218 433.091 20.7542 434.816 19.7731C436.54 18.7921 438.472 18.3015 440.613 18.3015C442.991 18.3015 444.879 18.8218 446.276 19.8623C447.674 20.9029 448.67 22.3001 449.264 24.0542C449.859 25.8082 450.156 27.7704 450.156 29.9406C450.156 31.1595 449.978 32.4528 449.621 33.8203C449.264 35.1582 448.699 36.4068 447.926 37.5662C447.183 38.7257 446.172 39.677 444.894 40.4203C443.645 41.1338 442.099 41.4905 440.256 41.4905ZM441.772 37.3879C443.437 37.3879 444.849 37.0757 446.009 36.4514C447.198 35.7973 448.09 34.9055 448.685 33.7757C449.309 32.646 449.621 31.3676 449.621 29.9406C449.621 28.365 449.309 27.0271 448.685 25.9271C448.06 24.7974 447.168 23.9353 446.009 23.3407C444.849 22.7164 443.437 22.4042 441.772 22.4042C439.394 22.4042 437.551 23.1028 436.243 24.5001C434.935 25.8974 434.281 27.7109 434.281 29.9406C434.281 31.3974 434.593 32.6906 435.217 33.8203C435.871 34.95 436.763 35.8271 437.893 36.4514C439.022 37.0757 440.316 37.3879 441.772 37.3879ZM449.621 18.7921H454.616V41H449.978C449.978 41 449.948 40.7176 449.889 40.1527C449.829 39.5878 449.77 38.9041 449.71 38.1014C449.651 37.2689 449.621 36.4811 449.621 35.7379V18.7921ZM458.496 18.7921H474.193V22.8501H458.496V18.7921ZM463.847 12.8164H468.842V41H463.847V12.8164Z" fill="white"/>
<path d="M486.758 18.7921H492.065L501.028 40.1081L496.747 41L486.758 18.7921ZM511.508 18.7921L497.238 49.9189H492.02L498.13 37.7446L506.201 18.7921H511.508ZM526.015 41.4905C523.547 41.4905 521.333 41.0446 519.37 40.1527C517.408 39.2608 515.862 37.9527 514.733 36.2284C513.603 34.5041 513.038 32.4082 513.038 29.9406C513.038 27.5028 513.603 25.4217 514.733 23.6974C515.862 21.9434 517.408 20.6056 519.37 19.6839C521.333 18.7623 523.547 18.3015 526.015 18.3015C528.483 18.3015 530.683 18.7623 532.615 19.6839C534.547 20.6056 536.064 21.9434 537.164 23.6974C538.293 25.4217 538.858 27.5028 538.858 29.9406C538.858 32.4082 538.293 34.5041 537.164 36.2284C536.064 37.9527 534.547 39.2608 532.615 40.1527C530.683 41.0446 528.483 41.4905 526.015 41.4905ZM526.015 37.4325C527.442 37.4325 528.75 37.15 529.939 36.5852C531.128 36.0203 532.065 35.173 532.749 34.0433C533.462 32.9136 533.819 31.546 533.819 29.9406C533.819 28.3352 533.462 26.9677 532.749 25.838C532.065 24.7082 531.128 23.8461 529.939 23.2515C528.78 22.6272 527.472 22.315 526.015 22.315C524.558 22.315 523.235 22.6123 522.046 23.2069C520.857 23.8015 519.891 24.6636 519.147 25.7934C518.434 26.9231 518.077 28.3055 518.077 29.9406C518.077 31.546 518.434 32.9136 519.147 34.0433C519.861 35.173 520.812 36.0203 522.002 36.5852C523.22 37.15 524.558 37.4325 526.015 37.4325ZM566.433 41H561.483V18.7921H566.433V41ZM561.75 30.4312L561.795 31.8582C561.735 32.2447 561.602 32.8244 561.394 33.5974C561.215 34.3703 560.903 35.2176 560.457 36.1392C560.041 37.0311 559.476 37.8933 558.763 38.7257C558.079 39.5284 557.217 40.1973 556.176 40.7324C555.136 41.2378 553.872 41.4905 552.386 41.4905C551.315 41.4905 550.23 41.3419 549.13 41.0446C548.06 40.777 547.079 40.3162 546.187 39.6622C545.325 39.0081 544.626 38.1162 544.091 36.9865C543.556 35.8568 543.288 34.4298 543.288 32.7055V18.7921H548.238V31.769C548.238 33.1663 548.461 34.2663 548.907 35.069C549.383 35.8419 550.037 36.3919 550.869 36.719C551.702 37.046 552.668 37.2095 553.768 37.2095C555.344 37.2095 556.681 36.8527 557.781 36.1392C558.881 35.4257 559.758 34.5487 560.412 33.5082C561.096 32.4379 561.542 31.4122 561.75 30.4312Z" fill="white"/>
<path d="M581.784 33.6865H586.377C586.615 34.8163 587.224 35.7379 588.205 36.4514C589.186 37.1352 590.509 37.4771 592.174 37.4771C593.244 37.4771 594.077 37.3581 594.672 37.1203C595.296 36.8825 595.727 36.5554 595.965 36.1392C596.232 35.723 596.366 35.2473 596.366 34.7122C596.366 34.0582 596.173 33.5528 595.786 33.196C595.43 32.8392 594.894 32.542 594.181 32.3041C593.467 32.0663 592.576 31.8582 591.505 31.6798C590.405 31.4122 589.32 31.1149 588.25 30.7879C587.18 30.4609 586.213 30.0595 585.351 29.5839C584.489 29.0785 583.805 28.4541 583.3 27.7109C582.824 26.9379 582.586 26.0015 582.586 24.9015C582.586 23.8907 582.809 22.9839 583.255 22.1812C583.731 21.3488 584.385 20.6502 585.218 20.0853C586.05 19.5204 587.031 19.0894 588.161 18.7921C589.29 18.465 590.524 18.3015 591.862 18.3015C593.794 18.3015 595.4 18.6137 596.678 19.238C597.986 19.8623 598.967 20.7393 599.621 21.8691C600.305 22.9988 600.647 24.292 600.647 25.7488H596.277C596.039 24.5596 595.578 23.6974 594.894 23.1623C594.211 22.6272 593.185 22.3596 591.817 22.3596C590.45 22.3596 589.409 22.5974 588.696 23.0731C587.982 23.5488 587.626 24.2028 587.626 25.0353C587.626 25.6596 587.849 26.165 588.295 26.5515C588.77 26.9082 589.439 27.2204 590.301 27.4879C591.163 27.7555 592.174 28.0231 593.334 28.2906C594.404 28.5879 595.415 28.9001 596.366 29.2271C597.317 29.5244 598.165 29.9109 598.908 30.3866C599.681 30.8325 600.29 31.4271 600.736 32.1703C601.182 32.9136 601.405 33.8352 601.405 34.9352C601.405 36.3027 601.034 37.4771 600.29 38.4581C599.577 39.4392 598.536 40.1973 597.169 40.7324C595.801 41.2378 594.151 41.4905 592.219 41.4905C590.524 41.4905 589.053 41.2973 587.804 40.9108C586.585 40.5243 585.559 40.0189 584.727 39.3946C583.924 38.7703 583.3 38.1014 582.854 37.3879C582.408 36.6744 582.096 35.9906 581.918 35.3365C581.769 34.6825 581.724 34.1325 581.784 33.6865ZM624.441 33.6865H629.212C628.974 35.2027 628.38 36.5554 627.428 37.7446C626.507 38.9041 625.243 39.8257 623.638 40.5095C622.033 41.1635 620.115 41.4905 617.885 41.4905C615.358 41.4905 613.099 41.0297 611.107 40.1081C609.115 39.1568 607.554 37.8189 606.425 36.0946C605.295 34.3703 604.73 32.319 604.73 29.9406C604.73 27.592 605.28 25.5407 606.38 23.7866C607.48 22.0326 608.996 20.6799 610.929 19.7285C612.891 18.7772 615.15 18.3015 617.707 18.3015C620.353 18.3015 622.553 18.7772 624.307 19.7285C626.091 20.6502 627.414 22.0474 628.276 23.9204C629.138 25.7636 629.495 28.0974 629.346 30.9217H609.769C609.918 32.1703 610.319 33.3001 610.973 34.3109C611.657 35.2919 612.579 36.0649 613.738 36.6298C614.897 37.1649 616.25 37.4325 617.796 37.4325C619.52 37.4325 620.962 37.0906 622.122 36.4068C623.311 35.723 624.084 34.8163 624.441 33.6865ZM617.573 22.315C615.551 22.315 613.887 22.8204 612.579 23.8312C611.27 24.8123 610.423 26.0758 610.037 27.6217H624.351C624.233 25.9569 623.564 24.6636 622.345 23.742C621.126 22.7907 619.535 22.315 617.573 22.315ZM652.312 33.6865H657.084C656.846 35.2027 656.251 36.5554 655.3 37.7446C654.378 38.9041 653.115 39.8257 651.509 40.5095C649.904 41.1635 647.986 41.4905 645.757 41.4905C643.23 41.4905 640.97 41.0297 638.978 40.1081C636.986 39.1568 635.426 37.8189 634.296 36.0946C633.166 34.3703 632.601 32.319 632.601 29.9406C632.601 27.592 633.151 25.5407 634.251 23.7866C635.351 22.0326 636.868 20.6799 638.8 19.7285C640.762 18.7772 643.022 18.3015 645.578 18.3015C648.224 18.3015 650.424 18.7772 652.178 19.7285C653.962 20.6502 655.285 22.0474 656.147 23.9204C657.009 25.7636 657.366 28.0974 657.217 30.9217H637.641C637.789 32.1703 638.191 33.3001 638.845 34.3109C639.528 35.2919 640.45 36.0649 641.609 36.6298C642.769 37.1649 644.122 37.4325 645.667 37.4325C647.392 37.4325 648.834 37.0906 649.993 36.4068C651.182 35.723 651.955 34.8163 652.312 33.6865ZM645.445 22.315C643.423 22.315 641.758 22.8204 640.45 23.8312C639.142 24.8123 638.295 26.0758 637.908 27.6217H652.223C652.104 25.9569 651.435 24.6636 650.216 23.742C648.997 22.7907 647.407 22.315 645.445 22.315Z" fill="white"/>
<path d="M671.676 26.819H703.248V30.9217H671.676V26.819Z" fill="white"/>
<path d="M11.5621 69.3827V74.1543H5.63106V69.3827H11.5621ZM6.077 78.7921H11.0716V101H6.077V78.7921ZM15.4397 78.7921H31.1369V82.8501H15.4397V78.7921ZM20.791 72.8164H25.7856V101H20.791V72.8164ZM35.3866 83.2961L34.4947 81.9582C34.9704 81.2447 35.4014 80.4866 35.7879 79.6839C36.2041 78.8515 36.4271 78.034 36.4568 77.2313L34.0933 76.7407V71.9245H40.2028V75.4029C40.2028 77.365 39.742 78.9704 38.8203 80.2191C37.9285 81.4677 36.7839 82.4934 35.3866 83.2961ZM43.8037 93.6865H48.397C48.6348 94.8163 49.2442 95.7379 50.2253 96.4514C51.2064 97.1352 52.5294 97.4771 54.1942 97.4771C55.2645 97.4771 56.0969 97.3581 56.6915 97.1203C57.3158 96.8825 57.7469 96.5554 57.9847 96.1392C58.2523 95.723 58.3861 95.2473 58.3861 94.7122C58.3861 94.0582 58.1928 93.5528 57.8063 93.196C57.4496 92.8392 56.9145 92.542 56.201 92.3041C55.4874 92.0663 54.5956 91.8582 53.5253 91.6798C52.4253 91.4122 51.3402 91.1149 50.2699 90.7879C49.1997 90.4609 48.2334 90.0595 47.3713 89.5839C46.5091 89.0785 45.8254 88.4541 45.32 87.7109C44.8443 86.9379 44.6064 86.0015 44.6064 84.9015C44.6064 83.8907 44.8294 82.9839 45.2754 82.1812C45.751 81.3488 46.4051 80.6502 47.2375 80.0853C48.0699 79.5204 49.051 79.0894 50.1807 78.7921C51.3104 78.465 52.5442 78.3015 53.8821 78.3015C55.8145 78.3015 57.4199 78.6137 58.6982 79.238C60.0063 79.8623 60.9874 80.7393 61.6415 81.8691C62.3252 82.9988 62.6671 84.292 62.6671 85.7488H58.2969C58.059 84.5596 57.5982 83.6974 56.9145 83.1623C56.2307 82.6272 55.205 82.3596 53.8375 82.3596C52.4699 82.3596 51.4294 82.5974 50.7159 83.0731C50.0024 83.5488 49.6456 84.2028 49.6456 85.0353C49.6456 85.6596 49.8686 86.165 50.3145 86.5515C50.7902 86.9082 51.4591 87.2204 52.3213 87.4879C53.1834 87.7555 54.1942 88.0231 55.3537 88.2906C56.4239 88.5879 57.4347 88.9001 58.3861 89.2271C59.3374 89.5244 60.1847 89.9109 60.9279 90.3866C61.7009 90.8325 62.3104 91.4271 62.7563 92.1703C63.2023 92.9136 63.4252 93.8352 63.4252 94.9352C63.4252 96.3027 63.0536 97.4771 62.3104 98.4581C61.5969 99.4392 60.5563 100.197 59.1888 100.732C57.8212 101.238 56.1712 101.491 54.2388 101.491C52.5442 101.491 51.0726 101.297 49.824 100.911C48.6051 100.524 47.5794 100.019 46.747 99.3946C45.9443 98.7703 45.32 98.1014 44.874 97.3879C44.4281 96.6744 44.1159 95.9906 43.9375 95.3365C43.7889 94.6825 43.7443 94.1325 43.8037 93.6865Z" fill="white"/>
<path d="M4.20405 138.792H19.9012V142.85H4.20405V138.792ZM9.55536 132.816H14.5499V161H9.55536V132.816ZM46.9386 161H41.9886V138.792H46.9386V161ZM42.2562 150.431L42.3008 151.858C42.2413 152.245 42.1075 152.824 41.8994 153.597C41.7211 154.37 41.4089 155.218 40.963 156.139C40.5467 157.031 39.9819 157.893 39.2684 158.726C38.5846 159.528 37.7224 160.197 36.6819 160.732C35.6414 161.238 34.3779 161.491 32.8914 161.491C31.8211 161.491 30.736 161.342 29.636 161.045C28.5658 160.777 27.5847 160.316 26.6928 159.662C25.8306 159.008 25.132 158.116 24.5969 156.987C24.0617 155.857 23.7942 154.43 23.7942 152.705V138.792H28.7441V151.769C28.7441 153.166 28.9671 154.266 29.413 155.069C29.8887 155.842 30.5428 156.392 31.3752 156.719C32.2076 157.046 33.1738 157.209 34.2738 157.209C35.8495 157.209 37.1873 156.853 38.2873 156.139C39.3873 155.426 40.2643 154.549 40.9184 153.508C41.6021 152.438 42.0481 151.412 42.2562 150.431ZM52.4059 138.792H57.3559V161H52.4059V138.792ZM65.3828 143.029C63.7774 143.029 62.395 143.37 61.2356 144.054C60.1059 144.738 59.1991 145.57 58.5153 146.551C57.8315 147.533 57.3559 148.484 57.0883 149.405L57.0437 146.908C57.0734 146.581 57.1775 146.091 57.3559 145.437C57.5343 144.753 57.8018 144.01 58.1586 143.207C58.5451 142.404 59.0505 141.631 59.6748 140.888C60.3288 140.115 61.1167 139.491 62.0383 139.015C62.9896 138.539 64.1045 138.302 65.3828 138.302V143.029ZM69.1288 138.792H74.0787V161H69.1288V138.792ZM83.4435 138.302C84.7219 138.302 85.8962 138.48 86.9665 138.837C88.0665 139.193 89.0029 139.743 89.7759 140.487C90.5786 141.2 91.1881 142.092 91.6043 143.162C92.0502 144.233 92.2732 145.496 92.2732 146.953V161H87.3232V147.934C87.3232 146.12 86.8773 144.783 85.9854 143.92C85.1232 143.029 83.7557 142.583 81.8827 142.583C80.4557 142.583 79.1476 142.895 77.9584 143.519C76.799 144.114 75.8476 144.901 75.1044 145.883C74.3612 146.834 73.9301 147.889 73.8112 149.049L73.7666 146.641C73.9152 145.541 74.2422 144.5 74.7476 143.519C75.253 142.508 75.922 141.616 76.7544 140.843C77.5868 140.041 78.5679 139.416 79.6976 138.97C80.8273 138.524 82.076 138.302 83.4435 138.302ZM103.538 129.383V134.154H97.6067V129.383H103.538ZM98.0527 138.792H103.047V161H98.0527V138.792ZM108.976 138.792H113.926V161H108.976V138.792ZM123.291 138.302C124.569 138.302 125.744 138.48 126.814 138.837C127.914 139.193 128.85 139.743 129.623 140.487C130.426 141.2 131.035 142.092 131.452 143.162C131.898 144.233 132.121 145.496 132.121 146.953V161H127.171V147.934C127.171 146.12 126.725 144.783 125.833 143.92C124.971 143.029 123.603 142.583 121.73 142.583C120.303 142.583 118.995 142.895 117.806 143.519C116.646 144.114 115.695 144.901 114.952 145.883C114.209 146.834 113.777 147.889 113.659 149.049L113.614 146.641C113.763 145.541 114.09 144.5 114.595 143.519C115.1 142.508 115.769 141.616 116.602 140.843C117.434 140.041 118.415 139.416 119.545 138.97C120.675 138.524 121.923 138.302 123.291 138.302ZM147.488 157.566C145.407 157.566 143.519 157.195 141.824 156.451C140.16 155.708 138.837 154.623 137.855 153.196C136.904 151.769 136.428 150.06 136.428 148.068C136.428 146.076 136.889 144.351 137.811 142.895C138.762 141.438 140.07 140.308 141.735 139.506C143.43 138.703 145.347 138.302 147.488 138.302C148.112 138.302 148.707 138.346 149.272 138.435C149.866 138.524 150.431 138.643 150.966 138.792L161.357 138.837V142.984C159.93 143.014 158.488 142.82 157.031 142.404C155.604 141.958 154.34 141.497 153.241 141.022L153.107 140.754C154.118 141.26 155.024 141.884 155.827 142.627C156.659 143.341 157.313 144.158 157.789 145.08C158.265 146.001 158.503 147.042 158.503 148.201C158.503 150.164 158.027 151.843 157.076 153.241C156.154 154.638 154.861 155.708 153.196 156.451C151.561 157.195 149.658 157.566 147.488 157.566ZM154.623 170.053V169.027C154.623 167.57 154.192 166.545 153.33 165.95C152.468 165.355 151.263 165.058 149.718 165.058H143.697C142.508 165.058 141.482 164.954 140.62 164.746C139.788 164.568 139.119 164.285 138.614 163.899C138.108 163.542 137.737 163.111 137.499 162.605C137.261 162.13 137.142 161.595 137.142 161C137.142 159.811 137.499 158.919 138.212 158.324C138.955 157.73 139.922 157.343 141.111 157.165C142.33 156.987 143.608 156.957 144.946 157.076L147.488 157.566C145.734 157.626 144.396 157.789 143.474 158.057C142.582 158.295 142.137 158.785 142.137 159.528C142.137 159.974 142.315 160.331 142.672 160.599C143.028 160.866 143.534 161 144.188 161H150.52C152.334 161 153.924 161.208 155.292 161.624C156.659 162.07 157.715 162.799 158.458 163.809C159.231 164.85 159.617 166.262 159.617 168.046V170.053H154.623ZM147.488 153.687C148.677 153.687 149.732 153.464 150.654 153.018C151.576 152.572 152.304 151.932 152.839 151.1C153.374 150.268 153.642 149.257 153.642 148.068C153.642 146.878 153.374 145.853 152.839 144.991C152.304 144.129 151.576 143.474 150.654 143.029C149.732 142.583 148.677 142.36 147.488 142.36C146.328 142.36 145.273 142.583 144.322 143.029C143.4 143.474 142.672 144.129 142.137 144.991C141.601 145.823 141.334 146.849 141.334 148.068C141.334 149.257 141.601 150.268 142.137 151.1C142.672 151.932 143.4 152.572 144.322 153.018C145.243 153.464 146.299 153.687 147.488 153.687Z" fill="white"/>
<path d="M21.3161 213.687H26.0876C25.8498 215.203 25.2552 216.555 24.3039 217.745C23.3823 218.904 22.1188 219.826 20.5134 220.509C18.908 221.164 16.9904 221.491 14.7607 221.491C12.2337 221.491 9.97425 221.03 7.98237 220.108C5.9905 219.157 4.4297 217.819 3.29998 216.095C2.17025 214.37 1.60539 212.319 1.60539 209.941C1.60539 207.592 2.15539 205.541 3.25538 203.787C4.35537 202.033 5.87158 200.68 7.804 199.729C9.76614 198.777 12.0256 198.302 14.5823 198.302C17.2283 198.302 19.4282 198.777 21.1823 199.729C22.966 200.65 24.289 202.047 25.1512 203.92C26.0133 205.764 26.3701 208.097 26.2214 210.922H6.64455C6.79319 212.17 7.19454 213.3 7.84859 214.311C8.53237 215.292 9.45398 216.065 10.6134 216.63C11.7729 217.165 13.1256 217.432 14.6715 217.432C16.3958 217.432 17.8377 217.091 18.9972 216.407C20.1863 215.723 20.9593 214.816 21.3161 213.687ZM14.4485 202.315C12.4269 202.315 10.7621 202.82 9.45398 203.831C8.14589 204.812 7.29859 206.076 6.91211 207.622H21.2269C21.108 205.957 20.439 204.664 19.2201 203.742C18.0012 202.791 16.4107 202.315 14.4485 202.315ZM52.33 198.792L41.8949 211.055L34.0463 221H27.9815L38.9517 208.068L46.3097 198.792H52.33ZM27.9815 198.792H34.0909L41.9395 208.068L52.9097 221H46.8449L38.7287 211.145L27.9815 198.792ZM70.9052 221.491C69.0917 221.491 67.5458 221.134 66.2674 220.42C65.0188 219.707 64.008 218.77 63.235 217.611C62.4918 216.422 61.9418 215.158 61.585 213.82C61.2283 212.453 61.0499 211.16 61.0499 209.941C61.0499 208.306 61.2134 206.789 61.5404 205.392C61.8972 203.995 62.4472 202.776 63.1904 201.735C63.9634 200.665 64.9742 199.833 66.2228 199.238C67.5012 198.614 69.062 198.302 70.9052 198.302C72.9863 198.302 74.8592 198.807 76.5241 199.818C78.189 200.799 79.5119 202.166 80.493 203.92C81.4741 205.645 81.9646 207.651 81.9646 209.941C81.9646 212.23 81.4592 214.251 80.4484 216.005C79.4673 217.73 78.1444 219.082 76.4795 220.064C74.8147 221.015 72.9566 221.491 70.9052 221.491ZM69.4336 217.388C70.9201 217.388 72.2282 217.076 73.3579 216.451C74.4876 215.827 75.3647 214.95 75.989 213.82C76.6133 212.691 76.9255 211.397 76.9255 209.941C76.9255 207.711 76.2714 205.897 74.9633 204.5C73.6552 203.073 71.812 202.36 69.4336 202.36C67.9471 202.36 66.6093 202.672 65.4201 203.296C64.231 203.92 63.2945 204.797 62.6107 205.927C61.9269 207.027 61.585 208.365 61.585 209.941C61.585 211.368 61.8972 212.646 62.5215 213.776C63.1458 214.905 64.0377 215.797 65.1972 216.451C66.3566 217.076 67.7688 217.388 69.4336 217.388ZM56.6351 198.792H61.3621L61.585 204.233V229.919H56.6351V198.792ZM104.93 213.687H109.702C109.464 215.203 108.869 216.555 107.918 217.745C106.997 218.904 105.733 219.826 104.128 220.509C102.522 221.164 100.605 221.491 98.3749 221.491C95.8479 221.491 93.5885 221.03 91.5966 220.108C89.6047 219.157 88.0439 217.819 86.9142 216.095C85.7845 214.37 85.2196 212.319 85.2196 209.941C85.2196 207.592 85.7696 205.541 86.8696 203.787C87.9696 202.033 89.4858 200.68 91.4182 199.729C93.3804 198.777 95.6398 198.302 98.1966 198.302C100.842 198.302 103.042 198.777 104.797 199.729C106.58 200.65 107.903 202.047 108.765 203.92C109.628 205.764 109.984 208.097 109.836 210.922H90.2588C90.4074 212.17 90.8088 213.3 91.4628 214.311C92.1466 215.292 93.0682 216.065 94.2277 216.63C95.3871 217.165 96.7398 217.432 98.2858 217.432C100.01 217.432 101.452 217.091 102.611 216.407C103.801 215.723 104.574 214.816 104.93 213.687ZM98.0628 202.315C96.0412 202.315 94.3763 202.82 93.0682 203.831C91.7601 204.812 90.9128 206.076 90.5264 207.622H104.841C104.722 205.957 104.053 204.664 102.834 203.742C101.615 202.791 100.025 202.315 98.0628 202.315ZM114.251 198.792H119.2V221H114.251V198.792ZM127.227 203.029C125.622 203.029 124.24 203.37 123.08 204.054C121.95 204.738 121.044 205.57 120.36 206.551C119.676 207.533 119.2 208.484 118.933 209.405L118.888 206.908C118.918 206.581 119.022 206.091 119.2 205.437C119.379 204.753 119.646 204.01 120.003 203.207C120.39 202.404 120.895 201.631 121.519 200.888C122.173 200.115 122.961 199.491 123.883 199.015C124.834 198.539 125.949 198.302 127.227 198.302V203.029ZM136.771 189.383V194.154H130.84V189.383H136.771ZM131.286 198.792H136.28V221H131.286V198.792ZM160.76 213.687H165.532C165.294 215.203 164.699 216.555 163.748 217.745C162.826 218.904 161.563 219.826 159.958 220.509C158.352 221.164 156.435 221.491 154.205 221.491C151.678 221.491 149.418 221.03 147.427 220.108C145.435 219.157 143.874 217.819 142.744 216.095C141.614 214.37 141.05 212.319 141.05 209.941C141.05 207.592 141.6 205.541 142.7 203.787C143.8 202.033 145.316 200.68 147.248 199.729C149.21 198.777 151.47 198.302 154.026 198.302C156.672 198.302 158.872 198.777 160.626 199.729C162.41 200.65 163.733 202.047 164.595 203.92C165.457 205.764 165.814 208.097 165.666 210.922H146.089C146.237 212.17 146.639 213.3 147.293 214.311C147.977 215.292 148.898 216.065 150.058 216.63C151.217 217.165 152.57 217.432 154.116 217.432C155.84 217.432 157.282 217.091 158.441 216.407C159.631 215.723 160.403 214.816 160.76 213.687ZM153.893 202.315C151.871 202.315 150.206 202.82 148.898 203.831C147.59 204.812 146.743 206.076 146.356 207.622H160.671C160.552 205.957 159.883 204.664 158.664 203.742C157.445 202.791 155.855 202.315 153.893 202.315ZM170.08 198.792H175.03V221H170.08V198.792ZM184.395 198.302C185.674 198.302 186.848 198.48 187.918 198.837C189.018 199.193 189.955 199.743 190.728 200.487C191.53 201.2 192.14 202.092 192.556 203.162C193.002 204.233 193.225 205.496 193.225 206.953V221H188.275V207.934C188.275 206.12 187.829 204.783 186.937 203.92C186.075 203.029 184.707 202.583 182.834 202.583C181.407 202.583 180.099 202.895 178.91 203.519C177.751 204.114 176.799 204.901 176.056 205.883C175.313 206.834 174.882 207.889 174.763 209.049L174.718 206.641C174.867 205.541 175.194 204.5 175.699 203.519C176.205 202.508 176.874 201.616 177.706 200.843C178.538 200.041 179.52 199.416 180.649 198.97C181.779 198.524 183.028 198.302 184.395 198.302ZM222.595 212.393C222.416 214.296 221.807 215.931 220.766 217.299C219.726 218.666 218.329 219.707 216.574 220.42C214.85 221.134 212.858 221.491 210.599 221.491C208.161 221.491 205.946 221.045 203.954 220.153C201.992 219.261 200.431 217.953 199.272 216.228C198.112 214.504 197.533 212.408 197.533 209.941C197.533 207.473 198.112 205.377 199.272 203.653C200.431 201.929 201.992 200.606 203.954 199.684C205.946 198.762 208.161 198.302 210.599 198.302C212.858 198.302 214.85 198.673 216.574 199.416C218.299 200.13 219.681 201.156 220.722 202.493C221.762 203.831 222.372 205.451 222.55 207.354H218.001C217.496 205.778 216.574 204.56 215.237 203.697C213.929 202.806 212.383 202.36 210.599 202.36C209.142 202.36 207.804 202.657 206.585 203.251C205.366 203.816 204.385 204.664 203.642 205.793C202.929 206.893 202.572 208.276 202.572 209.941C202.572 211.576 202.929 212.958 203.642 214.088C204.385 215.218 205.366 216.065 206.585 216.63C207.804 217.165 209.142 217.432 210.599 217.432C212.561 217.432 214.166 217.001 215.415 216.139C216.693 215.247 217.57 213.999 218.046 212.393H222.595ZM245.507 213.687H250.278C250.04 215.203 249.446 216.555 248.495 217.745C247.573 218.904 246.309 219.826 244.704 220.509C243.099 221.164 241.181 221.491 238.951 221.491C236.424 221.491 234.165 221.03 232.173 220.108C230.181 219.157 228.62 217.819 227.491 216.095C226.361 214.37 225.796 212.319 225.796 209.941C225.796 207.592 226.346 205.541 227.446 203.787C228.546 202.033 230.062 200.68 231.995 199.729C233.957 198.777 236.216 198.302 238.773 198.302C241.419 198.302 243.619 198.777 245.373 199.729C247.157 200.65 248.48 202.047 249.342 203.92C250.204 205.764 250.561 208.097 250.412 210.922H230.835C230.984 212.17 231.385 213.3 232.039 214.311C232.723 215.292 233.645 216.065 234.804 216.63C235.964 217.165 237.316 217.432 238.862 217.432C240.586 217.432 242.028 217.091 243.188 216.407C244.377 215.723 245.15 214.816 245.507 213.687ZM238.639 202.315C236.618 202.315 234.953 202.82 233.645 203.831C232.337 204.812 231.489 206.076 231.103 207.622H245.418C245.299 205.957 244.63 204.664 243.411 203.742C242.192 202.791 240.601 202.315 238.639 202.315ZM253.846 213.687H258.439C258.677 214.816 259.286 215.738 260.267 216.451C261.249 217.135 262.571 217.477 264.236 217.477C265.307 217.477 266.139 217.358 266.734 217.12C267.358 216.882 267.789 216.555 268.027 216.139C268.294 215.723 268.428 215.247 268.428 214.712C268.428 214.058 268.235 213.553 267.848 213.196C267.492 212.839 266.957 212.542 266.243 212.304C265.53 212.066 264.638 211.858 263.567 211.68C262.467 211.412 261.382 211.115 260.312 210.788C259.242 210.461 258.276 210.06 257.413 209.584C256.551 209.078 255.867 208.454 255.362 207.711C254.886 206.938 254.649 206.001 254.649 204.901C254.649 203.891 254.872 202.984 255.317 202.181C255.793 201.349 256.447 200.65 257.28 200.085C258.112 199.52 259.093 199.089 260.223 198.792C261.353 198.465 262.586 198.302 263.924 198.302C265.857 198.302 267.462 198.614 268.74 199.238C270.048 199.862 271.03 200.739 271.684 201.869C272.367 202.999 272.709 204.292 272.709 205.749H268.339C268.101 204.56 267.64 203.697 266.957 203.162C266.273 202.627 265.247 202.36 263.88 202.36C262.512 202.36 261.471 202.597 260.758 203.073C260.044 203.549 259.688 204.203 259.688 205.035C259.688 205.66 259.911 206.165 260.357 206.551C260.832 206.908 261.501 207.22 262.363 207.488C263.226 207.756 264.236 208.023 265.396 208.291C266.466 208.588 267.477 208.9 268.428 209.227C269.38 209.524 270.227 209.911 270.97 210.387C271.743 210.833 272.352 211.427 272.798 212.17C273.244 212.914 273.467 213.835 273.467 214.935C273.467 216.303 273.096 217.477 272.352 218.458C271.639 219.439 270.598 220.197 269.231 220.732C267.863 221.238 266.213 221.491 264.281 221.491C262.586 221.491 261.115 221.297 259.866 220.911C258.647 220.524 257.622 220.019 256.789 219.395C255.986 218.77 255.362 218.101 254.916 217.388C254.47 216.674 254.158 215.991 253.98 215.337C253.831 214.682 253.786 214.132 253.846 213.687Z" fill="white"/>
<path d="M287.204 198.792H302.901V202.85H287.204V198.792ZM292.555 192.816H297.55V221H292.555V192.816ZM325.435 221V208.157C325.435 206.968 325.226 205.987 324.81 205.214C324.424 204.411 323.814 203.801 322.982 203.385C322.149 202.969 321.049 202.761 319.682 202.761C318.314 202.761 317.066 203.058 315.936 203.653C314.806 204.218 313.885 204.976 313.171 205.927C312.458 206.878 312.041 207.934 311.923 209.093L311.878 206.596C312.027 205.526 312.354 204.5 312.859 203.519C313.364 202.508 314.033 201.616 314.866 200.843C315.698 200.07 316.679 199.461 317.809 199.015C318.939 198.539 320.187 198.302 321.555 198.302C322.833 198.302 324.008 198.48 325.078 198.837C326.178 199.193 327.114 199.729 327.887 200.442C328.69 201.126 329.299 201.988 329.716 203.029C330.162 204.039 330.385 205.214 330.385 206.551V221H325.435ZM307.24 221V189.873H312.19V221H307.24ZM345.785 221.491C343.763 221.491 341.905 221 340.211 220.019C338.546 219.038 337.208 217.685 336.197 215.961C335.216 214.207 334.726 212.2 334.726 209.941C334.726 207.622 335.231 205.6 336.242 203.876C337.253 202.122 338.62 200.754 340.344 199.773C342.069 198.792 344.001 198.302 346.142 198.302C348.52 198.302 350.408 198.822 351.805 199.862C353.202 200.903 354.198 202.3 354.793 204.054C355.388 205.808 355.685 207.77 355.685 209.941C355.685 211.16 355.506 212.453 355.15 213.82C354.793 215.158 354.228 216.407 353.455 217.566C352.712 218.726 351.701 219.677 350.423 220.42C349.174 221.134 347.628 221.491 345.785 221.491ZM347.301 217.388C348.966 217.388 350.378 217.076 351.538 216.451C352.727 215.797 353.619 214.905 354.213 213.776C354.838 212.646 355.15 211.368 355.15 209.941C355.15 208.365 354.838 207.027 354.213 205.927C353.589 204.797 352.697 203.935 351.538 203.341C350.378 202.716 348.966 202.404 347.301 202.404C344.923 202.404 343.079 203.103 341.771 204.5C340.463 205.897 339.809 207.711 339.809 209.941C339.809 211.397 340.121 212.691 340.746 213.82C341.4 214.95 342.292 215.827 343.421 216.451C344.551 217.076 345.844 217.388 347.301 217.388ZM355.15 198.792H360.144V221H355.506C355.506 221 355.477 220.718 355.417 220.153C355.358 219.588 355.298 218.904 355.239 218.101C355.179 217.269 355.15 216.481 355.15 215.738V198.792ZM364.025 198.792H379.722V202.85H364.025V198.792ZM369.376 192.816H374.37V221H369.376V192.816Z" fill="white"/>
<path d="M417.667 212.393C417.489 214.296 416.88 215.931 415.839 217.299C414.798 218.666 413.401 219.707 411.647 220.42C409.923 221.134 407.931 221.491 405.672 221.491C403.234 221.491 401.019 221.045 399.027 220.153C397.065 219.261 395.504 217.953 394.345 216.228C393.185 214.504 392.605 212.408 392.605 209.941C392.605 207.473 393.185 205.377 394.345 203.653C395.504 201.929 397.065 200.606 399.027 199.684C401.019 198.762 403.234 198.302 405.672 198.302C407.931 198.302 409.923 198.673 411.647 199.416C413.371 200.13 414.754 201.156 415.794 202.493C416.835 203.831 417.444 205.451 417.623 207.354H413.074C412.569 205.778 411.647 204.56 410.309 203.697C409.001 202.806 407.455 202.36 405.672 202.36C404.215 202.36 402.877 202.657 401.658 203.251C400.439 203.816 399.458 204.664 398.715 205.793C398.001 206.893 397.645 208.276 397.645 209.941C397.645 211.576 398.001 212.958 398.715 214.088C399.458 215.218 400.439 216.065 401.658 216.63C402.877 217.165 404.215 217.432 405.672 217.432C407.634 217.432 409.239 217.001 410.488 216.139C411.766 215.247 412.643 213.999 413.119 212.393H417.667ZM431.928 221.491C429.907 221.491 428.048 221 426.354 220.019C424.689 219.038 423.351 217.685 422.34 215.961C421.359 214.207 420.869 212.2 420.869 209.941C420.869 207.622 421.374 205.6 422.385 203.876C423.396 202.122 424.763 200.754 426.488 199.773C428.212 198.792 430.144 198.302 432.285 198.302C434.663 198.302 436.551 198.822 437.948 199.862C439.346 200.903 440.342 202.3 440.936 204.054C441.531 205.808 441.828 207.77 441.828 209.941C441.828 211.16 441.65 212.453 441.293 213.82C440.936 215.158 440.371 216.407 439.598 217.566C438.855 218.726 437.844 219.677 436.566 220.42C435.317 221.134 433.771 221.491 431.928 221.491ZM433.444 217.388C435.109 217.388 436.521 217.076 437.681 216.451C438.87 215.797 439.762 214.905 440.356 213.776C440.981 212.646 441.293 211.368 441.293 209.941C441.293 208.365 440.981 207.027 440.356 205.927C439.732 204.797 438.84 203.935 437.681 203.341C436.521 202.716 435.109 202.404 433.444 202.404C431.066 202.404 429.223 203.103 427.915 204.5C426.607 205.897 425.952 207.711 425.952 209.941C425.952 211.397 426.265 212.691 426.889 213.82C427.543 214.95 428.435 215.827 429.565 216.451C430.694 217.076 431.988 217.388 433.444 217.388ZM441.293 198.792H446.287V221H441.65C441.65 221 441.62 220.718 441.56 220.153C441.501 219.588 441.442 218.904 441.382 218.101C441.323 217.269 441.293 216.481 441.293 215.738V198.792ZM465.999 221.491C464.185 221.491 462.639 221.134 461.361 220.42C460.112 219.707 459.102 218.77 458.329 217.611C457.585 216.422 457.035 215.158 456.679 213.82C456.322 212.453 456.144 211.16 456.144 209.941C456.144 208.306 456.307 206.789 456.634 205.392C456.991 203.995 457.541 202.776 458.284 201.735C459.057 200.665 460.068 199.833 461.316 199.238C462.595 198.614 464.156 198.302 465.999 198.302C468.08 198.302 469.953 198.807 471.618 199.818C473.283 200.799 474.606 202.166 475.587 203.92C476.568 205.645 477.058 207.651 477.058 209.941C477.058 212.23 476.553 214.251 475.542 216.005C474.561 217.73 473.238 219.082 471.573 220.064C469.908 221.015 468.05 221.491 465.999 221.491ZM464.527 217.388C466.014 217.388 467.322 217.076 468.452 216.451C469.581 215.827 470.458 214.95 471.083 213.82C471.707 212.691 472.019 211.397 472.019 209.941C472.019 207.711 471.365 205.897 470.057 204.5C468.749 203.073 466.906 202.36 464.527 202.36C463.041 202.36 461.703 202.672 460.514 203.296C459.325 203.92 458.388 204.797 457.704 205.927C457.021 207.027 456.679 208.365 456.679 209.941C456.679 211.368 456.991 212.646 457.615 213.776C458.239 214.905 459.131 215.797 460.291 216.451C461.45 217.076 462.862 217.388 464.527 217.388ZM451.729 198.792H456.456L456.679 204.233V229.919H451.729V198.792ZM479.912 198.792H495.609V202.85H479.912V198.792ZM485.263 192.816H490.258V221H485.263V192.816ZM505.299 189.383V194.154H499.368V189.383H505.299ZM499.814 198.792H504.809V221H499.814V198.792ZM521.619 217.477H519.88L527.55 198.792H532.946L523.135 221H518.408L508.731 198.792H514.171L521.619 217.477ZM545.548 221.491C543.526 221.491 541.668 221 539.973 220.019C538.309 219.038 536.971 217.685 535.96 215.961C534.979 214.207 534.488 212.2 534.488 209.941C534.488 207.622 534.994 205.6 536.005 203.876C537.015 202.122 538.383 200.754 540.107 199.773C541.832 198.792 543.764 198.302 545.904 198.302C548.283 198.302 550.171 198.822 551.568 199.862C552.965 200.903 553.961 202.3 554.556 204.054C555.15 205.808 555.448 207.77 555.448 209.941C555.448 211.16 555.269 212.453 554.912 213.82C554.556 215.158 553.991 216.407 553.218 217.566C552.475 218.726 551.464 219.677 550.185 220.42C548.937 221.134 547.391 221.491 545.548 221.491ZM547.064 217.388C548.729 217.388 550.141 217.076 551.3 216.451C552.49 215.797 553.381 214.905 553.976 213.776C554.6 212.646 554.912 211.368 554.912 209.941C554.912 208.365 554.6 207.027 553.976 205.927C553.352 204.797 552.46 203.935 551.3 203.341C550.141 202.716 548.729 202.404 547.064 202.404C544.686 202.404 542.842 203.103 541.534 204.5C540.226 205.897 539.572 207.711 539.572 209.941C539.572 211.397 539.884 212.691 540.509 213.82C541.163 214.95 542.054 215.827 543.184 216.451C544.314 217.076 545.607 217.388 547.064 217.388ZM554.912 198.792H559.907V221H555.269C555.269 221 555.24 220.718 555.18 220.153C555.121 219.588 555.061 218.904 555.002 218.101C554.942 217.269 554.912 216.481 554.912 215.738V198.792ZM563.787 198.792H579.485V202.85H563.787V198.792ZM569.139 192.816H574.133V221H569.139V192.816ZM601.58 213.687H606.352C606.114 215.203 605.52 216.555 604.568 217.745C603.647 218.904 602.383 219.826 600.778 220.509C599.172 221.164 597.255 221.491 595.025 221.491C592.498 221.491 590.239 221.03 588.247 220.108C586.255 219.157 584.694 217.819 583.564 216.095C582.435 214.37 581.87 212.319 581.87 209.941C581.87 207.592 582.42 205.541 583.52 203.787C584.62 202.033 586.136 200.68 588.068 199.729C590.03 198.777 592.29 198.302 594.847 198.302C597.493 198.302 599.693 198.777 601.447 199.729C603.23 200.65 604.553 202.047 605.415 203.92C606.278 205.764 606.634 208.097 606.486 210.922H586.909C587.058 212.17 587.459 213.3 588.113 214.311C588.797 215.292 589.718 216.065 590.878 216.63C592.037 217.165 593.39 217.432 594.936 217.432C596.66 217.432 598.102 217.091 599.261 216.407C600.451 215.723 601.224 214.816 601.58 213.687ZM594.713 202.315C592.691 202.315 591.026 202.82 589.718 203.831C588.41 204.812 587.563 206.076 587.176 207.622H601.491C601.372 205.957 600.703 204.664 599.484 203.742C598.266 202.791 596.675 202.315 594.713 202.315Z" fill="white"/>
<path d="M15.6648 281.491C13.6432 281.491 11.7851 281 10.0905 280.019C8.42564 279.038 7.08781 277.685 6.077 275.961C5.09593 274.207 4.60539 272.2 4.60539 269.941C4.60539 267.622 5.1108 265.6 6.1216 263.876C7.1324 262.122 8.49996 260.754 10.2243 259.773C11.9486 258.792 13.881 258.302 16.0215 258.302C18.3999 258.302 20.2877 258.822 21.685 259.862C23.0823 260.903 24.0782 262.3 24.6728 264.054C25.2674 265.808 25.5647 267.77 25.5647 269.941C25.5647 271.16 25.3863 272.453 25.0296 273.82C24.6728 275.158 24.108 276.407 23.335 277.566C22.5917 278.726 21.5809 279.677 20.3026 280.42C19.0539 281.134 17.508 281.491 15.6648 281.491ZM17.181 277.388C18.8458 277.388 20.258 277.076 21.4174 276.451C22.6066 275.797 23.4985 274.905 24.0931 273.776C24.7174 272.646 25.0296 271.368 25.0296 269.941C25.0296 268.365 24.7174 267.027 24.0931 265.927C23.4688 264.797 22.5769 263.935 21.4174 263.341C20.258 262.716 18.8458 262.404 17.181 262.404C14.8026 262.404 12.9594 263.103 11.6513 264.5C10.3432 265.897 9.68914 267.711 9.68914 269.941C9.68914 271.397 10.0013 272.691 10.6256 273.82C11.2797 274.95 12.1716 275.827 13.3013 276.451C14.431 277.076 15.7242 277.388 17.181 277.388ZM25.0296 258.792H30.0241V281H25.3863C25.3863 281 25.3566 280.718 25.2971 280.153C25.2377 279.588 25.1782 278.904 25.1188 278.101C25.0593 277.269 25.0296 276.481 25.0296 275.738V258.792ZM35.4653 258.792H40.4153V281H35.4653V258.792ZM49.7801 258.302C51.0584 258.302 52.2328 258.48 53.303 258.837C54.403 259.193 55.3395 259.743 56.1125 260.487C56.9152 261.2 57.5246 262.092 57.9408 263.162C58.3868 264.233 58.6097 265.496 58.6097 266.953V281H53.6598V267.934C53.6598 266.12 53.2138 264.783 52.3219 263.92C51.4598 263.029 50.0922 262.583 48.2193 262.583C46.7923 262.583 45.4842 262.895 44.295 263.519C43.1355 264.114 42.1842 264.901 41.4409 265.883C40.6977 266.834 40.2666 267.889 40.1477 269.049L40.1031 266.641C40.2518 265.541 40.5788 264.5 41.0842 263.519C41.5896 262.508 42.2585 261.616 43.0909 260.843C43.9234 260.041 44.9044 259.416 46.0342 258.97C47.1639 258.524 48.4125 258.302 49.7801 258.302ZM73.977 281.491C71.9257 281.491 70.0527 281 68.3581 280.019C66.6933 279.038 65.3703 277.685 64.3892 275.961C63.4082 274.207 62.9176 272.2 62.9176 269.941C62.9176 267.622 63.3933 265.6 64.3446 263.876C65.3257 262.122 66.6338 260.754 68.2689 259.773C69.9338 258.792 71.8365 258.302 73.977 258.302C75.85 258.302 77.4256 258.614 78.704 259.238C79.9824 259.833 80.9932 260.665 81.7364 261.735C82.4796 262.776 83.0148 263.995 83.3418 265.392C83.6985 266.789 83.8769 268.306 83.8769 269.941C83.8769 271.16 83.6985 272.453 83.3418 273.82C82.985 275.158 82.4202 276.407 81.6472 277.566C80.904 278.726 79.8932 279.677 78.6148 280.42C77.3662 281.134 75.8202 281.491 73.977 281.491ZM75.4932 277.388C77.158 277.388 78.5702 277.076 79.7297 276.451C80.9188 275.797 81.8107 274.905 82.4053 273.776C83.0296 272.646 83.3418 271.368 83.3418 269.941C83.3418 268.365 83.0296 267.027 82.4053 265.927C81.781 264.797 80.8891 263.92 79.7297 263.296C78.5702 262.672 77.158 262.36 75.4932 262.36C73.1148 262.36 71.2716 263.073 69.9635 264.5C68.6554 265.897 68.0014 267.711 68.0014 269.941C68.0014 271.397 68.3135 272.691 68.9378 273.82C69.5919 274.95 70.4838 275.827 71.6135 276.451C72.7432 277.076 74.0365 277.388 75.4932 277.388ZM83.3418 249.873H88.3363V281H83.6985C83.6391 280.316 83.5648 279.469 83.4756 278.458C83.3864 277.447 83.3418 276.541 83.3418 275.738V249.873Z" fill="white"/>
<path d="M110.562 249.383V254.154H104.631V249.383H110.562ZM105.077 258.792H110.072V281H105.077V258.792ZM116.001 258.792H120.95V281H116.001V258.792ZM130.315 258.302C131.594 258.302 132.768 258.48 133.838 258.837C134.938 259.193 135.875 259.743 136.648 260.487C137.45 261.2 138.06 262.092 138.476 263.162C138.922 264.233 139.145 265.496 139.145 266.953V281H134.195V267.934C134.195 266.12 133.749 264.783 132.857 263.92C131.995 263.029 130.627 262.583 128.754 262.583C127.327 262.583 126.019 262.895 124.83 263.519C123.671 264.114 122.719 264.901 121.976 265.883C121.233 266.834 120.802 267.889 120.683 269.049L120.638 266.641C120.787 265.541 121.114 264.5 121.619 263.519C122.125 262.508 122.794 261.616 123.626 260.843C124.459 260.041 125.44 259.416 126.569 258.97C127.699 258.524 128.948 258.302 130.315 258.302ZM143.631 273.687H148.224C148.462 274.816 149.072 275.738 150.053 276.451C151.034 277.135 152.357 277.477 154.022 277.477C155.092 277.477 155.924 277.358 156.519 277.12C157.143 276.882 157.574 276.555 157.812 276.139C158.08 275.723 158.214 275.247 158.214 274.712C158.214 274.058 158.02 273.553 157.634 273.196C157.277 272.839 156.742 272.542 156.028 272.304C155.315 272.066 154.423 271.858 153.353 271.68C152.253 271.412 151.168 271.115 150.097 270.788C149.027 270.461 148.061 270.06 147.199 269.584C146.337 269.078 145.653 268.454 145.147 267.711C144.672 266.938 144.434 266.001 144.434 264.901C144.434 263.891 144.657 262.984 145.103 262.181C145.578 261.349 146.233 260.65 147.065 260.085C147.897 259.52 148.878 259.089 150.008 258.792C151.138 258.465 152.372 258.302 153.709 258.302C155.642 258.302 157.247 258.614 158.526 259.238C159.834 259.862 160.815 260.739 161.469 261.869C162.153 262.999 162.495 264.292 162.495 265.749H158.124C157.886 264.56 157.426 263.697 156.742 263.162C156.058 262.627 155.032 262.36 153.665 262.36C152.297 262.36 151.257 262.597 150.543 263.073C149.83 263.549 149.473 264.203 149.473 265.035C149.473 265.66 149.696 266.165 150.142 266.551C150.618 266.908 151.287 267.22 152.149 267.488C153.011 267.756 154.022 268.023 155.181 268.291C156.251 268.588 157.262 268.9 158.214 269.227C159.165 269.524 160.012 269.911 160.755 270.387C161.528 270.833 162.138 271.427 162.584 272.17C163.03 272.914 163.253 273.835 163.253 274.935C163.253 276.303 162.881 277.477 162.138 278.458C161.424 279.439 160.384 280.197 159.016 280.732C157.649 281.238 155.999 281.491 154.066 281.491C152.372 281.491 150.9 281.297 149.651 280.911C148.432 280.524 147.407 280.019 146.574 279.395C145.772 278.77 145.147 278.101 144.701 277.388C144.256 276.674 143.943 275.991 143.765 275.337C143.616 274.682 143.572 274.132 143.631 273.687ZM182.007 281.491C180.193 281.491 178.648 281.134 177.369 280.42C176.121 279.707 175.11 278.77 174.337 277.611C173.594 276.422 173.044 275.158 172.687 273.82C172.33 272.453 172.152 271.16 172.152 269.941C172.152 268.306 172.315 266.789 172.642 265.392C172.999 263.995 173.549 262.776 174.292 261.735C175.065 260.665 176.076 259.833 177.325 259.238C178.603 258.614 180.164 258.302 182.007 258.302C184.088 258.302 185.961 258.807 187.626 259.818C189.291 260.799 190.614 262.166 191.595 263.92C192.576 265.645 193.066 267.651 193.066 269.941C193.066 272.23 192.561 274.251 191.55 276.005C190.569 277.73 189.246 279.082 187.581 280.064C185.916 281.015 184.058 281.491 182.007 281.491ZM180.535 277.388C182.022 277.388 183.33 277.076 184.46 276.451C185.589 275.827 186.466 274.95 187.091 273.82C187.715 272.691 188.027 271.397 188.027 269.941C188.027 267.711 187.373 265.897 186.065 264.5C184.757 263.073 182.914 262.36 180.535 262.36C179.049 262.36 177.711 262.672 176.522 263.296C175.333 263.92 174.396 264.797 173.712 265.927C173.029 267.027 172.687 268.365 172.687 269.941C172.687 271.368 172.999 272.646 173.623 273.776C174.248 274.905 175.139 275.797 176.299 276.451C177.458 277.076 178.871 277.388 180.535 277.388ZM167.737 258.792H172.464L172.687 264.233V289.919H167.737V258.792ZM203.278 249.383V254.154H197.347V249.383H203.278ZM197.793 258.792H202.788V281H197.793V258.792ZM208.717 258.792H213.666V281H208.717V258.792ZM221.693 263.029C220.088 263.029 218.706 263.37 217.546 264.054C216.416 264.738 215.51 265.57 214.826 266.551C214.142 267.533 213.666 268.484 213.399 269.405L213.354 266.908C213.384 266.581 213.488 266.091 213.666 265.437C213.845 264.753 214.112 264.01 214.469 263.207C214.856 262.404 215.361 261.631 215.985 260.888C216.639 260.115 217.427 259.491 218.349 259.015C219.3 258.539 220.415 258.302 221.693 258.302V263.029ZM243.991 273.687H248.762C248.524 275.203 247.93 276.555 246.978 277.745C246.057 278.904 244.793 279.826 243.188 280.509C241.582 281.164 239.665 281.491 237.435 281.491C234.908 281.491 232.649 281.03 230.657 280.108C228.665 279.157 227.104 277.819 225.974 276.095C224.845 274.37 224.28 272.319 224.28 269.941C224.28 267.592 224.83 265.541 225.93 263.787C227.03 262.033 228.546 260.68 230.479 259.729C232.441 258.777 234.7 258.302 237.257 258.302C239.903 258.302 242.103 258.777 243.857 259.729C245.641 260.65 246.964 262.047 247.826 263.92C248.688 265.764 249.045 268.097 248.896 270.922H229.319C229.468 272.17 229.869 273.3 230.523 274.311C231.207 275.292 232.128 276.065 233.288 276.63C234.447 277.165 235.8 277.432 237.346 277.432C239.07 277.432 240.512 277.091 241.672 276.407C242.861 275.723 243.634 274.816 243.991 273.687ZM237.123 262.315C235.101 262.315 233.437 262.82 232.128 263.831C230.82 264.812 229.973 266.076 229.587 267.622H243.901C243.782 265.957 243.114 264.664 241.895 263.742C240.676 262.791 239.085 262.315 237.123 262.315ZM258.806 276.184V281H252.875V276.184H258.806Z" fill="white"/>
<path d="M199.667 152.393C199.489 154.296 198.88 155.931 197.839 157.299C196.798 158.666 195.401 159.707 193.647 160.42C191.923 161.134 189.931 161.491 187.672 161.491C185.234 161.491 183.019 161.045 181.027 160.153C179.065 159.261 177.504 157.953 176.345 156.228C175.185 154.504 174.605 152.408 174.605 149.941C174.605 147.473 175.185 145.377 176.345 143.653C177.504 141.929 179.065 140.606 181.027 139.684C183.019 138.762 185.234 138.302 187.672 138.302C189.931 138.302 191.923 138.673 193.647 139.416C195.371 140.13 196.754 141.156 197.794 142.493C198.835 143.831 199.444 145.451 199.623 147.354H195.074C194.569 145.778 193.647 144.56 192.309 143.697C191.001 142.806 189.455 142.36 187.672 142.36C186.215 142.36 184.877 142.657 183.658 143.251C182.439 143.816 181.458 144.664 180.715 145.793C180.001 146.893 179.645 148.276 179.645 149.941C179.645 151.576 180.001 152.958 180.715 154.088C181.458 155.218 182.439 156.065 183.658 156.63C184.877 157.165 186.215 157.432 187.672 157.432C189.634 157.432 191.239 157.001 192.488 156.139C193.766 155.247 194.643 153.999 195.119 152.393H199.667ZM204.028 138.792H208.978V161H204.028V138.792ZM217.005 143.029C215.4 143.029 214.017 143.37 212.858 144.054C211.728 144.738 210.821 145.57 210.138 146.551C209.454 147.533 208.978 148.484 208.711 149.405L208.666 146.908C208.696 146.581 208.8 146.091 208.978 145.437C209.157 144.753 209.424 144.01 209.781 143.207C210.167 142.404 210.673 141.631 211.297 140.888C211.951 140.115 212.739 139.491 213.661 139.015C214.612 138.539 215.727 138.302 217.005 138.302V143.029ZM239.302 153.687H244.074C243.836 155.203 243.241 156.555 242.29 157.745C241.368 158.904 240.105 159.826 238.5 160.509C236.894 161.164 234.977 161.491 232.747 161.491C230.22 161.491 227.96 161.03 225.969 160.108C223.977 159.157 222.416 157.819 221.286 156.095C220.156 154.37 219.592 152.319 219.592 149.941C219.592 147.592 220.142 145.541 221.242 143.787C222.342 142.033 223.858 140.68 225.79 139.729C227.752 138.777 230.012 138.302 232.569 138.302C235.214 138.302 237.414 138.777 239.168 139.729C240.952 140.65 242.275 142.047 243.137 143.92C244 145.764 244.356 148.097 244.208 150.922H224.631C224.779 152.17 225.181 153.3 225.835 154.311C226.519 155.292 227.44 156.065 228.6 156.63C229.759 157.165 231.112 157.432 232.658 157.432C234.382 157.432 235.824 157.091 236.983 156.407C238.173 155.723 238.946 154.816 239.302 153.687ZM232.435 142.315C230.413 142.315 228.748 142.82 227.44 143.831C226.132 144.812 225.285 146.076 224.898 147.622H239.213C239.094 145.957 238.425 144.664 237.206 143.742C235.987 142.791 234.397 142.315 232.435 142.315ZM258.522 161.491C256.501 161.491 254.643 161 252.948 160.019C251.283 159.038 249.945 157.685 248.935 155.961C247.954 154.207 247.463 152.2 247.463 149.941C247.463 147.622 247.968 145.6 248.979 143.876C249.99 142.122 251.358 140.754 253.082 139.773C254.806 138.792 256.739 138.302 258.879 138.302C261.258 138.302 263.145 138.822 264.543 139.862C265.94 140.903 266.936 142.3 267.53 144.054C268.125 145.808 268.422 147.77 268.422 149.941C268.422 151.16 268.244 152.453 267.887 153.82C267.53 155.158 266.966 156.407 266.193 157.566C265.449 158.726 264.439 159.677 263.16 160.42C261.912 161.134 260.366 161.491 258.522 161.491ZM260.039 157.388C261.703 157.388 263.116 157.076 264.275 156.451C265.464 155.797 266.356 154.905 266.951 153.776C267.575 152.646 267.887 151.368 267.887 149.941C267.887 148.365 267.575 147.027 266.951 145.927C266.326 144.797 265.435 143.935 264.275 143.341C263.116 142.716 261.703 142.404 260.039 142.404C257.66 142.404 255.817 143.103 254.509 144.5C253.201 145.897 252.547 147.711 252.547 149.941C252.547 151.397 252.859 152.691 253.483 153.82C254.137 154.95 255.029 155.827 256.159 156.451C257.289 157.076 258.582 157.388 260.039 157.388ZM267.887 138.792H272.882V161H268.244C268.244 161 268.214 160.718 268.155 160.153C268.095 159.588 268.036 158.904 267.976 158.101C267.917 157.269 267.887 156.481 267.887 155.738V138.792ZM276.762 138.792H292.459V142.85H276.762V138.792ZM282.113 132.816H287.108V161H282.113V132.816ZM302.15 129.383V134.154H296.218V129.383H302.15ZM296.664 138.792H301.659V161H296.664V138.792ZM318.469 157.477H316.73L324.4 138.792H329.796L319.985 161H315.258L305.581 138.792H311.022L318.469 157.477ZM339.166 129.383V134.154H333.235V129.383H339.166ZM333.681 138.792H338.676V161H333.681V138.792ZM343.044 138.792H358.741V142.85H343.044V138.792ZM348.395 132.816H353.39V161H348.395V132.816ZM360.627 138.792H365.934L374.897 160.108L370.616 161L360.627 138.792ZM385.377 138.792L371.107 169.919H365.889L371.999 157.745L380.07 138.792H385.377Z" fill="white"/>
<path d="M405.562 129.383V134.154H399.631V129.383H405.562ZM400.077 138.792H405.072V161H400.077V138.792ZM411.001 138.792H415.95V161H411.001V138.792ZM425.315 138.302C426.594 138.302 427.768 138.48 428.838 138.837C429.938 139.193 430.875 139.743 431.648 140.487C432.45 141.2 433.06 142.092 433.476 143.162C433.922 144.233 434.145 145.496 434.145 146.953V161H429.195V147.934C429.195 146.12 428.749 144.783 427.857 143.92C426.995 143.029 425.627 142.583 423.754 142.583C422.327 142.583 421.019 142.895 419.83 143.519C418.671 144.114 417.719 144.901 416.976 145.883C416.233 146.834 415.802 147.889 415.683 149.049L415.638 146.641C415.787 145.541 416.114 144.5 416.619 143.519C417.125 142.508 417.794 141.616 418.626 140.843C419.459 140.041 420.44 139.416 421.569 138.97C422.699 138.524 423.948 138.302 425.315 138.302ZM438.051 138.792H453.749V142.85H438.051V138.792ZM443.403 132.816H448.397V161H443.403V132.816ZM469.111 161.491C466.643 161.491 464.428 161.045 462.466 160.153C460.504 159.261 458.958 157.953 457.828 156.228C456.699 154.504 456.134 152.408 456.134 149.941C456.134 147.503 456.699 145.422 457.828 143.697C458.958 141.943 460.504 140.606 462.466 139.684C464.428 138.762 466.643 138.302 469.111 138.302C471.578 138.302 473.778 138.762 475.711 139.684C477.643 140.606 479.159 141.943 480.259 143.697C481.389 145.422 481.954 147.503 481.954 149.941C481.954 152.408 481.389 154.504 480.259 156.228C479.159 157.953 477.643 159.261 475.711 160.153C473.778 161.045 471.578 161.491 469.111 161.491ZM469.111 157.432C470.538 157.432 471.846 157.15 473.035 156.585C474.224 156.02 475.161 155.173 475.844 154.043C476.558 152.914 476.915 151.546 476.915 149.941C476.915 148.335 476.558 146.968 475.844 145.838C475.161 144.708 474.224 143.846 473.035 143.251C471.876 142.627 470.567 142.315 469.111 142.315C467.654 142.315 466.331 142.612 465.142 143.207C463.953 143.801 462.986 144.664 462.243 145.793C461.53 146.923 461.173 148.306 461.173 149.941C461.173 151.546 461.53 152.914 462.243 154.043C462.957 155.173 463.908 156.02 465.097 156.585C466.316 157.15 467.654 157.432 469.111 157.432Z" fill="white"/>
<path d="M105.254 97.2541L103.782 97.2095L110.248 78.7921H115.689L107.038 101H102.355L95.4431 82.4934H97.0039L89.9134 101H85.231L76.7581 78.7921H82.1986L88.4864 97.2541H87.0148L93.3472 78.7921H99.1444L105.254 97.2541ZM137.906 101V88.1569C137.906 86.9677 137.698 85.9866 137.282 85.2136C136.895 84.4109 136.286 83.8015 135.453 83.3853C134.621 82.9691 133.521 82.7609 132.153 82.7609C130.786 82.7609 129.537 83.0582 128.407 83.6528C127.278 84.2177 126.356 84.9758 125.642 85.9271C124.929 86.8785 124.513 87.9339 124.394 89.0933L124.349 86.5961C124.498 85.5258 124.825 84.5001 125.33 83.519C125.836 82.5082 126.505 81.6164 127.337 80.8434C128.169 80.0704 129.151 79.461 130.28 79.015C131.41 78.5394 132.659 78.3015 134.026 78.3015C135.305 78.3015 136.479 78.4799 137.549 78.8367C138.649 79.1934 139.586 79.7285 140.359 80.442C141.161 81.1258 141.771 81.988 142.187 83.0285C142.633 84.0393 142.856 85.2136 142.856 86.5515V101H137.906ZM119.711 101V69.8732H124.661V101H119.711ZM158.256 101.491C156.235 101.491 154.377 101 152.682 100.019C151.017 99.0379 149.679 97.6852 148.668 95.9608C147.687 94.2068 147.197 92.2001 147.197 89.9406C147.197 87.6217 147.702 85.6001 148.713 83.8758C149.724 82.1218 151.091 80.7542 152.816 79.7731C154.54 78.7921 156.472 78.3015 158.613 78.3015C160.991 78.3015 162.879 78.8218 164.276 79.8623C165.674 80.9029 166.67 82.3001 167.264 84.0542C167.859 85.8082 168.156 87.7704 168.156 89.9406C168.156 91.1595 167.978 92.4528 167.621 93.8203C167.264 95.1582 166.699 96.4068 165.926 97.5662C165.183 98.7257 164.172 99.677 162.894 100.42C161.645 101.134 160.099 101.491 158.256 101.491ZM159.772 97.3879C161.437 97.3879 162.849 97.0757 164.009 96.4514C165.198 95.7973 166.09 94.9055 166.685 93.7757C167.309 92.646 167.621 91.3676 167.621 89.9406C167.621 88.365 167.309 87.0271 166.685 85.9271C166.06 84.7974 165.168 83.9353 164.009 83.3407C162.849 82.7164 161.437 82.4042 159.772 82.4042C157.394 82.4042 155.551 83.1028 154.243 84.5001C152.935 85.8974 152.281 87.7109 152.281 89.9406C152.281 91.3974 152.593 92.6906 153.217 93.8203C153.871 94.95 154.763 95.8271 155.893 96.4514C157.022 97.0757 158.316 97.3879 159.772 97.3879ZM167.621 78.7921H172.616V101H167.978C167.978 101 167.948 100.718 167.889 100.153C167.829 99.5878 167.77 98.9041 167.71 98.1014C167.651 97.2689 167.621 96.4811 167.621 95.7379V78.7921ZM176.496 78.7921H192.193V82.8501H176.496V78.7921ZM181.847 72.8164H186.842V101H181.847V72.8164Z" fill="white"/>
<path d="M204.758 78.7921H210.065L219.028 100.108L214.747 101L204.758 78.7921ZM229.508 78.7921L215.238 109.919H210.02L216.13 97.7446L224.201 78.7921H229.508ZM244.015 101.491C241.547 101.491 239.333 101.045 237.37 100.153C235.408 99.2608 233.862 97.9527 232.733 96.2284C231.603 94.5041 231.038 92.4082 231.038 89.9406C231.038 87.5028 231.603 85.4217 232.733 83.6974C233.862 81.9434 235.408 80.6056 237.37 79.6839C239.333 78.7623 241.547 78.3015 244.015 78.3015C246.483 78.3015 248.683 78.7623 250.615 79.6839C252.547 80.6056 254.064 81.9434 255.164 83.6974C256.293 85.4217 256.858 87.5028 256.858 89.9406C256.858 92.4082 256.293 94.5041 255.164 96.2284C254.064 97.9527 252.547 99.2608 250.615 100.153C248.683 101.045 246.483 101.491 244.015 101.491ZM244.015 97.4325C245.442 97.4325 246.75 97.15 247.939 96.5852C249.128 96.0203 250.065 95.173 250.749 94.0433C251.462 92.9136 251.819 91.546 251.819 89.9406C251.819 88.3352 251.462 86.9677 250.749 85.838C250.065 84.7082 249.128 83.8461 247.939 83.2515C246.78 82.6272 245.472 82.315 244.015 82.315C242.558 82.315 241.235 82.6123 240.046 83.2069C238.857 83.8015 237.891 84.6636 237.147 85.7934C236.434 86.9231 236.077 88.3055 236.077 89.9406C236.077 91.546 236.434 92.9136 237.147 94.0433C237.861 95.173 238.812 96.0203 240.002 96.5852C241.22 97.15 242.558 97.4325 244.015 97.4325ZM284.433 101H279.483V78.7921H284.433V101ZM279.75 90.4312L279.795 91.8582C279.735 92.2447 279.602 92.8244 279.394 93.5974C279.215 94.3703 278.903 95.2176 278.457 96.1392C278.041 97.0311 277.476 97.8933 276.763 98.7257C276.079 99.5284 275.217 100.197 274.176 100.732C273.136 101.238 271.872 101.491 270.386 101.491C269.315 101.491 268.23 101.342 267.13 101.045C266.06 100.777 265.079 100.316 264.187 99.6622C263.325 99.0081 262.626 98.1162 262.091 96.9865C261.556 95.8568 261.288 94.4298 261.288 92.7055V78.7921H266.238V91.769C266.238 93.1663 266.461 94.2663 266.907 95.069C267.383 95.8419 268.037 96.3919 268.869 96.719C269.702 97.046 270.668 97.2095 271.768 97.2095C273.344 97.2095 274.681 96.8527 275.781 96.1392C276.881 95.4257 277.758 94.5487 278.412 93.5082C279.096 92.4379 279.542 91.4122 279.75 90.4312Z" fill="white"/>
<path d="M299.204 79.0596H315.303V83.0731H299.204V79.0596ZM312.003 69.8732H315.659V74.1543H312.894C312.062 74.1245 311.334 74.2137 310.709 74.4218C310.115 74.6299 309.639 75.0164 309.282 75.5813C308.955 76.1461 308.792 76.9488 308.792 77.9894V101H303.797V77.5434C303.797 75.7596 304.124 74.3029 304.778 73.1732C305.432 72.0435 306.369 71.211 307.588 70.6759C308.836 70.1408 310.308 69.8732 312.003 69.8732ZM337.215 93.6865H341.986C341.748 95.2027 341.154 96.5554 340.203 97.7446C339.281 98.9041 338.017 99.8257 336.412 100.509C334.807 101.164 332.889 101.491 330.659 101.491C328.132 101.491 325.873 101.03 323.881 100.108C321.889 99.1568 320.328 97.8189 319.199 96.0946C318.069 94.3703 317.504 92.319 317.504 89.9406C317.504 87.592 318.054 85.5407 319.154 83.7866C320.254 82.0326 321.77 80.6799 323.703 79.7285C325.665 78.7772 327.924 78.3015 330.481 78.3015C333.127 78.3015 335.327 78.7772 337.081 79.7285C338.865 80.6502 340.188 82.0474 341.05 83.9204C341.912 85.7636 342.269 88.0974 342.12 90.9217H322.543C322.692 92.1703 323.093 93.3001 323.747 94.3109C324.431 95.2919 325.353 96.0649 326.512 96.6298C327.672 97.1649 329.024 97.4325 330.57 97.4325C332.294 97.4325 333.736 97.0906 334.896 96.4068C336.085 95.723 336.858 94.8163 337.215 93.6865ZM330.347 82.315C328.326 82.315 326.661 82.8204 325.353 83.8312C324.045 84.8123 323.197 86.0758 322.811 87.6217H337.126C337.007 85.9569 336.338 84.6636 335.119 83.742C333.9 82.7907 332.309 82.315 330.347 82.315ZM365.086 93.6865H369.858C369.62 95.2027 369.025 96.5554 368.074 97.7446C367.152 98.9041 365.889 99.8257 364.283 100.509C362.678 101.164 360.761 101.491 358.531 101.491C356.004 101.491 353.744 101.03 351.752 100.108C349.761 99.1568 348.2 97.8189 347.07 96.0946C345.94 94.3703 345.375 92.319 345.375 89.9406C345.375 87.592 345.925 85.5407 347.025 83.7866C348.125 82.0326 349.642 80.6799 351.574 79.7285C353.536 78.7772 355.796 78.3015 358.352 78.3015C360.998 78.3015 363.198 78.7772 364.952 79.7285C366.736 80.6502 368.059 82.0474 368.921 83.9204C369.783 85.7636 370.14 88.0974 369.992 90.9217H350.415C350.563 92.1703 350.965 93.3001 351.619 94.3109C352.302 95.2919 353.224 96.0649 354.384 96.6298C355.543 97.1649 356.896 97.4325 358.442 97.4325C360.166 97.4325 361.608 97.0906 362.767 96.4068C363.956 95.723 364.729 94.8163 365.086 93.6865ZM358.219 82.315C356.197 82.315 354.532 82.8204 353.224 83.8312C351.916 84.8123 351.069 86.0758 350.682 87.6217H364.997C364.878 85.9569 364.209 84.6636 362.99 83.742C361.771 82.7907 360.181 82.315 358.219 82.315ZM374.852 69.8732H379.802V101H374.852V69.8732Z" fill="white"/>
<path d="M394.696 96.1838V101H388.765V96.1838H394.696Z" fill="white"/>
<path d="M417.326 72.1029H422.409V101H417.326V72.1029ZM429.84 83.2961L428.948 81.9582C429.423 81.2447 429.854 80.4866 430.241 79.6839C430.657 78.8515 430.88 78.034 430.91 77.2313L428.546 76.7407V71.9245H434.656V75.4029C434.656 77.365 434.195 78.9704 433.273 80.2191C432.381 81.4677 431.237 82.4934 429.84 83.2961ZM439.238 78.7921H444.188V101H439.238V78.7921ZM453.553 78.3015C454.831 78.3015 456.005 78.4799 457.076 78.8367C458.175 79.1934 459.112 79.7434 459.885 80.4866C460.688 81.2001 461.297 82.092 461.713 83.1623C462.159 84.2326 462.382 85.4961 462.382 86.9528V101H457.432V87.9339C457.432 86.1204 456.986 84.7826 456.094 83.9204C455.232 83.0285 453.865 82.5826 451.992 82.5826C450.565 82.5826 449.257 82.8947 448.067 83.519C446.908 84.1136 445.957 84.9015 445.213 85.8825C444.47 86.8339 444.039 87.8893 443.92 89.0487L443.876 86.6406C444.024 85.5407 444.351 84.5001 444.857 83.519C445.362 82.5082 446.031 81.6164 446.863 80.8434C447.696 80.0407 448.677 79.4164 449.807 78.9704C450.936 78.5245 452.185 78.3015 453.553 78.3015ZM471.256 78.3015C472.565 78.3015 473.754 78.4799 474.824 78.8367C475.894 79.1934 476.816 79.7434 477.589 80.4866C478.392 81.2001 479.016 82.092 479.462 83.1623C479.908 84.2326 480.131 85.4961 480.131 86.9528V101H475.136V87.9339C475.136 86.1204 474.69 84.7826 473.798 83.9204C472.936 83.0285 471.569 82.5826 469.696 82.5826C468.269 82.5826 466.961 82.8947 465.771 83.519C464.612 84.1136 463.661 84.9015 462.917 85.8825C462.204 86.8339 461.788 87.8893 461.669 89.0487L461.58 86.5515C461.728 85.4812 462.07 84.4555 462.605 83.4745C463.14 82.4637 463.824 81.5718 464.657 80.7988C465.489 80.0258 466.455 79.4164 467.555 78.9704C468.685 78.5245 469.919 78.3015 471.256 78.3015Z" fill="white"/>
<path d="M494.561 91.4122H499.511C499.63 92.5122 500.061 93.5082 500.804 94.4C501.577 95.2622 502.588 95.946 503.836 96.4514C505.115 96.9271 506.572 97.1649 508.207 97.1649C509.663 97.1649 510.867 96.9865 511.819 96.6298C512.77 96.273 513.469 95.7825 513.915 95.1582C514.39 94.5041 514.628 93.746 514.628 92.8838C514.628 92.0217 514.346 91.3528 513.781 90.8771C513.246 90.3717 512.413 89.9555 511.284 89.6285C510.154 89.2717 508.712 88.9298 506.958 88.6028C505.501 88.3352 504.089 87.9785 502.722 87.5325C501.354 87.0866 500.12 86.5217 499.02 85.838C497.95 85.1542 497.103 84.3217 496.478 83.3407C495.854 82.3299 495.542 81.1407 495.542 79.7731C495.542 78.2272 495.973 76.8299 496.835 75.5813C497.727 74.3326 499.035 73.3516 500.759 72.638C502.484 71.9245 504.58 71.5678 507.047 71.5678C510.823 71.5678 513.707 72.4448 515.698 74.1988C517.69 75.9232 518.657 78.2718 518.597 81.2447H513.736C513.647 79.3718 512.963 78.0191 511.685 77.1867C510.407 76.3542 508.786 75.938 506.824 75.938C505.07 75.938 503.599 76.2502 502.409 76.8745C501.22 77.4988 500.626 78.5096 500.626 79.9069C500.626 80.5015 500.759 81.0218 501.027 81.4677C501.324 81.8839 501.8 82.2704 502.454 82.6272C503.108 82.9542 504 83.2812 505.13 83.6082C506.289 83.9055 507.701 84.2326 509.366 84.5893C510.793 84.8271 512.131 85.1542 513.38 85.5704C514.628 85.9866 515.713 86.5069 516.635 87.1312C517.586 87.7555 518.33 88.5582 518.865 89.5393C519.4 90.5203 519.667 91.7244 519.667 93.1514C519.667 94.7865 519.251 96.2433 518.419 97.5216C517.586 98.7703 516.308 99.7662 514.584 100.509C512.889 101.223 510.689 101.58 507.984 101.58C505.932 101.58 504.134 101.342 502.588 100.866C501.072 100.361 499.778 99.7216 498.708 98.9487C497.638 98.146 496.776 97.2838 496.122 96.3622C495.497 95.4406 495.051 94.5487 494.784 93.6865C494.546 92.7947 494.472 92.0366 494.561 91.4122ZM542.843 101V88.1569C542.843 86.9677 542.635 85.9866 542.218 85.2136C541.832 84.4109 541.223 83.8015 540.39 83.3853C539.558 82.9691 538.458 82.7609 537.09 82.7609C535.723 82.7609 534.474 83.0582 533.344 83.6528C532.214 84.2177 531.293 84.9758 530.579 85.9271C529.866 86.8785 529.45 87.9339 529.331 89.0933L529.286 86.5961C529.435 85.5258 529.762 84.5001 530.267 83.519C530.773 82.5082 531.442 81.6164 532.274 80.8434C533.106 80.0704 534.087 79.461 535.217 79.015C536.347 78.5394 537.596 78.3015 538.963 78.3015C540.241 78.3015 541.416 78.4799 542.486 78.8367C543.586 79.1934 544.523 79.7285 545.295 80.442C546.098 81.1258 546.708 81.988 547.124 83.0285C547.57 84.0393 547.793 85.2136 547.793 86.5515V101H542.843ZM524.648 101V69.8732H529.598V101H524.648ZM553.293 78.7921H558.243V101H553.293V78.7921ZM566.27 83.0285C564.665 83.0285 563.282 83.3704 562.123 84.0542C560.993 84.738 560.086 85.5704 559.403 86.5515C558.719 87.5325 558.243 88.4839 557.976 89.4055L557.931 86.9082C557.961 86.5812 558.065 86.0907 558.243 85.4366C558.422 84.7528 558.689 84.0096 559.046 83.2069C559.432 82.4042 559.938 81.6312 560.562 80.888C561.216 80.115 562.004 79.4907 562.926 79.015C563.877 78.5394 564.992 78.3015 566.27 78.3015V83.0285ZM593.16 101H588.21V78.7921H593.16V101ZM588.478 90.4312L588.523 91.8582C588.463 92.2447 588.329 92.8244 588.121 93.5974C587.943 94.3703 587.631 95.2176 587.185 96.1392C586.769 97.0311 586.204 97.8933 585.49 98.7257C584.806 99.5284 583.944 100.197 582.904 100.732C581.863 101.238 580.6 101.491 579.113 101.491C578.043 101.491 576.958 101.342 575.858 101.045C574.788 100.777 573.807 100.316 572.915 99.6622C572.053 99.0081 571.354 98.1162 570.819 96.9865C570.284 95.8568 570.016 94.4298 570.016 92.7055V78.7921H574.966V91.769C574.966 93.1663 575.189 94.2663 575.635 95.069C576.111 95.8419 576.765 96.3919 577.597 96.719C578.429 97.046 579.396 97.2095 580.496 97.2095C582.071 97.2095 583.409 96.8527 584.509 96.1392C585.609 95.4257 586.486 94.5487 587.14 93.5082C587.824 92.4379 588.27 91.4122 588.478 90.4312ZM597.067 78.7921H612.764V82.8501H597.067V78.7921ZM602.418 72.8164H607.413V101H602.418V72.8164ZM622.454 69.3827V74.1543H616.523V69.3827H622.454ZM616.969 78.7921H621.964V101H616.969V78.7921ZM628.25 107.511L627.358 106.218C627.833 105.504 628.264 104.731 628.651 103.899C629.067 103.096 629.29 102.293 629.32 101.491L626.956 101V96.1838H633.066V99.6176C633.066 101.639 632.605 103.259 631.683 104.478C630.791 105.727 629.647 106.738 628.25 107.511Z" fill="white"/>
</svg>
