<svg width="71" height="40" viewBox="0 0 71 40" fill="none" xmlns="http://www.w3.org/2000/svg">
<rect width="71" height="40" rx="20" fill="black"/>
<path d="M13.328 27V15.08H14.896V20.392H20.864V15.08H22.448V27H20.864V21.832H14.896V27H13.328ZM29.0136 27.192C28.1816 27.192 27.4296 27 26.7576 26.616C26.0856 26.2213 25.5523 25.6827 25.1576 25C24.763 24.3173 24.5656 23.544 24.5656 22.68C24.5656 21.816 24.7576 21.048 25.1416 20.376C25.5363 19.704 26.0696 19.1707 26.7416 18.776C27.4136 18.3813 28.171 18.184 29.0136 18.184C29.8456 18.184 30.5976 18.3813 31.2696 18.776C31.9416 19.16 32.4696 19.688 32.8536 20.36C33.2483 21.032 33.4456 21.8053 33.4456 22.68C33.4456 23.5547 33.243 24.3333 32.8376 25.016C32.4323 25.688 31.8936 26.2213 31.2216 26.616C30.5603 27 29.8243 27.192 29.0136 27.192ZM29.0136 25.752C29.547 25.752 30.027 25.6187 30.4536 25.352C30.891 25.0853 31.2323 24.7173 31.4776 24.248C31.7336 23.7787 31.8616 23.256 31.8616 22.68C31.8616 22.0933 31.7336 21.576 31.4776 21.128C31.2323 20.6693 30.891 20.3067 30.4536 20.04C30.027 19.7627 29.547 19.624 29.0136 19.624C28.4696 19.624 27.979 19.7627 27.5416 20.04C27.115 20.3067 26.7736 20.6693 26.5176 21.128C26.2616 21.576 26.1336 22.0933 26.1336 22.68C26.1336 23.256 26.2616 23.7787 26.5176 24.248C26.7736 24.7173 27.115 25.0853 27.5416 25.352C27.979 25.6187 28.4696 25.752 29.0136 25.752ZM35.3864 27V18.376H36.8424V20.136L36.6344 19.864C36.8477 19.32 37.189 18.904 37.6584 18.616C38.1277 18.328 38.6557 18.184 39.2424 18.184C39.9144 18.184 40.517 18.3707 41.0504 18.744C41.5944 19.1173 41.9677 19.608 42.1704 20.216L41.7544 20.232C41.9784 19.56 42.357 19.0533 42.8904 18.712C43.4237 18.36 44.0157 18.184 44.6664 18.184C45.2637 18.184 45.8024 18.3227 46.2824 18.6C46.773 18.8773 47.1624 19.2613 47.4504 19.752C47.7384 20.2427 47.8824 20.7973 47.8824 21.416V27H46.3784V21.896C46.3784 21.416 46.293 21.0107 46.1224 20.68C45.9517 20.3493 45.717 20.0933 45.4184 19.912C45.1304 19.72 44.789 19.624 44.3944 19.624C44.0104 19.624 43.6637 19.72 43.3544 19.912C43.0557 20.0933 42.8157 20.3547 42.6344 20.696C42.4637 21.0267 42.3784 21.4267 42.3784 21.896V27H40.8744V21.896C40.8744 21.416 40.789 21.0107 40.6184 20.68C40.4477 20.3493 40.213 20.0933 39.9144 19.912C39.6264 19.72 39.285 19.624 38.8904 19.624C38.5064 19.624 38.1597 19.72 37.8504 19.912C37.5517 20.0933 37.3117 20.3547 37.1304 20.696C36.9597 21.0267 36.8744 21.4267 36.8744 21.896V27H35.3864ZM53.9638 27.192C53.1318 27.192 52.3904 26.9947 51.7398 26.6C51.0891 26.2053 50.5771 25.6667 50.2038 24.984C49.8304 24.2907 49.6438 23.5173 49.6438 22.664C49.6438 21.8 49.8251 21.032 50.1878 20.36C50.5611 19.688 51.0624 19.16 51.6918 18.776C52.3318 18.3813 53.0464 18.184 53.8358 18.184C54.4758 18.184 55.0411 18.3013 55.5318 18.536C56.0331 18.76 56.4544 19.0693 56.7958 19.464C57.1478 19.848 57.4144 20.2907 57.5958 20.792C57.7878 21.2827 57.8837 21.7947 57.8837 22.328C57.8837 22.4453 57.8731 22.5787 57.8518 22.728C57.8411 22.8667 57.8251 23 57.8038 23.128H50.7318V21.848H56.9398L56.2358 22.424C56.3318 21.8693 56.2784 21.3733 56.0758 20.936C55.8731 20.4987 55.5744 20.152 55.1798 19.896C54.7851 19.64 54.3371 19.512 53.8358 19.512C53.3344 19.512 52.8758 19.64 52.4598 19.896C52.0438 20.152 51.7184 20.52 51.4838 21C51.2598 21.4693 51.1691 22.0293 51.2118 22.68C51.1691 23.3093 51.2651 23.864 51.4998 24.344C51.7451 24.8133 52.0864 25.1813 52.5238 25.448C52.9718 25.704 53.4571 25.832 53.9798 25.832C54.5558 25.832 55.0411 25.6987 55.4358 25.432C55.8304 25.1653 56.1504 24.824 56.3958 24.408L57.6438 25.048C57.4731 25.4427 57.2064 25.8053 56.8438 26.136C56.4918 26.456 56.0704 26.712 55.5798 26.904C55.0998 27.096 54.5611 27.192 53.9638 27.192Z" fill="white"/>
</svg>
