<svg width="16" height="16" viewBox="0 0 16 16" fill="none" xmlns="http://www.w3.org/2000/svg">
<path d="M8 6.016C7.6076 6.016 7.22402 6.13236 6.89775 6.35036C6.57148 6.56837 6.31719 6.87823 6.16702 7.24076C6.01686 7.60328 5.97757 8.0022 6.05412 8.38706C6.13068 8.77192 6.31963 9.12543 6.5971 9.4029C6.87457 9.68037 7.22808 9.86932 7.61294 9.94588C7.9978 10.0224 8.39672 9.98314 8.75924 9.83298C9.12177 9.68281 9.43163 9.42852 9.64964 9.10225C9.86764 8.77598 9.984 8.3924 9.984 8C9.984 7.73946 9.93268 7.48147 9.83298 7.24076C9.73327 7.00005 9.58713 6.78133 9.4029 6.5971C9.21867 6.41287 8.99995 6.26673 8.75924 6.16702C8.51853 6.06732 8.26054 6.016 8 6.016ZM15.944 4.056C15.9403 3.43816 15.8265 2.82592 15.608 2.248C15.4474 1.82501 15.199 1.44088 14.8791 1.12095C14.5591 0.801021 14.175 0.552574 13.752 0.392C13.1741 0.173478 12.5618 0.0596991 11.944 0.0559999C10.912 -5.36442e-08 10.608 0 8 0C5.392 0 5.088 -5.36442e-08 4.056 0.0559999C3.43816 0.0596991 2.82592 0.173478 2.248 0.392C1.82501 0.552574 1.44088 0.801021 1.12095 1.12095C0.801021 1.44088 0.552574 1.82501 0.392 2.248C0.173478 2.82592 0.0596991 3.43816 0.0559999 4.056C-5.36442e-08 5.088 0 5.392 0 8C0 10.608 -5.36442e-08 10.912 0.0559999 11.944C0.0652238 12.5639 0.178813 13.1778 0.392 13.76C0.550964 14.1815 0.799322 14.5636 1.12 14.88C1.43872 15.2016 1.82363 15.4501 2.248 15.608C2.82592 15.8265 3.43816 15.9403 4.056 15.944C5.088 16 5.392 16 8 16C10.608 16 10.912 16 11.944 15.944C12.5618 15.9403 13.1741 15.8265 13.752 15.608C14.1764 15.4501 14.5613 15.2016 14.88 14.88C15.2007 14.5636 15.449 14.1815 15.608 13.76C15.8258 13.1791 15.9396 12.5644 15.944 11.944C16 10.912 16 10.608 16 8C16 5.392 16 5.088 15.944 4.056ZM13.912 10.456C13.8867 10.9497 13.7814 11.4361 13.6 11.896C13.4447 12.2797 13.2138 12.6284 12.9211 12.9211C12.6284 13.2138 12.2797 13.4447 11.896 13.6C11.4317 13.7713 10.9427 13.8659 10.448 13.88H5.552C5.05734 13.8659 4.56828 13.7713 4.104 13.6C3.70716 13.4528 3.34884 13.2176 3.056 12.912C2.76593 12.6252 2.54204 12.2784 2.4 11.896C2.22859 11.4321 2.13664 10.9425 2.128 10.448V5.552C2.13664 5.05748 2.22859 4.56795 2.4 4.104C2.54718 3.70716 2.78241 3.34884 3.088 3.056C3.37642 2.76789 3.72272 2.54429 4.104 2.4C4.56828 2.22871 5.05734 2.13414 5.552 2.12H10.448C10.9427 2.13414 11.4317 2.22871 11.896 2.4C12.2928 2.54718 12.6512 2.78241 12.944 3.088C13.2341 3.37484 13.458 3.72159 13.6 4.104C13.7713 4.56828 13.8659 5.05734 13.88 5.552V8C13.88 9.648 13.936 9.816 13.912 10.448V10.456ZM12.632 4.504C12.5368 4.24559 12.3866 4.01091 12.1918 3.81617C11.9971 3.62143 11.7624 3.47125 11.504 3.376C11.1492 3.25301 10.7755 3.19343 10.4 3.2H5.6C5.22261 3.20369 4.84886 3.27411 4.496 3.408C4.24154 3.49893 4.00935 3.64297 3.81487 3.83056C3.62038 4.01815 3.46805 4.24499 3.368 4.496C3.25224 4.85239 3.1955 5.22531 3.2 5.6V10.4C3.20837 10.7769 3.27864 11.1499 3.408 11.504C3.50325 11.7624 3.65343 11.9971 3.84817 12.1918C4.04291 12.3866 4.27759 12.5368 4.536 12.632C4.87744 12.7571 5.23657 12.8273 5.6 12.84H10.4C10.7774 12.8363 11.1511 12.7659 11.504 12.632C11.7624 12.5368 11.9971 12.3866 12.1918 12.1918C12.3866 11.9971 12.5368 11.7624 12.632 11.504C12.7659 11.1511 12.8363 10.7774 12.84 10.4V5.6C12.8399 5.22227 12.7693 4.84788 12.632 4.496V4.504ZM8 11.056C7.59906 11.056 7.20205 10.9769 6.83173 10.8232C6.46141 10.6695 6.12504 10.4443 5.84191 10.1604C5.55877 9.87655 5.33442 9.5396 5.18172 9.16888C5.02901 8.79815 4.95095 8.40094 4.952 8C4.952 7.39524 5.13144 6.80408 5.46759 6.30135C5.80374 5.79862 6.2815 5.40693 6.84037 5.17587C7.39925 4.9448 8.01412 4.88475 8.60714 5.00332C9.20017 5.12189 9.74468 5.41374 10.1717 5.84193C10.5988 6.27012 10.8892 6.81539 11.0063 7.40872C11.1233 8.00206 11.0616 8.61677 10.8291 9.17503C10.5965 9.7333 10.2036 10.21 9.7 10.5449C9.19639 10.8797 8.60476 11.0576 8 11.056ZM11.2 5.544C11.0232 5.52528 10.8595 5.44178 10.7405 5.30958C10.6216 5.17738 10.5558 5.00583 10.5558 4.828C10.5558 4.65017 10.6216 4.47862 10.7405 4.34642C10.8595 4.21422 11.0232 4.13072 11.2 4.112C11.3768 4.13072 11.5405 4.21422 11.6595 4.34642C11.7784 4.47862 11.8442 4.65017 11.8442 4.828C11.8442 5.00583 11.7784 5.17738 11.6595 5.30958C11.5405 5.44178 11.3768 5.52528 11.2 5.544Z" fill="white"/>
</svg>
