<svg width="16" height="16" viewBox="0 0 16 16" fill="none" xmlns="http://www.w3.org/2000/svg">
<path d="M14.7197 0.501346H1.36997C1.1979 0.493788 1.02593 0.518119 0.863901 0.572945C0.701874 0.627771 0.552974 0.712016 0.425723 0.820857C0.298472 0.929698 0.19537 1.061 0.122318 1.20724C0.049267 1.35348 0.00770096 1.51179 0 1.67312V14.2157C0.0100801 14.5534 0.157651 14.8746 0.412418 15.1134C0.667185 15.3522 1.00982 15.4906 1.36997 15.5H14.7197C15.0698 15.4854 15.3999 15.3427 15.6391 15.1027C15.8784 14.8626 16.0078 14.5442 15.9996 14.2157V1.67312C16.0025 1.5161 15.9711 1.3602 15.9074 1.21496C15.8437 1.06972 15.749 0.938205 15.6292 0.828488C15.5093 0.718771 15.3668 0.633161 15.2104 0.576906C15.054 0.520652 14.887 0.494939 14.7197 0.501346ZM4.99989 13.0065H2.66994V6.3227H4.99989V13.0065ZM3.88991 5.31029C3.72732 5.3156 3.56532 5.28934 3.41408 5.23315C3.26284 5.17696 3.12562 5.09206 3.01106 4.98378C2.89649 4.8755 2.80705 4.74618 2.74834 4.60395C2.68964 4.46171 2.66295 4.30964 2.66994 4.15727C2.66275 4.00325 2.68998 3.84953 2.74989 3.70596C2.80979 3.5624 2.90105 3.43215 3.0178 3.32358C3.13455 3.21502 3.27423 3.13053 3.42786 3.07554C3.58149 3.02054 3.74568 2.99626 3.90991 3.00425C4.0725 2.99894 4.2345 3.0252 4.38574 3.08139C4.53699 3.13758 4.6742 3.22248 4.78876 3.33076C4.90333 3.43904 4.99278 3.56835 5.05148 3.71059C5.11018 3.85282 5.13687 4.0049 5.12988 4.15727C5.13707 4.31128 5.10984 4.465 5.04993 4.60857C4.99003 4.75214 4.89877 4.88238 4.78202 4.99095C4.66527 5.09952 4.5256 5.18401 4.37197 5.239C4.21834 5.29399 4.05414 5.31828 3.88991 5.31029ZM13.3397 13.0065H10.9997V9.35055C10.9997 8.47875 10.6698 7.87881 9.83978 7.87881C9.58194 7.88091 9.3311 7.95771 9.12165 8.09868C8.91219 8.23965 8.75437 8.43789 8.6698 8.66624C8.60394 8.83723 8.5767 9.01918 8.5898 9.20056V13.0065H6.28986V6.3227H8.5898V7.26011C8.79428 6.90796 9.09863 6.61565 9.46922 6.41548C9.8398 6.21531 10.2622 6.11507 10.6898 6.12584C12.1997 6.12584 13.3397 7.06326 13.3397 9.05995V13.0065Z" fill="white"/>
</svg>
