<svg width="124" height="32" viewBox="0 0 124 32" fill="none" xmlns="http://www.w3.org/2000/svg">
<g id="Property 1=Variant2">
<rect width="124" height="32" rx="16" fill="white"/>
<g id="Frame 107">
<path id="Vector" d="M34.7197 8.50135H21.37C21.1979 8.49379 21.0259 8.51812 20.8639 8.57294C20.7019 8.62777 20.553 8.71202 20.4257 8.82086C20.2985 8.9297 20.1954 9.061 20.1223 9.20724C20.0493 9.35348 20.0077 9.51179 20 9.67312V22.2157C20.0101 22.5534 20.1577 22.8746 20.4124 23.1134C20.6672 23.3522 21.0098 23.4906 21.37 23.5H34.7197C35.0698 23.4854 35.3999 23.3427 35.6391 23.1027C35.8784 22.8626 36.0078 22.5442 35.9996 22.2157V9.67312C36.0025 9.5161 35.9711 9.3602 35.9074 9.21496C35.8437 9.06972 35.749 8.93821 35.6292 8.82849C35.5093 8.71877 35.3668 8.63316 35.2104 8.57691C35.054 8.52065 34.887 8.49494 34.7197 8.50135ZM24.9999 21.0065H22.6699V14.3227H24.9999V21.0065ZM23.8899 13.3103C23.7273 13.3156 23.5653 13.2893 23.4141 13.2331C23.2628 13.177 23.1256 13.0921 23.0111 12.9838C22.8965 12.8755 22.807 12.7462 22.7483 12.6039C22.6896 12.4617 22.6629 12.3096 22.6699 12.1573C22.6628 12.0033 22.69 11.8495 22.7499 11.706C22.8098 11.5624 22.901 11.4322 23.0178 11.3236C23.1346 11.215 23.2742 11.1305 23.4279 11.0755C23.5815 11.0205 23.7457 10.9963 23.9099 11.0042C24.0725 10.9989 24.2345 11.0252 24.3857 11.0814C24.537 11.1376 24.6742 11.2225 24.7888 11.3308C24.9033 11.439 24.9928 11.5684 25.0515 11.7106C25.1102 11.8528 25.1369 12.0049 25.1299 12.1573C25.1371 12.3113 25.1098 12.465 25.0499 12.6086C24.99 12.7521 24.8988 12.8824 24.782 12.991C24.6653 13.0995 24.5256 13.184 24.372 13.239C24.2183 13.294 24.0541 13.3183 23.8899 13.3103ZM33.3397 21.0065H30.9997V17.3506C30.9997 16.4788 30.6698 15.8788 29.8398 15.8788C29.5819 15.8809 29.3311 15.9577 29.1216 16.0987C28.9122 16.2396 28.7544 16.4379 28.6698 16.6662C28.6039 16.8372 28.5767 17.0192 28.5898 17.2006V21.0065H26.2899V14.3227H28.5898V15.2601C28.7943 14.908 29.0986 14.6156 29.4692 14.4155C29.8398 14.2153 30.2622 14.1151 30.6898 14.1258C32.1997 14.1258 33.3397 15.0633 33.3397 17.06V21.0065Z" fill="#6C36FE"/>
</g>
<g id="Frame 108">
<path id="Vector_2" d="M55.7684 9H68.2316C69.4074 9 70 9.68833 70 11.0883V20.9117C70 22.3 69.4074 23 68.2316 23H55.7684C54.5926 23 54 22.3 54 20.9117V11.0883C54 9.68833 54.5926 9 55.7684 9ZM61.9953 19.0333L68.3351 12.5817C68.5608 12.3483 68.7396 11.8117 68.4574 11.3333C68.1846 10.855 67.6861 10.8433 67.3568 11.135L61.9953 15.6383L56.6432 11.135C56.3139 10.8433 55.8154 10.855 55.5426 11.3333C55.2604 11.8117 55.4392 12.3483 55.6649 12.5817L61.9953 19.0333Z" fill="#6C36FE" fill-opacity="0.5"/>
</g>
<g id="Frame 109">
<path id="Vector_3" d="M96 14.016C95.6076 14.016 95.224 14.1324 94.8977 14.3504C94.5715 14.5684 94.3172 14.8782 94.167 15.2408C94.0169 15.6033 93.9776 16.0022 94.0541 16.3871C94.1307 16.7719 94.3196 17.1254 94.5971 17.4029C94.8746 17.6804 95.2281 17.8693 95.6129 17.9459C95.9978 18.0224 96.3967 17.9831 96.7592 17.833C97.1218 17.6828 97.4316 17.4285 97.6496 17.1023C97.8676 16.776 97.984 16.3924 97.984 16C97.984 15.7395 97.9327 15.4815 97.833 15.2408C97.7333 15 97.5871 14.7813 97.4029 14.5971C97.2187 14.4129 97 14.2667 96.7592 14.167C96.5185 14.0673 96.2605 14.016 96 14.016ZM103.944 12.056C103.94 11.4382 103.827 10.8259 103.608 10.248C103.447 9.82501 103.199 9.44088 102.879 9.12095C102.559 8.80102 102.175 8.55257 101.752 8.392C101.174 8.17348 100.562 8.0597 99.944 8.056C98.912 8 98.608 8 96 8C93.392 8 93.088 8 92.056 8.056C91.4382 8.0597 90.8259 8.17348 90.248 8.392C89.825 8.55257 89.4409 8.80102 89.1209 9.12095C88.801 9.44088 88.5526 9.82501 88.392 10.248C88.1735 10.8259 88.0597 11.4382 88.056 12.056C88 13.088 88 13.392 88 16C88 18.608 88 18.912 88.056 19.944C88.0652 20.5639 88.1788 21.1778 88.392 21.76C88.551 22.1815 88.7993 22.5636 89.12 22.88C89.4387 23.2016 89.8236 23.4501 90.248 23.608C90.8259 23.8265 91.4382 23.9403 92.056 23.944C93.088 24 93.392 24 96 24C98.608 24 98.912 24 99.944 23.944C100.562 23.9403 101.174 23.8265 101.752 23.608C102.176 23.4501 102.561 23.2016 102.88 22.88C103.201 22.5636 103.449 22.1815 103.608 21.76C103.826 21.1791 103.94 20.5644 103.944 19.944C104 18.912 104 18.608 104 16C104 13.392 104 13.088 103.944 12.056ZM101.912 18.456C101.887 18.9497 101.781 19.4361 101.6 19.896C101.445 20.2797 101.214 20.6284 100.921 20.9211C100.628 21.2138 100.28 21.4447 99.896 21.6C99.4317 21.7713 98.9427 21.8659 98.448 21.88H93.552C93.0573 21.8659 92.5683 21.7713 92.104 21.6C91.7072 21.4528 91.3488 21.2176 91.056 20.912C90.7659 20.6252 90.542 20.2784 90.4 19.896C90.2286 19.4321 90.1366 18.9425 90.128 18.448V13.552C90.1366 13.0575 90.2286 12.5679 90.4 12.104C90.5472 11.7072 90.7824 11.3488 91.088 11.056C91.3764 10.7679 91.7227 10.5443 92.104 10.4C92.5683 10.2287 93.0573 10.1341 93.552 10.12H98.448C98.9427 10.1341 99.4317 10.2287 99.896 10.4C100.293 10.5472 100.651 10.7824 100.944 11.088C101.234 11.3748 101.458 11.7216 101.6 12.104C101.771 12.5683 101.866 13.0573 101.88 13.552V16C101.88 17.648 101.936 17.816 101.912 18.448V18.456ZM100.632 12.504C100.537 12.2456 100.387 12.0109 100.192 11.8162C99.9971 11.6214 99.7624 11.4713 99.504 11.376C99.1492 11.253 98.7755 11.1934 98.4 11.2H93.6C93.2226 11.2037 92.8489 11.2741 92.496 11.408C92.2415 11.4989 92.0094 11.643 91.8149 11.8306C91.6204 12.0182 91.468 12.245 91.368 12.496C91.2522 12.8524 91.1955 13.2253 91.2 13.6V18.4C91.2084 18.7769 91.2786 19.1499 91.408 19.504C91.5033 19.7624 91.6534 19.9971 91.8482 20.1918C92.0429 20.3866 92.2776 20.5368 92.536 20.632C92.8774 20.7571 93.2366 20.8273 93.6 20.84H98.4C98.7774 20.8363 99.1511 20.7659 99.504 20.632C99.7624 20.5368 99.9971 20.3866 100.192 20.1918C100.387 19.9971 100.537 19.7624 100.632 19.504C100.766 19.1511 100.836 18.7774 100.84 18.4V13.6C100.84 13.2223 100.769 12.8479 100.632 12.496V12.504ZM96 19.056C95.5991 19.056 95.2021 18.9769 94.8317 18.8232C94.4614 18.6695 94.125 18.4443 93.8419 18.1604C93.5588 17.8766 93.3344 17.5396 93.1817 17.1689C93.029 16.7982 92.9509 16.4009 92.952 16C92.952 15.3952 93.1314 14.8041 93.4676 14.3013C93.8037 13.7986 94.2815 13.4069 94.8404 13.1759C95.3993 12.9448 96.0141 12.8848 96.6071 13.0033C97.2002 13.1219 97.7447 13.4137 98.1717 13.8419C98.5988 14.2701 98.8892 14.8154 99.0063 15.4087C99.1233 16.0021 99.0616 16.6168 98.8291 17.175C98.5965 17.7333 98.2036 18.21 97.7 18.5449C97.1964 18.8797 96.6048 19.0576 96 19.056ZM99.2 13.544C99.0232 13.5253 98.8595 13.4418 98.7405 13.3096C98.6216 13.1774 98.5558 13.0058 98.5558 12.828C98.5558 12.6502 98.6216 12.4786 98.7405 12.3464C98.8595 12.2142 99.0232 12.1307 99.2 12.112C99.3768 12.1307 99.5405 12.2142 99.6595 12.3464C99.7784 12.4786 99.8442 12.6502 99.8442 12.828C99.8442 13.0058 99.7784 13.1774 99.6595 13.3096C99.5405 13.4418 99.3768 13.5253 99.2 13.544Z" fill="#6C36FE" fill-opacity="0.5"/>
</g>
</g>
</svg>
