<svg width="213" height="29" viewBox="0 0 213 29" fill="none" xmlns="http://www.w3.org/2000/svg">
<path d="M7.096 23.5107C4.746 21.4321 2.976 19.4937 1.786 17.6957C0.595333 15.8977 0 14.2614 0 12.7867C0 10.6714 0.688667 8.92672 2.066 7.55272C3.444 6.17806 5.12067 5.49072 7.096 5.49072C9.07133 5.49072 10.748 6.17806 12.126 7.55272C13.504 8.92739 14.1927 10.6721 14.192 12.7867V13.2027C14.192 13.3461 14.1753 13.4861 14.142 13.6227C13.3707 13.8454 12.6923 14.1884 12.107 14.6517C11.5217 15.1151 11.0463 15.6667 10.681 16.3067C10.3157 16.9467 10.0757 17.6351 9.961 18.3717C9.84567 19.1091 9.883 19.8577 10.073 20.6177C9.641 21.0831 9.177 21.5567 8.681 22.0387C8.185 22.5207 7.65667 23.0111 7.096 23.5097M7.096 16.9907C7.85 16.9907 8.541 16.8194 9.169 16.4767C9.79767 16.1334 10.3157 15.6767 10.723 15.1067C10.2037 14.7387 9.63833 14.4607 9.027 14.2727C8.41567 14.0847 7.77233 13.9907 7.097 13.9907C6.42167 13.9907 5.778 14.0847 5.166 14.2727C4.554 14.4607 3.98833 14.7387 3.469 15.1067C3.877 15.6767 4.395 16.1334 5.023 16.4767C5.65167 16.8194 6.34267 16.9907 7.096 16.9907ZM7.096 11.9907C7.518 11.9907 7.87367 11.8461 8.163 11.5567C8.45167 11.2681 8.596 10.9127 8.596 10.4907C8.596 10.0687 8.45167 9.71339 8.163 9.42472C7.87367 9.13539 7.518 8.99072 7.096 8.99072C6.67467 8.99072 6.31933 9.13539 6.03 9.42472C5.74067 9.71339 5.596 10.0687 5.596 10.4907C5.596 10.9127 5.74067 11.2681 6.03 11.5567C6.31933 11.8454 6.67467 11.9901 7.096 11.9907ZM15.827 22.4907L15.119 21.8027L17.194 19.7027H12.327V18.7027H17.194L15.119 16.6027L15.827 15.9137L19.116 19.2027L15.827 22.4907Z" fill="white" fill-opacity="0.6"/>
<path d="M39.102 15.8065C38.994 16.7425 38.664 17.5405 38.112 18.2005C37.56 18.8605 36.81 19.3645 35.862 19.7125C34.914 20.0605 33.786 20.2345 32.478 20.2345C31.386 20.2345 30.384 20.1085 29.472 19.8565C28.572 19.6045 27.792 19.2265 27.132 18.7225C26.484 18.2185 25.98 17.5945 25.62 16.8505C25.26 16.0945 25.08 15.2125 25.08 14.2045C25.08 13.1965 25.26 12.3145 25.62 11.5585C25.98 10.8025 26.484 10.1725 27.132 9.66849C27.792 9.15249 28.572 8.76849 29.472 8.51649C30.384 8.25249 31.386 8.12049 32.478 8.12049C33.786 8.12049 34.914 8.30049 35.862 8.66049C36.822 9.02049 37.578 9.53649 38.13 10.2085C38.682 10.8685 39.006 11.6725 39.102 12.6205H36.726C36.57 12.1165 36.306 11.6845 35.934 11.3245C35.574 10.9525 35.106 10.6705 34.53 10.4785C33.954 10.2865 33.27 10.1905 32.478 10.1905C31.494 10.1905 30.63 10.3465 29.886 10.6585C29.142 10.9585 28.566 11.4085 28.158 12.0085C27.75 12.5965 27.546 13.3285 27.546 14.2045C27.546 15.0685 27.75 15.7945 28.158 16.3825C28.566 16.9705 29.142 17.4205 29.886 17.7325C30.63 18.0325 31.494 18.1825 32.478 18.1825C33.27 18.1825 33.948 18.0865 34.512 17.8945C35.088 17.7025 35.556 17.4265 35.916 17.0665C36.288 16.7065 36.558 16.2865 36.726 15.8065H39.102ZM51.4818 20.0005H49.1418V11.0545H51.4818V20.0005ZM49.2678 15.6985L49.2858 16.3105C49.2618 16.4785 49.2018 16.7245 49.1058 17.0485C49.0098 17.3605 48.8598 17.6965 48.6558 18.0565C48.4638 18.4165 48.2118 18.7645 47.8998 19.1005C47.5878 19.4245 47.2038 19.6945 46.7478 19.9105C46.2918 20.1145 45.7518 20.2165 45.1278 20.2165C44.6358 20.2165 44.1498 20.1565 43.6698 20.0365C43.2018 19.9165 42.7758 19.7185 42.3918 19.4425C42.0078 19.1545 41.7018 18.7705 41.4738 18.2905C41.2458 17.8105 41.1318 17.2045 41.1318 16.4725V11.0545H43.4718V16.0765C43.4718 16.6525 43.5618 17.1085 43.7418 17.4445C43.9338 17.7685 44.2098 17.9965 44.5698 18.1285C44.9298 18.2605 45.3558 18.3265 45.8478 18.3265C46.4958 18.3265 47.0538 18.1885 47.5218 17.9125C47.9898 17.6245 48.3678 17.2765 48.6558 16.8685C48.9558 16.4605 49.1598 16.0705 49.2678 15.6985ZM53.6122 11.0545H55.9522V20.0005H53.6122V11.0545ZM59.3902 12.9805C58.7182 12.9805 58.1362 13.1125 57.6442 13.3765C57.1522 13.6285 56.7562 13.9405 56.4562 14.3125C56.1562 14.6845 55.9462 15.0445 55.8262 15.3925L55.8082 14.4025C55.8202 14.2585 55.8682 14.0485 55.9522 13.7725C56.0362 13.4845 56.1622 13.1785 56.3302 12.8545C56.4982 12.5185 56.7202 12.2005 56.9962 11.9005C57.2722 11.5885 57.6082 11.3365 58.0042 11.1445C58.4002 10.9525 58.8622 10.8565 59.3902 10.8565V12.9805ZM60.8368 11.0545H63.1768V20.0005H60.8368V11.0545ZM66.6148 12.9805C65.9428 12.9805 65.3608 13.1125 64.8688 13.3765C64.3768 13.6285 63.9808 13.9405 63.6808 14.3125C63.3808 14.6845 63.1708 15.0445 63.0508 15.3925L63.0328 14.4025C63.0448 14.2585 63.0928 14.0485 63.1768 13.7725C63.2608 13.4845 63.3868 13.1785 63.5548 12.8545C63.7228 12.5185 63.9448 12.2005 64.2208 11.9005C64.4968 11.5885 64.8328 11.3365 65.2288 11.1445C65.6248 10.9525 66.0868 10.8565 66.6148 10.8565V12.9805ZM76.2154 17.0305H78.4834C78.3874 17.6425 78.1294 18.1885 77.7094 18.6685C77.3014 19.1485 76.7434 19.5265 76.0354 19.8025C75.3274 20.0785 74.4634 20.2165 73.4434 20.2165C72.3034 20.2165 71.2954 20.0365 70.4194 19.6765C69.5434 19.3045 68.8594 18.7705 68.3674 18.0745C67.8754 17.3785 67.6294 16.5385 67.6294 15.5545C67.6294 14.5705 67.8694 13.7305 68.3494 13.0345C68.8294 12.3265 69.4954 11.7865 70.3474 11.4145C71.2114 11.0425 72.2194 10.8565 73.3714 10.8565C74.5474 10.8565 75.5254 11.0425 76.3054 11.4145C77.0854 11.7865 77.6614 12.3505 78.0334 13.1065C78.4174 13.8505 78.5794 14.8045 78.5194 15.9685H69.9874C70.0474 16.4245 70.2154 16.8385 70.4914 17.2105C70.7794 17.5825 71.1634 17.8765 71.6434 18.0925C72.1354 18.3085 72.7174 18.4165 73.3894 18.4165C74.1334 18.4165 74.7514 18.2905 75.2434 18.0385C75.7474 17.7745 76.0714 17.4385 76.2154 17.0305ZM73.2634 12.6385C72.3994 12.6385 71.6974 12.8305 71.1574 13.2145C70.6174 13.5865 70.2694 14.0485 70.1134 14.6005H76.1974C76.1374 14.0005 75.8494 13.5265 75.3334 13.1785C74.8294 12.8185 74.1394 12.6385 73.2634 12.6385ZM80.2607 11.0545H82.6007V20.0005H80.2607V11.0545ZM86.7587 10.8565C87.3107 10.8565 87.8207 10.9285 88.2887 11.0725C88.7567 11.2165 89.1647 11.4385 89.5127 11.7385C89.8607 12.0385 90.1307 12.4225 90.3227 12.8905C90.5147 13.3465 90.6107 13.8925 90.6107 14.5285V20.0005H88.2707V14.9425C88.2707 14.1865 88.0847 13.6345 87.7127 13.2865C87.3527 12.9265 86.7587 12.7465 85.9307 12.7465C85.3067 12.7465 84.7427 12.8665 84.2387 13.1065C83.7347 13.3465 83.3267 13.6525 83.0147 14.0245C82.7027 14.3845 82.5227 14.7625 82.4747 15.1585L82.4567 14.2405C82.5167 13.8205 82.6547 13.4125 82.8707 13.0165C83.0867 12.6205 83.3747 12.2605 83.7347 11.9365C84.1067 11.6005 84.5447 11.3365 85.0487 11.1445C85.5527 10.9525 86.1227 10.8565 86.7587 10.8565ZM92.1111 11.0545H99.0591V12.8725H92.1111V11.0545ZM94.4151 8.60649H96.7551V20.0005H94.4151V8.60649ZM100.726 7.45449H103.066V20.0005H100.726V7.45449ZM104.623 11.0545H107.107L110.977 19.6405L108.961 20.0005L104.623 11.0545ZM115.567 11.0545L109.375 23.6005H106.945L109.591 18.6685L113.065 11.0545H115.567ZM123.952 7.13049V9.18249H121.234V7.13049H123.952ZM121.414 11.0545H123.754V20.0005H121.414V11.0545ZM126.087 11.0545H128.427V20.0005H126.087V11.0545ZM132.585 10.8565C133.137 10.8565 133.647 10.9285 134.115 11.0725C134.583 11.2165 134.991 11.4385 135.339 11.7385C135.687 12.0385 135.957 12.4225 136.149 12.8905C136.341 13.3465 136.437 13.8925 136.437 14.5285V20.0005H134.097V14.9425C134.097 14.1865 133.911 13.6345 133.539 13.2865C133.179 12.9265 132.585 12.7465 131.757 12.7465C131.133 12.7465 130.569 12.8665 130.065 13.1065C129.561 13.3465 129.153 13.6525 128.841 14.0245C128.529 14.3845 128.349 14.7625 128.301 15.1585L128.283 14.2405C128.343 13.8205 128.481 13.4125 128.697 13.0165C128.913 12.6205 129.201 12.2605 129.561 11.9365C129.933 11.6005 130.371 11.3365 130.875 11.1445C131.379 10.9525 131.949 10.8565 132.585 10.8565ZM143.215 20.0005V8.35449H149.929C151.489 8.35449 152.671 8.61849 153.475 9.14649C154.291 9.66249 154.699 10.4365 154.699 11.4685C154.699 12.1285 154.537 12.6505 154.213 13.0345C153.889 13.4065 153.427 13.6825 152.827 13.8625C152.239 14.0425 151.543 14.1565 150.739 14.2045L150.811 14.0785C151.399 14.0905 151.951 14.1325 152.467 14.2045C152.995 14.2765 153.457 14.4085 153.853 14.6005C154.249 14.7925 154.561 15.0625 154.789 15.4105C155.017 15.7465 155.131 16.1905 155.131 16.7425C155.131 17.4625 154.939 18.0625 154.555 18.5425C154.171 19.0105 153.637 19.3645 152.953 19.6045C152.269 19.8445 151.477 19.9765 150.577 20.0005H143.215ZM145.609 18.0205H150.325C151.081 18.0205 151.663 17.9005 152.071 17.6605C152.479 17.4085 152.683 17.0125 152.683 16.4725C152.683 16.0765 152.563 15.7885 152.323 15.6085C152.083 15.4285 151.765 15.3205 151.369 15.2845C150.973 15.2365 150.547 15.2125 150.091 15.2125H145.609V18.0205ZM145.609 13.2865H149.839C150.595 13.2865 151.177 13.1785 151.585 12.9625C151.993 12.7345 152.197 12.3505 152.197 11.8105C152.197 11.2705 151.993 10.8925 151.585 10.6765C151.177 10.4485 150.637 10.3345 149.965 10.3345H145.609V13.2865ZM165.126 20.0005V15.0865C165.126 14.5945 165.042 14.1865 164.874 13.8625C164.706 13.5385 164.436 13.2925 164.064 13.1245C163.704 12.9565 163.218 12.8725 162.606 12.8725C162.018 12.8725 161.484 12.9865 161.004 13.2145C160.524 13.4305 160.134 13.7185 159.834 14.0785C159.534 14.4265 159.366 14.7985 159.33 15.1945L159.312 14.2045C159.372 13.8085 159.51 13.4125 159.726 13.0165C159.942 12.6205 160.23 12.2605 160.59 11.9365C160.95 11.6125 161.382 11.3545 161.886 11.1625C162.402 10.9585 162.978 10.8565 163.614 10.8565C164.166 10.8565 164.676 10.9285 165.144 11.0725C165.612 11.2045 166.02 11.4145 166.368 11.7025C166.716 11.9905 166.986 12.3505 167.178 12.7825C167.37 13.2025 167.466 13.7005 167.466 14.2765V20.0005H165.126ZM157.116 20.0005V7.45449H159.456V20.0005H157.116ZM174.867 20.2165C173.739 20.2165 172.743 20.0365 171.879 19.6765C171.027 19.3165 170.361 18.7945 169.881 18.1105C169.401 17.4145 169.161 16.5625 169.161 15.5545C169.161 14.5465 169.401 13.6945 169.881 12.9985C170.361 12.2905 171.027 11.7565 171.879 11.3965C172.743 11.0365 173.739 10.8565 174.867 10.8565C175.995 10.8565 176.979 11.0365 177.819 11.3965C178.671 11.7565 179.337 12.2905 179.817 12.9985C180.297 13.6945 180.537 14.5465 180.537 15.5545C180.537 16.5625 180.297 17.4145 179.817 18.1105C179.337 18.7945 178.671 19.3165 177.819 19.6765C176.979 20.0365 175.995 20.2165 174.867 20.2165ZM174.867 18.4165C175.491 18.4165 176.049 18.3085 176.541 18.0925C177.045 17.8645 177.441 17.5405 177.729 17.1205C178.017 16.6885 178.161 16.1665 178.161 15.5545C178.161 14.9425 178.017 14.4205 177.729 13.9885C177.441 13.5445 177.051 13.2085 176.559 12.9805C176.067 12.7525 175.503 12.6385 174.867 12.6385C174.243 12.6385 173.679 12.7525 173.175 12.9805C172.671 13.2085 172.269 13.5385 171.969 13.9705C171.681 14.4025 171.537 14.9305 171.537 15.5545C171.537 16.1665 171.681 16.6885 171.969 17.1205C172.257 17.5405 172.653 17.8645 173.157 18.0925C173.661 18.3085 174.231 18.4165 174.867 18.4165ZM188.783 20.2165C187.991 20.2165 187.313 20.0785 186.749 19.8025C186.197 19.5145 185.747 19.1425 185.399 18.6865C185.051 18.2185 184.793 17.7085 184.625 17.1565C184.457 16.6045 184.373 16.0645 184.373 15.5365C184.373 14.8765 184.451 14.2645 184.607 13.7005C184.775 13.1365 185.033 12.6445 185.381 12.2245C185.729 11.7925 186.179 11.4565 186.731 11.2165C187.295 10.9765 187.979 10.8565 188.783 10.8565C189.683 10.8565 190.493 11.0545 191.213 11.4505C191.933 11.8465 192.503 12.3985 192.923 13.1065C193.355 13.8025 193.571 14.6125 193.571 15.5365C193.571 16.4845 193.355 17.3125 192.923 18.0205C192.491 18.7165 191.915 19.2565 191.195 19.6405C190.475 20.0245 189.671 20.2165 188.783 20.2165ZM188.027 18.3985C188.663 18.3985 189.215 18.2785 189.683 18.0385C190.163 17.7985 190.529 17.4685 190.781 17.0485C191.045 16.6165 191.177 16.1125 191.177 15.5365C191.177 14.6725 190.901 13.9765 190.349 13.4485C189.809 12.9205 189.035 12.6565 188.027 12.6565C187.391 12.6565 186.809 12.7705 186.281 12.9985C185.765 13.2265 185.357 13.5565 185.057 13.9885C184.757 14.4085 184.607 14.9245 184.607 15.5365C184.607 16.1125 184.745 16.6165 185.021 17.0485C185.297 17.4685 185.693 17.7985 186.209 18.0385C186.725 18.2785 187.331 18.3985 188.027 18.3985ZM182.267 11.0545H184.499L184.607 13.4305V23.6005H182.267V11.0545ZM199.648 20.1985C198.76 20.1985 197.95 20.0065 197.218 19.6225C196.498 19.2265 195.922 18.6805 195.49 17.9845C195.07 17.2765 194.86 16.4605 194.86 15.5365C194.86 14.5885 195.076 13.7665 195.508 13.0705C195.94 12.3745 196.522 11.8345 197.254 11.4505C197.998 11.0545 198.838 10.8565 199.774 10.8565C200.806 10.8565 201.634 11.0665 202.258 11.4865C202.894 11.8945 203.356 12.4525 203.644 13.1605C203.932 13.8685 204.076 14.6605 204.076 15.5365C204.076 16.0645 203.992 16.6045 203.824 17.1565C203.656 17.6965 203.398 18.2005 203.05 18.6685C202.702 19.1245 202.246 19.4965 201.682 19.7845C201.118 20.0605 200.44 20.1985 199.648 20.1985ZM200.404 18.3985C201.112 18.3985 201.724 18.2785 202.24 18.0385C202.756 17.7985 203.152 17.4625 203.428 17.0305C203.704 16.5985 203.842 16.1005 203.842 15.5365C203.842 14.9245 203.698 14.4085 203.41 13.9885C203.134 13.5565 202.738 13.2325 202.222 13.0165C201.718 12.7885 201.112 12.6745 200.404 12.6745C199.408 12.6745 198.634 12.9385 198.082 13.4665C197.53 13.9825 197.254 14.6725 197.254 15.5365C197.254 16.1125 197.386 16.6165 197.65 17.0485C197.914 17.4685 198.28 17.7985 198.748 18.0385C199.228 18.2785 199.78 18.3985 200.404 18.3985ZM203.842 11.0545H206.182V20.0005H204.004C204.004 20.0005 203.986 19.8865 203.95 19.6585C203.926 19.4185 203.902 19.1185 203.878 18.7585C203.854 18.3985 203.842 18.0445 203.842 17.6965V11.0545ZM208.48 7.45449H210.82V20.0005H208.48V7.45449Z" fill="white" fill-opacity="0.6"/>
</svg>
