<svg width="98" height="31" viewBox="0 0 98 31" fill="none" xmlns="http://www.w3.org/2000/svg">
<path d="M0 7.59985V30.9999L6 28.3999V7.59985H0Z" fill="white"/>
<path d="M9 10.1999V7.59985H24V10.1999H9Z" fill="white" stroke="black" stroke-width="0.1856"/>
<path d="M9 15.4H21V20.6H12V23.2L24 23.22V12.8H9V15.4Z" fill="white"/>
<path d="M6 20.6H9M21 15.4H9V12.8H24V23.22L12 23.2V20.6H21V15.4Z" stroke="black" stroke-width="0.1856"/>
<path d="M9 20.5999H6.02308L6.00781 23.1999H9V20.5999Z" fill="white" stroke="black" stroke-width="0.1856"/>
<path d="M5.35415 5.00001H0.73877V1H5.35415V5.00001Z" fill="white" stroke="black" stroke-width="0.1856"/>
<path d="M37.112 26.288C35.976 26.288 34.92 26.08 33.944 25.664C32.984 25.248 32.152 24.672 31.448 23.936C30.76 23.184 30.256 22.312 29.936 21.32L32.648 20.144C33.08 21.168 33.704 21.976 34.52 22.568C35.336 23.144 36.256 23.432 37.28 23.432C37.856 23.432 38.352 23.344 38.768 23.168C39.2 22.976 39.528 22.72 39.752 22.4C39.992 22.08 40.112 21.696 40.112 21.248C40.112 20.72 39.952 20.288 39.632 19.952C39.328 19.6 38.864 19.328 38.24 19.136L34.808 18.032C33.416 17.6 32.368 16.952 31.664 16.088C30.96 15.224 30.608 14.208 30.608 13.04C30.608 12.016 30.856 11.112 31.352 10.328C31.864 9.544 32.568 8.936 33.464 8.504C34.376 8.056 35.416 7.832 36.584 7.832C37.656 7.832 38.64 8.024 39.536 8.408C40.432 8.776 41.2 9.296 41.84 9.968C42.496 10.624 42.984 11.4 43.304 12.296L40.616 13.496C40.264 12.6 39.736 11.912 39.032 11.432C38.328 10.936 37.512 10.688 36.584 10.688C36.04 10.688 35.56 10.784 35.144 10.976C34.728 11.152 34.4 11.408 34.16 11.744C33.936 12.064 33.824 12.448 33.824 12.896C33.824 13.392 33.984 13.832 34.304 14.216C34.624 14.584 35.112 14.872 35.768 15.08L39.056 16.112C40.48 16.576 41.544 17.216 42.248 18.032C42.968 18.848 43.328 19.856 43.328 21.056C43.328 22.08 43.064 22.984 42.536 23.768C42.008 24.552 41.28 25.168 40.352 25.616C39.424 26.064 38.344 26.288 37.112 26.288ZM46.0031 26V7.832H49.1471V15.512L48.7151 15.056C49.0191 14.272 49.5151 13.68 50.2031 13.28C50.9071 12.864 51.7231 12.656 52.6511 12.656C53.6111 12.656 54.4591 12.864 55.1951 13.28C55.9471 13.696 56.5311 14.28 56.9471 15.032C57.3631 15.768 57.5711 16.624 57.5711 17.6V26H54.4271V18.344C54.4271 17.768 54.3151 17.272 54.0911 16.856C53.8671 16.44 53.5551 16.12 53.1551 15.896C52.7711 15.656 52.3151 15.536 51.7871 15.536C51.2751 15.536 50.8191 15.656 50.4191 15.896C50.0191 16.12 49.7071 16.44 49.4831 16.856C49.2591 17.272 49.1471 17.768 49.1471 18.344V26H46.0031ZM60.2296 26V12.944H63.1816V15.848L62.9416 15.416C63.2456 14.44 63.7176 13.76 64.3576 13.376C65.0136 12.992 65.7976 12.8 66.7096 12.8H67.4776V15.584H66.3496C65.4536 15.584 64.7336 15.864 64.1896 16.424C63.6456 16.968 63.3736 17.736 63.3736 18.728V26H60.2296ZM73.8622 26.288C72.8542 26.288 71.9742 26.064 71.2222 25.616C70.4862 25.168 69.9182 24.544 69.5182 23.744C69.1342 22.944 68.9422 22.008 68.9422 20.936V12.944H72.0862V20.672C72.0862 21.216 72.1902 21.696 72.3982 22.112C72.6222 22.512 72.9342 22.832 73.3342 23.072C73.7502 23.296 74.2142 23.408 74.7262 23.408C75.2382 23.408 75.6942 23.296 76.0942 23.072C76.4942 22.832 76.8062 22.504 77.0302 22.088C77.2542 21.672 77.3662 21.176 77.3662 20.6V12.944H80.5102V26H77.5342V23.432L77.7982 23.888C77.4942 24.688 76.9902 25.288 76.2862 25.688C75.5982 26.088 74.7902 26.288 73.8622 26.288ZM89.3848 26.144C87.9128 26.144 86.7688 25.744 85.9528 24.944C85.1528 24.128 84.7528 22.984 84.7528 21.512V15.752H82.4968V12.944H82.7368C83.3768 12.944 83.8728 12.776 84.2248 12.44C84.5768 12.104 84.7528 11.616 84.7528 10.976V9.968H87.8968V12.944H90.8968V15.752H87.8968V21.344C87.8968 21.776 87.9688 22.144 88.1128 22.448C88.2728 22.752 88.5128 22.984 88.8328 23.144C89.1688 23.304 89.5928 23.384 90.1048 23.384C90.2168 23.384 90.3448 23.376 90.4888 23.36C90.6488 23.344 90.8008 23.328 90.9448 23.312V26C90.7208 26.032 90.4648 26.064 90.1768 26.096C89.8888 26.128 89.6248 26.144 89.3848 26.144ZM93.3468 26V12.944H96.4908V26H93.3468ZM93.3468 11.48V8.12H96.4908V11.48H93.3468Z" fill="white"/>
</svg>
