<svg width="100" height="100" viewBox="0 0 100 100" fill="none" xmlns="http://www.w3.org/2000/svg">
<g clip-path="url(#clip0_754_165)">
<path d="M17.7086 0.5H82.2914C91.7956 0.5 99.5 8.38352 99.5 18.1627V81.8373C99.5 91.6165 91.7956 99.5 82.2914 99.5H17.7086C8.20441 99.5 0.5 91.6165 0.5 81.8373V18.1627C0.5 8.38352 8.20441 0.5 17.7086 0.5Z" stroke="white"/>
<path d="M64.7721 38.7326L64.7555 38.7403C63.1351 39.4943 61.7468 40.6964 60.8125 42.187C59.9854 43.5826 59.5414 45.1119 59.5414 46.7087V46.7208L59.5411 46.7328C59.5096 48.0355 59.799 49.3258 60.3837 50.4901C61.0884 51.7513 62.0638 52.8408 63.2397 53.6802C64.9985 54.8821 66.9066 55.8491 68.9158 56.5569L68.9305 56.5621L68.9451 56.5677C69.9744 56.9668 70.8542 57.3309 71.5684 57.6688C72.2697 58.0007 72.8682 58.3332 73.2973 58.6814L73.2983 58.6822C74.0727 59.3123 74.6672 60.1095 74.6672 61.1251C74.6672 62.2521 73.9944 63.3192 72.9675 63.7804C72.0158 64.2496 70.7161 64.4587 69.0836 64.4587C67.3412 64.4587 65.5947 64.2415 63.9302 63.8055C62.3757 63.4568 60.8733 62.9123 59.4586 62.1861V68.3151C60.6944 68.8801 61.9981 69.2833 63.3374 69.5147L63.3504 69.5169L63.3633 69.5195C65.1672 69.8803 66.9753 70.0415 68.8328 70.0415C71.735 70.0415 74.0946 69.5981 75.981 68.7896L75.9923 68.7847L76.0036 68.7802C77.693 68.1045 79.1603 66.9406 80.2155 65.4361C81.1911 63.9683 81.6972 62.2384 81.6665 60.4761L81.6662 60.4536L81.6668 60.4311C81.7031 59.1161 81.414 57.8126 80.8252 56.6365C80.1185 55.3796 79.1164 54.34 77.8819 53.5539C75.9378 52.3333 73.8564 51.3466 71.681 50.6142L71.6489 50.6034L71.6176 50.5905C70.586 50.1635 69.5731 49.6928 68.5817 49.1796L68.5745 49.1759L68.5675 49.1721C67.9432 48.836 67.3292 48.3845 66.8509 47.7995L66.8375 47.7831L66.8248 47.7662C66.4991 47.3317 66.2086 46.7504 66.2086 46.0837C66.2086 45.5079 66.3936 44.91 66.6926 44.4299L66.7071 44.4067L66.7228 44.3843C67.1705 43.7463 67.8468 43.33 68.5925 43.1543C69.4453 42.9318 70.4103 42.7892 71.357 42.8329C73.0187 42.835 74.6233 43.0544 76.2064 43.3966C77.5154 43.6661 78.7675 44.073 79.9586 44.6495V38.5853C78.9244 38.1741 77.8438 37.8906 76.7407 37.741L76.7309 37.7397L76.7309 37.7397C75.0681 37.4975 73.3896 37.3764 71.7086 37.3759L64.7721 38.7326ZM64.7721 38.7326L64.7885 38.7242M64.7721 38.7326L64.7885 38.7242M80.443 45.378L80.4371 45.3751L80.2678 45.2905L80.4371 45.3751L80.443 45.378ZM80.443 45.378L80.75 45.7923L80.4408 45.3751L80.443 45.378ZM64.7885 38.7242C66.5568 37.821 68.8426 37.3759 71.7083 37.3759L64.7885 38.7242ZM32.0742 27.0832L32.0748 27.0832C33.3473 27.0416 34.5813 27.0415 35.8336 27.0415C39.1755 27.0415 41.8798 27.4498 44.0653 28.2693L44.08 28.2747L44.0948 28.2798C46.0434 28.9417 47.8204 30.0286 49.2973 31.4617C50.5345 32.7048 51.491 34.1986 52.1026 35.8424C52.6903 37.4898 53 39.1658 53 40.9165C53 44.3439 52.2045 47.0848 50.6863 49.2103L50.6862 49.2104C49.1405 51.3749 46.9726 53.0037 44.4458 53.9367C41.7625 54.923 38.7658 55.2915 35.4164 55.2915C34.3874 55.2915 33.7862 55.2902 33.4325 55.255L33.4324 55.255C32.9653 55.2086 32.3408 55.2087 31.5978 55.2087H31.5414H30.5414V56.2087V69.1673H23.5V27.2906C24.0234 27.2884 24.5795 27.28 25.2922 27.2492C25.7794 27.229 26.2789 27.2189 26.806 27.2085L26.8561 27.2075C27.3653 27.1975 27.8988 27.187 28.4532 27.1666L28.4539 27.1666C29.0613 27.1438 29.6374 27.1342 30.2442 27.124C30.8107 27.1146 31.4039 27.1047 32.0742 27.0832ZM23.5005 69.6387C23.5004 69.6387 23.5003 69.6372 23.5001 69.634C23.5004 69.637 23.5005 69.6386 23.5005 69.6387ZM23.5 26.7501C23.5 26.7458 23.5002 26.7463 23.5 26.751V26.7501ZM44.8187 36.9478L44.8074 36.9288L44.7953 36.9103C43.9803 35.6649 42.8202 34.691 41.4069 34.152C39.9319 33.5555 38.3667 33.2787 36.7822 33.2487C36.5598 33.2444 36.3367 33.2448 36.113 33.2501H36.1028C35.0591 33.2501 34.0982 33.2501 33.2907 33.291C32.4336 33.2505 31.8018 33.2917 31.4403 33.344L30.5836 33.468V34.3337V48.3337V49.2653L31.5128 49.3312C31.5579 49.3344 31.6031 49.3376 31.6484 49.3408C32.1739 49.3784 32.7071 49.4165 33.2078 49.4165H35.4164C37.1364 49.4165 38.8593 49.1538 40.4987 48.6245C42.0326 48.1884 43.3524 47.2813 44.3754 46.1196L44.3831 46.1109L44.3906 46.102C45.4634 44.8252 45.915 43.1541 45.9172 41.1818C45.9582 39.6952 45.5774 38.2272 44.8187 36.9478Z" stroke="white" stroke-width="2"/>
</g>
<defs>
<clipPath id="clip0_754_165">
<rect width="100" height="100" fill="white"/>
</clipPath>
</defs>
</svg>
