<svg width="100" height="100" viewBox="0 0 100 100" fill="none" xmlns="http://www.w3.org/2000/svg">
<g clip-path="url(#clip0_754_154)">
<path d="M0.5 20C0.5 9.23045 9.23045 0.5 20 0.5H80C90.7695 0.5 99.5 9.23045 99.5 20V80C99.5 90.7695 90.7695 99.5 80 99.5H20C9.23045 99.5 0.5 90.7695 0.5 80V20Z" stroke="white"/>
<path d="M40.4688 24.6719V24.672L40.4794 24.6719C47.2721 24.5996 52.8312 30.0162 52.9062 36.8023V38.5938C52.9062 45.7831 47.0956 51.6593 39.9948 51.7344H33.5156H32.5156V52.7344V68.375H27.0156V24.6719H40.4688ZM32.5156 46.25V47.25H33.5156H39.2969C43.7554 47.25 47.4063 43.5992 47.4063 39.1407V37.1875C47.4063 32.729 43.7554 29.0782 39.2969 29.0782H33.5156H32.5156V30.0782V46.25ZM67.7383 41.8122L67.125 42.0694V42.7344V68.4532H61.2344V38.841C61.4346 38.7519 61.6856 38.6432 61.9821 38.5212C62.8254 38.1742 64.032 37.7205 65.4763 37.2976C68.153 36.514 71.5865 35.8543 75.0156 36.1342V40.7374C74.4613 40.7543 73.718 40.7866 72.9027 40.8486C71.2416 40.9749 69.1169 41.2341 67.7383 41.8122Z" stroke="white" stroke-width="2"/>
</g>
<defs>
<clipPath id="clip0_754_154">
<rect width="100" height="100" rx="10" fill="white"/>
</clipPath>
</defs>
</svg>
