<svg width="89" height="40" viewBox="0 0 89 40" fill="none" xmlns="http://www.w3.org/2000/svg">
<rect width="89" height="40" rx="20" fill="black"/>
<path d="M13.328 27V15.08H17.536C18.3253 15.08 19.0187 15.2293 19.616 15.528C20.2133 15.8267 20.6773 16.2533 21.008 16.808C21.3493 17.3627 21.52 18.0133 21.52 18.76C21.52 19.5067 21.3493 20.1573 21.008 20.712C20.6773 21.256 20.2133 21.6827 19.616 21.992C19.0293 22.2907 18.336 22.44 17.536 22.44H14.896V27H13.328ZM14.896 21H17.584C18.064 21 18.48 20.9093 18.832 20.728C19.184 20.5467 19.456 20.2853 19.648 19.944C19.84 19.6027 19.936 19.208 19.936 18.76C19.936 18.3013 19.84 17.9067 19.648 17.576C19.456 17.2347 19.184 16.9733 18.832 16.792C18.48 16.6107 18.064 16.52 17.584 16.52H14.896V21ZM23.4645 27V18.376H24.9205V19.96L24.7605 19.736C24.9632 19.2453 25.2725 18.8827 25.6885 18.648C26.1045 18.4027 26.6112 18.28 27.2085 18.28H27.7365V19.688H26.9845C26.3765 19.688 25.8858 19.88 25.5125 20.264C25.1392 20.6373 24.9525 21.1707 24.9525 21.864V27H23.4645ZM33.1543 27.192C32.3223 27.192 31.5703 27 30.8983 26.616C30.2263 26.2213 29.6929 25.6827 29.2983 25C28.9036 24.3173 28.7063 23.544 28.7063 22.68C28.7063 21.816 28.8983 21.048 29.2823 20.376C29.6769 19.704 30.2103 19.1707 30.8823 18.776C31.5543 18.3813 32.3116 18.184 33.1543 18.184C33.9863 18.184 34.7383 18.3813 35.4103 18.776C36.0823 19.16 36.6103 19.688 36.9943 20.36C37.3889 21.032 37.5863 21.8053 37.5863 22.68C37.5863 23.5547 37.3836 24.3333 36.9783 25.016C36.5729 25.688 36.0343 26.2213 35.3623 26.616C34.7009 27 33.9649 27.192 33.1543 27.192ZM33.1543 25.752C33.6876 25.752 34.1676 25.6187 34.5943 25.352C35.0316 25.0853 35.3729 24.7173 35.6183 24.248C35.8743 23.7787 36.0023 23.256 36.0023 22.68C36.0023 22.0933 35.8743 21.576 35.6183 21.128C35.3729 20.6693 35.0316 20.3067 34.5943 20.04C34.1676 19.7627 33.6876 19.624 33.1543 19.624C32.6103 19.624 32.1196 19.7627 31.6823 20.04C31.2556 20.3067 30.9143 20.6693 30.6583 21.128C30.4023 21.576 30.2743 22.0933 30.2743 22.68C30.2743 23.256 30.4023 23.7787 30.6583 24.248C30.9143 24.7173 31.2556 25.0853 31.6823 25.352C32.1196 25.6187 32.6103 25.752 33.1543 25.752ZM38.055 30.52C37.959 30.52 37.8417 30.5147 37.703 30.504C37.5643 30.4933 37.4523 30.4773 37.367 30.456V29.112C37.5803 29.144 37.7937 29.16 38.007 29.16C38.4443 29.16 38.807 29.0373 39.095 28.792C39.383 28.5467 39.527 28.1733 39.527 27.672V18.376H41.015V27.672C41.015 28.2907 40.887 28.808 40.631 29.224C40.375 29.6507 40.023 29.9707 39.575 30.184C39.127 30.408 38.6203 30.52 38.055 30.52ZM39.527 17V15.08H41.015V17H39.527ZM47.2919 27.192C46.4599 27.192 45.7185 26.9947 45.0679 26.6C44.4172 26.2053 43.9052 25.6667 43.5319 24.984C43.1585 24.2907 42.9719 23.5173 42.9719 22.664C42.9719 21.8 43.1532 21.032 43.5159 20.36C43.8892 19.688 44.3905 19.16 45.0199 18.776C45.6599 18.3813 46.3745 18.184 47.1639 18.184C47.8039 18.184 48.3692 18.3013 48.8599 18.536C49.3612 18.76 49.7825 19.0693 50.1239 19.464C50.4759 19.848 50.7425 20.2907 50.9239 20.792C51.1159 21.2827 51.2119 21.7947 51.2119 22.328C51.2119 22.4453 51.2012 22.5787 51.1799 22.728C51.1692 22.8667 51.1532 23 51.1319 23.128H44.0599V21.848H50.2679L49.5639 22.424C49.6599 21.8693 49.6065 21.3733 49.4039 20.936C49.2012 20.4987 48.9025 20.152 48.5079 19.896C48.1132 19.64 47.6652 19.512 47.1639 19.512C46.6625 19.512 46.2039 19.64 45.7879 19.896C45.3719 20.152 45.0465 20.52 44.8119 21C44.5879 21.4693 44.4972 22.0293 44.5399 22.68C44.4972 23.3093 44.5932 23.864 44.8279 24.344C45.0732 24.8133 45.4145 25.1813 45.8519 25.448C46.2999 25.704 46.7852 25.832 47.3079 25.832C47.8839 25.832 48.3692 25.6987 48.7639 25.432C49.1585 25.1653 49.4785 24.824 49.7239 24.408L50.9719 25.048C50.8012 25.4427 50.5345 25.8053 50.1719 26.136C49.8199 26.456 49.3985 26.712 48.9079 26.904C48.4279 27.096 47.8892 27.192 47.2919 27.192ZM57.152 27.192C56.3093 27.192 55.5573 26.9947 54.896 26.6C54.2453 26.2053 53.7333 25.6667 53.36 24.984C52.9867 24.3013 52.8 23.5333 52.8 22.68C52.8 21.816 52.9867 21.048 53.36 20.376C53.7333 19.704 54.2453 19.1707 54.896 18.776C55.5573 18.3813 56.3093 18.184 57.152 18.184C57.7173 18.184 58.2453 18.2853 58.736 18.488C59.2267 18.6907 59.6587 18.9627 60.032 19.304C60.4053 19.6453 60.6773 20.0453 60.848 20.504L59.52 21.144C59.3173 20.696 59.008 20.3333 58.592 20.056C58.176 19.768 57.696 19.624 57.152 19.624C56.6293 19.624 56.1547 19.7573 55.728 20.024C55.312 20.2907 54.9813 20.6533 54.736 21.112C54.4907 21.5707 54.368 22.0987 54.368 22.696C54.368 23.272 54.4907 23.7947 54.736 24.264C54.9813 24.7227 55.312 25.0853 55.728 25.352C56.1547 25.6187 56.6293 25.752 57.152 25.752C57.696 25.752 58.176 25.6133 58.592 25.336C59.008 25.048 59.3173 24.6693 59.52 24.2L60.848 24.872C60.6773 25.32 60.4053 25.72 60.032 26.072C59.6587 26.4133 59.2267 26.6853 58.736 26.888C58.2453 27.0907 57.7173 27.192 57.152 27.192ZM66.2966 27.096C65.454 27.096 64.8033 26.856 64.3446 26.376C63.8966 25.896 63.6726 25.2187 63.6726 24.344V19.8H62.1046V18.376H62.4246C62.8086 18.376 63.1126 18.2587 63.3366 18.024C63.5606 17.7893 63.6726 17.48 63.6726 17.096V16.392H65.1606V18.376H67.0966V19.8H65.1606V24.296C65.1606 24.584 65.2033 24.8347 65.2886 25.048C65.3846 25.2613 65.5393 25.432 65.7526 25.56C65.966 25.6773 66.2486 25.736 66.6006 25.736C66.6753 25.736 66.766 25.7307 66.8726 25.72C66.99 25.7093 67.0966 25.6987 67.1926 25.688V27C67.054 27.032 66.8993 27.0533 66.7286 27.064C66.558 27.0853 66.414 27.096 66.2966 27.096ZM72.2244 27.192C71.3604 27.192 70.6084 26.9787 69.9684 26.552C69.3284 26.1253 68.875 25.5493 68.6084 24.824L69.7924 24.248C70.0377 24.76 70.3737 25.1653 70.8004 25.464C71.227 25.7627 71.7017 25.912 72.2244 25.912C72.6937 25.912 73.083 25.8 73.3924 25.576C73.7017 25.352 73.8564 25.0587 73.8564 24.696C73.8564 24.44 73.7817 24.2373 73.6324 24.088C73.4937 23.928 73.323 23.8053 73.1204 23.72C72.9177 23.624 72.731 23.5547 72.5604 23.512L71.2644 23.144C70.4857 22.92 69.915 22.6 69.5524 22.184C69.2004 21.768 69.0244 21.2827 69.0244 20.728C69.0244 20.216 69.1524 19.7733 69.4084 19.4C69.675 19.016 70.0324 18.7173 70.4804 18.504C70.939 18.2907 71.451 18.184 72.0164 18.184C72.7737 18.184 73.451 18.376 74.0484 18.76C74.6564 19.144 75.0884 19.6827 75.3444 20.376L74.1284 20.936C73.9364 20.488 73.6484 20.136 73.2644 19.88C72.8804 19.6133 72.4484 19.48 71.9684 19.48C71.531 19.48 71.1844 19.592 70.9284 19.816C70.6724 20.0293 70.5444 20.3013 70.5444 20.632C70.5444 20.8773 70.6084 21.08 70.7364 21.24C70.8644 21.3893 71.019 21.5067 71.2004 21.592C71.3817 21.6667 71.5577 21.7307 71.7284 21.784L73.1364 22.2C73.8404 22.4027 74.3844 22.7173 74.7684 23.144C75.163 23.5707 75.3604 24.0827 75.3604 24.68C75.3604 25.16 75.227 25.592 74.9604 25.976C74.6937 26.36 74.3257 26.6587 73.8564 26.872C73.387 27.0853 72.843 27.192 72.2244 27.192Z" fill="white"/>
</svg>
