<svg width="86" height="40" viewBox="0 0 86 40" fill="none" xmlns="http://www.w3.org/2000/svg">
<rect width="86" height="40" rx="20" fill="black"/>
<path d="M13.328 27V15.08H17.536C18.3253 15.08 19.0187 15.2293 19.616 15.528C20.2133 15.8267 20.6773 16.2533 21.008 16.808C21.3493 17.3627 21.52 18.0133 21.52 18.76C21.52 19.6027 21.3067 20.3173 20.88 20.904C20.4533 21.4907 19.8773 21.912 19.152 22.168L21.92 27H20.096L17.184 21.832L18.224 22.44H14.896V27H13.328ZM14.896 21H17.584C18.0533 21 18.464 20.9093 18.816 20.728C19.168 20.5467 19.44 20.2853 19.632 19.944C19.8347 19.6027 19.936 19.208 19.936 18.76C19.936 18.3013 19.8347 17.9067 19.632 17.576C19.44 17.2347 19.168 16.9733 18.816 16.792C18.464 16.6107 18.0533 16.52 17.584 16.52H14.896V21ZM27.0106 27.192C26.1786 27.192 25.4373 26.9947 24.7866 26.6C24.136 26.2053 23.624 25.6667 23.2506 24.984C22.8773 24.2907 22.6906 23.5173 22.6906 22.664C22.6906 21.8 22.872 21.032 23.2346 20.36C23.608 19.688 24.1093 19.16 24.7386 18.776C25.3786 18.3813 26.0933 18.184 26.8826 18.184C27.5226 18.184 28.088 18.3013 28.5786 18.536C29.08 18.76 29.5013 19.0693 29.8426 19.464C30.1946 19.848 30.4613 20.2907 30.6426 20.792C30.8346 21.2827 30.9306 21.7947 30.9306 22.328C30.9306 22.4453 30.92 22.5787 30.8986 22.728C30.888 22.8667 30.872 23 30.8506 23.128H23.7786V21.848H29.9866L29.2826 22.424C29.3786 21.8693 29.3253 21.3733 29.1226 20.936C28.92 20.4987 28.6213 20.152 28.2266 19.896C27.832 19.64 27.384 19.512 26.8826 19.512C26.3813 19.512 25.9226 19.64 25.5066 19.896C25.0906 20.152 24.7653 20.52 24.5306 21C24.3066 21.4693 24.216 22.0293 24.2586 22.68C24.216 23.3093 24.312 23.864 24.5466 24.344C24.792 24.8133 25.1333 25.1813 25.5706 25.448C26.0186 25.704 26.504 25.832 27.0266 25.832C27.6026 25.832 28.088 25.6987 28.4826 25.432C28.8773 25.1653 29.1973 24.824 29.4426 24.408L30.6906 25.048C30.52 25.4427 30.2533 25.8053 29.8906 26.136C29.5386 26.456 29.1173 26.712 28.6266 26.904C28.1466 27.096 27.608 27.192 27.0106 27.192ZM35.9588 27.192C35.0948 27.192 34.3428 26.9787 33.7028 26.552C33.0628 26.1253 32.6094 25.5493 32.3428 24.824L33.5268 24.248C33.7721 24.76 34.1081 25.1653 34.5348 25.464C34.9614 25.7627 35.4361 25.912 35.9588 25.912C36.4281 25.912 36.8174 25.8 37.1268 25.576C37.4361 25.352 37.5908 25.0587 37.5908 24.696C37.5908 24.44 37.5161 24.2373 37.3668 24.088C37.2281 23.928 37.0574 23.8053 36.8548 23.72C36.6521 23.624 36.4654 23.5547 36.2948 23.512L34.9988 23.144C34.2201 22.92 33.6494 22.6 33.2868 22.184C32.9348 21.768 32.7588 21.2827 32.7588 20.728C32.7588 20.216 32.8868 19.7733 33.1428 19.4C33.4094 19.016 33.7668 18.7173 34.2148 18.504C34.6734 18.2907 35.1854 18.184 35.7508 18.184C36.5081 18.184 37.1854 18.376 37.7828 18.76C38.3908 19.144 38.8228 19.6827 39.0788 20.376L37.8628 20.936C37.6708 20.488 37.3828 20.136 36.9988 19.88C36.6148 19.6133 36.1828 19.48 35.7028 19.48C35.2654 19.48 34.9188 19.592 34.6628 19.816C34.4068 20.0293 34.2788 20.3013 34.2788 20.632C34.2788 20.8773 34.3428 21.08 34.4708 21.24C34.5988 21.3893 34.7534 21.5067 34.9348 21.592C35.1161 21.6667 35.2921 21.7307 35.4628 21.784L36.8708 22.2C37.5748 22.4027 38.1188 22.7173 38.5028 23.144C38.8974 23.5707 39.0948 24.0827 39.0948 24.68C39.0948 25.16 38.9614 25.592 38.6948 25.976C38.4281 26.36 38.0601 26.6587 37.5908 26.872C37.1214 27.0853 36.5774 27.192 35.9588 27.192ZM44.0986 27.192C43.48 27.192 42.92 27.048 42.4186 26.76C41.928 26.472 41.544 26.072 41.2666 25.56C41 25.0373 40.8666 24.44 40.8666 23.768V18.376H42.3546V23.608C42.3546 24.0347 42.44 24.408 42.6106 24.728C42.792 25.048 43.0373 25.2987 43.3466 25.48C43.6666 25.6613 44.0293 25.752 44.4346 25.752C44.84 25.752 45.1973 25.6613 45.5066 25.48C45.8266 25.2987 46.072 25.0373 46.2426 24.696C46.424 24.3547 46.5146 23.9493 46.5146 23.48V18.376H48.0186V27H46.5626V25.32L46.8026 25.464C46.6 26.008 46.2533 26.4347 45.7626 26.744C45.2826 27.0427 44.728 27.192 44.0986 27.192ZM50.3239 27V18.376H51.7799V20.136L51.5719 19.864C51.7852 19.32 52.1265 18.904 52.5959 18.616C53.0652 18.328 53.5932 18.184 54.1799 18.184C54.8519 18.184 55.4545 18.3707 55.9879 18.744C56.5319 19.1173 56.9052 19.608 57.1079 20.216L56.6919 20.232C56.9159 19.56 57.2945 19.0533 57.8279 18.712C58.3612 18.36 58.9532 18.184 59.6039 18.184C60.2012 18.184 60.7399 18.3227 61.2199 18.6C61.7105 18.8773 62.0999 19.2613 62.3879 19.752C62.6759 20.2427 62.8199 20.7973 62.8199 21.416V27H61.3159V21.896C61.3159 21.416 61.2305 21.0107 61.0599 20.68C60.8892 20.3493 60.6545 20.0933 60.3559 19.912C60.0679 19.72 59.7265 19.624 59.3319 19.624C58.9479 19.624 58.6012 19.72 58.2919 19.912C57.9932 20.0933 57.7532 20.3547 57.5719 20.696C57.4012 21.0267 57.3159 21.4267 57.3159 21.896V27H55.8119V21.896C55.8119 21.416 55.7265 21.0107 55.5559 20.68C55.3852 20.3493 55.1505 20.0933 54.8519 19.912C54.5639 19.72 54.2225 19.624 53.8279 19.624C53.4439 19.624 53.0972 19.72 52.7879 19.912C52.4892 20.0933 52.2492 20.3547 52.0679 20.696C51.8972 21.0267 51.8119 21.4267 51.8119 21.896V27H50.3239ZM68.9013 27.192C68.0693 27.192 67.3279 26.9947 66.6773 26.6C66.0266 26.2053 65.5146 25.6667 65.1413 24.984C64.7679 24.2907 64.5813 23.5173 64.5813 22.664C64.5813 21.8 64.7626 21.032 65.1253 20.36C65.4986 19.688 65.9999 19.16 66.6293 18.776C67.2693 18.3813 67.9839 18.184 68.7733 18.184C69.4133 18.184 69.9786 18.3013 70.4693 18.536C70.9706 18.76 71.3919 19.0693 71.7333 19.464C72.0853 19.848 72.3519 20.2907 72.5333 20.792C72.7253 21.2827 72.8212 21.7947 72.8212 22.328C72.8212 22.4453 72.8106 22.5787 72.7893 22.728C72.7786 22.8667 72.7626 23 72.7413 23.128H65.6693V21.848H71.8773L71.1733 22.424C71.2693 21.8693 71.2159 21.3733 71.0133 20.936C70.8106 20.4987 70.5119 20.152 70.1173 19.896C69.7226 19.64 69.2746 19.512 68.7733 19.512C68.2719 19.512 67.8133 19.64 67.3973 19.896C66.9813 20.152 66.6559 20.52 66.4213 21C66.1973 21.4693 66.1066 22.0293 66.1493 22.68C66.1066 23.3093 66.2026 23.864 66.4373 24.344C66.6826 24.8133 67.0239 25.1813 67.4613 25.448C67.9093 25.704 68.3946 25.832 68.9173 25.832C69.4933 25.832 69.9786 25.6987 70.3733 25.432C70.7679 25.1653 71.0879 24.824 71.3333 24.408L72.5813 25.048C72.4106 25.4427 72.1439 25.8053 71.7812 26.136C71.4293 26.456 71.0079 26.712 70.5173 26.904C70.0373 27.096 69.4986 27.192 68.9013 27.192Z" fill="white"/>
</svg>
